G75*
%MOIN*%
%OFA0B0*%
%FSLAX25Y25*%
%IPPOS*%
%LPD*%
%AMOC8*
5,1,8,0,0,1.08239X$1,22.5*
%
%ADD10C,0.01600*%
%ADD11C,0.00000*%
%ADD12C,0.00500*%
D10*
X0001800Y0012869D02*
X0001800Y0052239D01*
X0051013Y0176254D01*
X0178965Y0176254D01*
X0178965Y0012869D01*
X0001800Y0012869D01*
D11*
X0107528Y0084617D02*
X0107530Y0084703D01*
X0107536Y0084790D01*
X0107546Y0084875D01*
X0107560Y0084961D01*
X0107578Y0085045D01*
X0107599Y0085129D01*
X0107625Y0085211D01*
X0107654Y0085293D01*
X0107687Y0085372D01*
X0107724Y0085451D01*
X0107764Y0085527D01*
X0107808Y0085601D01*
X0107855Y0085674D01*
X0107906Y0085744D01*
X0107959Y0085812D01*
X0108016Y0085877D01*
X0108076Y0085939D01*
X0108138Y0085999D01*
X0108203Y0086056D01*
X0108271Y0086109D01*
X0108341Y0086160D01*
X0108414Y0086207D01*
X0108488Y0086251D01*
X0108564Y0086291D01*
X0108643Y0086328D01*
X0108722Y0086361D01*
X0108804Y0086390D01*
X0108886Y0086416D01*
X0108970Y0086437D01*
X0109054Y0086455D01*
X0109140Y0086469D01*
X0109225Y0086479D01*
X0109312Y0086485D01*
X0109398Y0086487D01*
X0109484Y0086485D01*
X0109571Y0086479D01*
X0109656Y0086469D01*
X0109742Y0086455D01*
X0109826Y0086437D01*
X0109910Y0086416D01*
X0109992Y0086390D01*
X0110074Y0086361D01*
X0110153Y0086328D01*
X0110232Y0086291D01*
X0110308Y0086251D01*
X0110382Y0086207D01*
X0110455Y0086160D01*
X0110525Y0086109D01*
X0110593Y0086056D01*
X0110658Y0085999D01*
X0110720Y0085939D01*
X0110780Y0085877D01*
X0110837Y0085812D01*
X0110890Y0085744D01*
X0110941Y0085674D01*
X0110988Y0085601D01*
X0111032Y0085527D01*
X0111072Y0085451D01*
X0111109Y0085372D01*
X0111142Y0085293D01*
X0111171Y0085211D01*
X0111197Y0085129D01*
X0111218Y0085045D01*
X0111236Y0084961D01*
X0111250Y0084875D01*
X0111260Y0084790D01*
X0111266Y0084703D01*
X0111268Y0084617D01*
X0111266Y0084531D01*
X0111260Y0084444D01*
X0111250Y0084359D01*
X0111236Y0084273D01*
X0111218Y0084189D01*
X0111197Y0084105D01*
X0111171Y0084023D01*
X0111142Y0083941D01*
X0111109Y0083862D01*
X0111072Y0083783D01*
X0111032Y0083707D01*
X0110988Y0083633D01*
X0110941Y0083560D01*
X0110890Y0083490D01*
X0110837Y0083422D01*
X0110780Y0083357D01*
X0110720Y0083295D01*
X0110658Y0083235D01*
X0110593Y0083178D01*
X0110525Y0083125D01*
X0110455Y0083074D01*
X0110382Y0083027D01*
X0110308Y0082983D01*
X0110232Y0082943D01*
X0110153Y0082906D01*
X0110074Y0082873D01*
X0109992Y0082844D01*
X0109910Y0082818D01*
X0109826Y0082797D01*
X0109742Y0082779D01*
X0109656Y0082765D01*
X0109571Y0082755D01*
X0109484Y0082749D01*
X0109398Y0082747D01*
X0109312Y0082749D01*
X0109225Y0082755D01*
X0109140Y0082765D01*
X0109054Y0082779D01*
X0108970Y0082797D01*
X0108886Y0082818D01*
X0108804Y0082844D01*
X0108722Y0082873D01*
X0108643Y0082906D01*
X0108564Y0082943D01*
X0108488Y0082983D01*
X0108414Y0083027D01*
X0108341Y0083074D01*
X0108271Y0083125D01*
X0108203Y0083178D01*
X0108138Y0083235D01*
X0108076Y0083295D01*
X0108016Y0083357D01*
X0107959Y0083422D01*
X0107906Y0083490D01*
X0107855Y0083560D01*
X0107808Y0083633D01*
X0107764Y0083707D01*
X0107724Y0083783D01*
X0107687Y0083862D01*
X0107654Y0083941D01*
X0107625Y0084023D01*
X0107599Y0084105D01*
X0107578Y0084189D01*
X0107560Y0084273D01*
X0107546Y0084359D01*
X0107536Y0084444D01*
X0107530Y0084531D01*
X0107528Y0084617D01*
X0107528Y0092617D02*
X0107530Y0092703D01*
X0107536Y0092790D01*
X0107546Y0092875D01*
X0107560Y0092961D01*
X0107578Y0093045D01*
X0107599Y0093129D01*
X0107625Y0093211D01*
X0107654Y0093293D01*
X0107687Y0093372D01*
X0107724Y0093451D01*
X0107764Y0093527D01*
X0107808Y0093601D01*
X0107855Y0093674D01*
X0107906Y0093744D01*
X0107959Y0093812D01*
X0108016Y0093877D01*
X0108076Y0093939D01*
X0108138Y0093999D01*
X0108203Y0094056D01*
X0108271Y0094109D01*
X0108341Y0094160D01*
X0108414Y0094207D01*
X0108488Y0094251D01*
X0108564Y0094291D01*
X0108643Y0094328D01*
X0108722Y0094361D01*
X0108804Y0094390D01*
X0108886Y0094416D01*
X0108970Y0094437D01*
X0109054Y0094455D01*
X0109140Y0094469D01*
X0109225Y0094479D01*
X0109312Y0094485D01*
X0109398Y0094487D01*
X0109484Y0094485D01*
X0109571Y0094479D01*
X0109656Y0094469D01*
X0109742Y0094455D01*
X0109826Y0094437D01*
X0109910Y0094416D01*
X0109992Y0094390D01*
X0110074Y0094361D01*
X0110153Y0094328D01*
X0110232Y0094291D01*
X0110308Y0094251D01*
X0110382Y0094207D01*
X0110455Y0094160D01*
X0110525Y0094109D01*
X0110593Y0094056D01*
X0110658Y0093999D01*
X0110720Y0093939D01*
X0110780Y0093877D01*
X0110837Y0093812D01*
X0110890Y0093744D01*
X0110941Y0093674D01*
X0110988Y0093601D01*
X0111032Y0093527D01*
X0111072Y0093451D01*
X0111109Y0093372D01*
X0111142Y0093293D01*
X0111171Y0093211D01*
X0111197Y0093129D01*
X0111218Y0093045D01*
X0111236Y0092961D01*
X0111250Y0092875D01*
X0111260Y0092790D01*
X0111266Y0092703D01*
X0111268Y0092617D01*
X0111266Y0092531D01*
X0111260Y0092444D01*
X0111250Y0092359D01*
X0111236Y0092273D01*
X0111218Y0092189D01*
X0111197Y0092105D01*
X0111171Y0092023D01*
X0111142Y0091941D01*
X0111109Y0091862D01*
X0111072Y0091783D01*
X0111032Y0091707D01*
X0110988Y0091633D01*
X0110941Y0091560D01*
X0110890Y0091490D01*
X0110837Y0091422D01*
X0110780Y0091357D01*
X0110720Y0091295D01*
X0110658Y0091235D01*
X0110593Y0091178D01*
X0110525Y0091125D01*
X0110455Y0091074D01*
X0110382Y0091027D01*
X0110308Y0090983D01*
X0110232Y0090943D01*
X0110153Y0090906D01*
X0110074Y0090873D01*
X0109992Y0090844D01*
X0109910Y0090818D01*
X0109826Y0090797D01*
X0109742Y0090779D01*
X0109656Y0090765D01*
X0109571Y0090755D01*
X0109484Y0090749D01*
X0109398Y0090747D01*
X0109312Y0090749D01*
X0109225Y0090755D01*
X0109140Y0090765D01*
X0109054Y0090779D01*
X0108970Y0090797D01*
X0108886Y0090818D01*
X0108804Y0090844D01*
X0108722Y0090873D01*
X0108643Y0090906D01*
X0108564Y0090943D01*
X0108488Y0090983D01*
X0108414Y0091027D01*
X0108341Y0091074D01*
X0108271Y0091125D01*
X0108203Y0091178D01*
X0108138Y0091235D01*
X0108076Y0091295D01*
X0108016Y0091357D01*
X0107959Y0091422D01*
X0107906Y0091490D01*
X0107855Y0091560D01*
X0107808Y0091633D01*
X0107764Y0091707D01*
X0107724Y0091783D01*
X0107687Y0091862D01*
X0107654Y0091941D01*
X0107625Y0092023D01*
X0107599Y0092105D01*
X0107578Y0092189D01*
X0107560Y0092273D01*
X0107546Y0092359D01*
X0107536Y0092444D01*
X0107530Y0092531D01*
X0107528Y0092617D01*
X0127528Y0088617D02*
X0127530Y0088703D01*
X0127536Y0088790D01*
X0127546Y0088875D01*
X0127560Y0088961D01*
X0127578Y0089045D01*
X0127599Y0089129D01*
X0127625Y0089211D01*
X0127654Y0089293D01*
X0127687Y0089372D01*
X0127724Y0089451D01*
X0127764Y0089527D01*
X0127808Y0089601D01*
X0127855Y0089674D01*
X0127906Y0089744D01*
X0127959Y0089812D01*
X0128016Y0089877D01*
X0128076Y0089939D01*
X0128138Y0089999D01*
X0128203Y0090056D01*
X0128271Y0090109D01*
X0128341Y0090160D01*
X0128414Y0090207D01*
X0128488Y0090251D01*
X0128564Y0090291D01*
X0128643Y0090328D01*
X0128722Y0090361D01*
X0128804Y0090390D01*
X0128886Y0090416D01*
X0128970Y0090437D01*
X0129054Y0090455D01*
X0129140Y0090469D01*
X0129225Y0090479D01*
X0129312Y0090485D01*
X0129398Y0090487D01*
X0129484Y0090485D01*
X0129571Y0090479D01*
X0129656Y0090469D01*
X0129742Y0090455D01*
X0129826Y0090437D01*
X0129910Y0090416D01*
X0129992Y0090390D01*
X0130074Y0090361D01*
X0130153Y0090328D01*
X0130232Y0090291D01*
X0130308Y0090251D01*
X0130382Y0090207D01*
X0130455Y0090160D01*
X0130525Y0090109D01*
X0130593Y0090056D01*
X0130658Y0089999D01*
X0130720Y0089939D01*
X0130780Y0089877D01*
X0130837Y0089812D01*
X0130890Y0089744D01*
X0130941Y0089674D01*
X0130988Y0089601D01*
X0131032Y0089527D01*
X0131072Y0089451D01*
X0131109Y0089372D01*
X0131142Y0089293D01*
X0131171Y0089211D01*
X0131197Y0089129D01*
X0131218Y0089045D01*
X0131236Y0088961D01*
X0131250Y0088875D01*
X0131260Y0088790D01*
X0131266Y0088703D01*
X0131268Y0088617D01*
X0131266Y0088531D01*
X0131260Y0088444D01*
X0131250Y0088359D01*
X0131236Y0088273D01*
X0131218Y0088189D01*
X0131197Y0088105D01*
X0131171Y0088023D01*
X0131142Y0087941D01*
X0131109Y0087862D01*
X0131072Y0087783D01*
X0131032Y0087707D01*
X0130988Y0087633D01*
X0130941Y0087560D01*
X0130890Y0087490D01*
X0130837Y0087422D01*
X0130780Y0087357D01*
X0130720Y0087295D01*
X0130658Y0087235D01*
X0130593Y0087178D01*
X0130525Y0087125D01*
X0130455Y0087074D01*
X0130382Y0087027D01*
X0130308Y0086983D01*
X0130232Y0086943D01*
X0130153Y0086906D01*
X0130074Y0086873D01*
X0129992Y0086844D01*
X0129910Y0086818D01*
X0129826Y0086797D01*
X0129742Y0086779D01*
X0129656Y0086765D01*
X0129571Y0086755D01*
X0129484Y0086749D01*
X0129398Y0086747D01*
X0129312Y0086749D01*
X0129225Y0086755D01*
X0129140Y0086765D01*
X0129054Y0086779D01*
X0128970Y0086797D01*
X0128886Y0086818D01*
X0128804Y0086844D01*
X0128722Y0086873D01*
X0128643Y0086906D01*
X0128564Y0086943D01*
X0128488Y0086983D01*
X0128414Y0087027D01*
X0128341Y0087074D01*
X0128271Y0087125D01*
X0128203Y0087178D01*
X0128138Y0087235D01*
X0128076Y0087295D01*
X0128016Y0087357D01*
X0127959Y0087422D01*
X0127906Y0087490D01*
X0127855Y0087560D01*
X0127808Y0087633D01*
X0127764Y0087707D01*
X0127724Y0087783D01*
X0127687Y0087862D01*
X0127654Y0087941D01*
X0127625Y0088023D01*
X0127599Y0088105D01*
X0127578Y0088189D01*
X0127560Y0088273D01*
X0127546Y0088359D01*
X0127536Y0088444D01*
X0127530Y0088531D01*
X0127528Y0088617D01*
D12*
X0051871Y0160295D02*
X0047681Y0161946D01*
X0048506Y0164041D01*
X0049479Y0164465D01*
X0050876Y0163914D01*
X0051299Y0162941D01*
X0050474Y0160846D01*
X0050311Y0158382D02*
X0046819Y0159758D01*
X0047094Y0160456D02*
X0046543Y0159059D01*
X0050311Y0158382D02*
X0050734Y0157409D01*
X0050459Y0156710D01*
X0049485Y0156287D01*
X0044535Y0149865D02*
X0043837Y0150140D01*
X0042863Y0149716D01*
X0042313Y0148320D01*
X0042736Y0147346D01*
X0042149Y0145856D02*
X0043546Y0145306D01*
X0043969Y0144332D01*
X0043144Y0142237D01*
X0044541Y0141687D02*
X0040351Y0143338D01*
X0041176Y0145433D01*
X0042149Y0145856D01*
X0045530Y0146246D02*
X0046503Y0146669D01*
X0047054Y0148066D01*
X0046630Y0149039D01*
X0045932Y0149314D01*
X0044958Y0148891D01*
X0044683Y0148193D01*
X0044958Y0148891D02*
X0044535Y0149865D01*
X0039764Y0141848D02*
X0039213Y0140451D01*
X0039488Y0141149D02*
X0042981Y0139774D01*
X0043404Y0138800D01*
X0043129Y0138102D01*
X0042155Y0137679D01*
X0039724Y0129957D02*
X0035533Y0131608D01*
X0036803Y0128688D01*
X0037903Y0131481D01*
X0036216Y0127198D02*
X0034819Y0127748D01*
X0033846Y0127325D01*
X0033020Y0125229D01*
X0037211Y0123579D01*
X0035814Y0124129D02*
X0036639Y0126224D01*
X0036216Y0127198D01*
X0032434Y0123739D02*
X0031883Y0122343D01*
X0032158Y0123041D02*
X0035651Y0121665D01*
X0036074Y0120692D01*
X0035799Y0119993D01*
X0034825Y0119570D01*
X0027978Y0111698D02*
X0026878Y0108904D01*
X0028973Y0108079D01*
X0028825Y0109751D01*
X0029100Y0110449D01*
X0030073Y0110873D01*
X0031470Y0110323D01*
X0031894Y0109349D01*
X0031343Y0107952D01*
X0030370Y0107529D01*
X0028386Y0106589D02*
X0028809Y0105616D01*
X0027984Y0103520D01*
X0029381Y0102970D02*
X0025190Y0104621D01*
X0026016Y0106716D01*
X0026989Y0107139D01*
X0028386Y0106589D01*
X0024604Y0103131D02*
X0024053Y0101734D01*
X0024328Y0102433D02*
X0027820Y0101057D01*
X0028244Y0100084D01*
X0027969Y0099385D01*
X0026995Y0098962D01*
X0023640Y0093214D02*
X0022942Y0093489D01*
X0021968Y0093066D01*
X0021143Y0090971D01*
X0022540Y0090421D01*
X0023513Y0090844D01*
X0024064Y0092241D01*
X0023640Y0093214D01*
X0021143Y0090971D02*
X0020296Y0092918D01*
X0020148Y0094590D01*
X0019159Y0090031D02*
X0018186Y0089608D01*
X0017360Y0087513D01*
X0021551Y0085862D01*
X0020154Y0086412D02*
X0020979Y0088507D01*
X0020556Y0089481D01*
X0019159Y0090031D01*
X0016774Y0086023D02*
X0016223Y0084626D01*
X0016498Y0085324D02*
X0019990Y0083949D01*
X0020414Y0082975D01*
X0020139Y0082277D01*
X0019165Y0081853D01*
X0010352Y0067902D02*
X0012045Y0064008D01*
X0012743Y0063733D01*
X0010061Y0063068D02*
X0010484Y0062095D01*
X0009659Y0060000D01*
X0011056Y0059449D02*
X0006865Y0061100D01*
X0007691Y0063195D01*
X0008664Y0063619D01*
X0010061Y0063068D01*
X0008553Y0065384D02*
X0009653Y0068177D01*
X0010352Y0067902D01*
X0006278Y0059610D02*
X0005728Y0058213D01*
X0006003Y0058912D02*
X0009495Y0057536D01*
X0009919Y0056563D01*
X0009644Y0055864D01*
X0008670Y0055441D01*
X0007536Y0028466D02*
X0006786Y0028466D01*
X0006035Y0027715D01*
X0006035Y0026214D01*
X0005284Y0025463D01*
X0004534Y0025463D01*
X0003783Y0026214D01*
X0003783Y0027715D01*
X0004534Y0028466D01*
X0005284Y0028466D01*
X0006035Y0027715D01*
X0006035Y0026214D02*
X0006786Y0025463D01*
X0007536Y0025463D01*
X0008287Y0026214D01*
X0008287Y0027715D01*
X0007536Y0028466D01*
X0006035Y0023862D02*
X0004534Y0023862D01*
X0003783Y0023111D01*
X0003783Y0020860D01*
X0008287Y0020860D01*
X0006786Y0020860D02*
X0006786Y0023111D01*
X0006035Y0023862D01*
X0003783Y0019258D02*
X0003783Y0017757D01*
X0003783Y0018508D02*
X0007536Y0018508D01*
X0008287Y0017757D01*
X0008287Y0017006D01*
X0007536Y0016256D01*
X0043306Y0052270D02*
X0043308Y0052329D01*
X0043314Y0052387D01*
X0043324Y0052445D01*
X0043337Y0052502D01*
X0043355Y0052559D01*
X0043376Y0052614D01*
X0043401Y0052667D01*
X0043429Y0052718D01*
X0043460Y0052768D01*
X0043495Y0052815D01*
X0043533Y0052860D01*
X0043574Y0052903D01*
X0043618Y0052942D01*
X0043664Y0052978D01*
X0043712Y0053012D01*
X0043763Y0053042D01*
X0043816Y0053068D01*
X0043870Y0053091D01*
X0043925Y0053110D01*
X0043982Y0053126D01*
X0044040Y0053138D01*
X0044098Y0053146D01*
X0044157Y0053150D01*
X0044215Y0053150D01*
X0044274Y0053146D01*
X0044332Y0053138D01*
X0044390Y0053126D01*
X0044447Y0053110D01*
X0044502Y0053091D01*
X0044556Y0053068D01*
X0044609Y0053042D01*
X0044660Y0053012D01*
X0044708Y0052978D01*
X0044754Y0052942D01*
X0044798Y0052903D01*
X0044839Y0052860D01*
X0044877Y0052815D01*
X0044912Y0052768D01*
X0044943Y0052718D01*
X0044971Y0052667D01*
X0044996Y0052614D01*
X0045017Y0052559D01*
X0045035Y0052502D01*
X0045048Y0052445D01*
X0045058Y0052387D01*
X0045064Y0052329D01*
X0045066Y0052270D01*
X0045064Y0052211D01*
X0045058Y0052153D01*
X0045048Y0052095D01*
X0045035Y0052038D01*
X0045017Y0051981D01*
X0044996Y0051926D01*
X0044971Y0051873D01*
X0044943Y0051822D01*
X0044912Y0051772D01*
X0044877Y0051725D01*
X0044839Y0051680D01*
X0044798Y0051637D01*
X0044754Y0051598D01*
X0044708Y0051562D01*
X0044660Y0051528D01*
X0044609Y0051498D01*
X0044556Y0051472D01*
X0044502Y0051449D01*
X0044447Y0051430D01*
X0044390Y0051414D01*
X0044332Y0051402D01*
X0044274Y0051394D01*
X0044215Y0051390D01*
X0044157Y0051390D01*
X0044098Y0051394D01*
X0044040Y0051402D01*
X0043982Y0051414D01*
X0043925Y0051430D01*
X0043870Y0051449D01*
X0043816Y0051472D01*
X0043763Y0051498D01*
X0043712Y0051528D01*
X0043664Y0051562D01*
X0043618Y0051598D01*
X0043574Y0051637D01*
X0043533Y0051680D01*
X0043495Y0051725D01*
X0043460Y0051772D01*
X0043429Y0051822D01*
X0043401Y0051873D01*
X0043376Y0051926D01*
X0043355Y0051981D01*
X0043337Y0052038D01*
X0043324Y0052095D01*
X0043314Y0052153D01*
X0043308Y0052211D01*
X0043306Y0052270D01*
X0053558Y0164579D02*
X0051865Y0168473D01*
X0051167Y0168748D01*
X0050193Y0168325D01*
X0049643Y0166928D01*
X0050066Y0165954D01*
X0053558Y0164579D02*
X0054659Y0167373D01*
M02*
