G75*
%MOIN*%
%OFA0B0*%
%FSLAX25Y25*%
%IPPOS*%
%LPD*%
%AMOC8*
5,1,8,0,0,1.08239X$1,22.5*
%
%ADD10C,0.06000*%
%ADD11OC8,0.06000*%
%ADD12C,0.02800*%
%ADD13C,0.00600*%
%ADD14C,0.03200*%
%ADD15C,0.01200*%
D10*
X0007737Y0020806D02*
X0013737Y0020806D01*
X0013737Y0030806D02*
X0007737Y0030806D01*
X0007737Y0040806D02*
X0013737Y0040806D01*
X0014942Y0053535D02*
X0009360Y0055734D01*
X0013025Y0065038D02*
X0018607Y0062839D01*
X0022272Y0072143D02*
X0016690Y0074342D01*
X0020355Y0083646D02*
X0025937Y0081447D01*
X0029602Y0090751D02*
X0024020Y0092950D01*
X0027685Y0102254D02*
X0033267Y0100055D01*
X0036932Y0109360D02*
X0031350Y0111559D01*
X0035015Y0120863D02*
X0040597Y0118664D01*
X0044262Y0127968D02*
X0038680Y0130167D01*
X0042345Y0139471D02*
X0047927Y0137272D01*
X0051592Y0146576D02*
X0046010Y0148775D01*
X0049675Y0158079D02*
X0055257Y0155880D01*
X0058922Y0165185D02*
X0053340Y0167384D01*
X0167879Y0031688D02*
X0173879Y0031688D01*
X0173879Y0021688D02*
X0167879Y0021688D01*
D11*
X0029800Y0055869D03*
D12*
X0036000Y0066869D03*
X0049600Y0081269D03*
X0054000Y0086069D03*
X0055700Y0091969D03*
X0059400Y0095669D03*
X0063600Y0084869D03*
X0076300Y0089869D03*
X0087800Y0077869D03*
X0097900Y0068369D03*
X0102600Y0068669D03*
X0102500Y0063269D03*
X0097900Y0063369D03*
X0109300Y0054869D03*
X0119800Y0054869D03*
X0131800Y0050869D03*
X0133700Y0060269D03*
X0133700Y0067769D03*
X0126800Y0067869D03*
X0118300Y0080869D03*
X0107300Y0077869D03*
X0102800Y0091369D03*
X0115398Y0100617D03*
X0113898Y0104617D03*
X0118898Y0097617D03*
X0121898Y0094117D03*
X0131398Y0084117D03*
X0135398Y0084117D03*
X0139398Y0084117D03*
X0146800Y0080869D03*
X0148100Y0093269D03*
X0148300Y0098569D03*
X0148300Y0102369D03*
X0145800Y0104869D03*
X0136898Y0104117D03*
X0133898Y0102117D03*
X0126898Y0115117D03*
X0123898Y0119617D03*
X0128398Y0121117D03*
X0127898Y0124617D03*
X0136898Y0128117D03*
X0136898Y0135117D03*
X0144898Y0135117D03*
X0144898Y0128117D03*
X0155634Y0124236D03*
X0158898Y0121617D03*
X0163398Y0121617D03*
X0168398Y0121617D03*
X0168398Y0116117D03*
X0174398Y0116617D03*
X0174398Y0121617D03*
X0174398Y0127617D03*
X0174398Y0133117D03*
X0168398Y0133117D03*
X0168398Y0127617D03*
X0162398Y0116117D03*
X0155898Y0117117D03*
X0155898Y0110117D03*
X0162398Y0109117D03*
X0162398Y0102617D03*
X0155898Y0102617D03*
X0154700Y0095869D03*
X0169200Y0092369D03*
X0168398Y0102617D03*
X0174398Y0102617D03*
X0174398Y0109117D03*
X0168398Y0109117D03*
X0167300Y0080869D03*
X0173800Y0077369D03*
X0162300Y0044869D03*
X0127800Y0024269D03*
X0114800Y0031869D03*
X0113800Y0040869D03*
X0105300Y0041369D03*
X0103800Y0024369D03*
X0092300Y0021869D03*
X0063800Y0033869D03*
X0056800Y0039869D03*
X0052800Y0039869D03*
X0052800Y0044869D03*
X0056800Y0044869D03*
X0038800Y0036369D03*
X0072700Y0066269D03*
X0118898Y0119617D03*
X0118898Y0133617D03*
X0121300Y0136869D03*
X0127398Y0137117D03*
X0135600Y0146069D03*
X0127398Y0148117D03*
X0127398Y0153117D03*
X0116898Y0147617D03*
X0111700Y0147669D03*
X0108300Y0141869D03*
X0104300Y0138869D03*
X0098400Y0137669D03*
X0093800Y0132869D03*
X0105800Y0158369D03*
X0099800Y0161369D03*
X0092800Y0166369D03*
X0101800Y0171869D03*
X0106300Y0171369D03*
X0128800Y0172369D03*
X0134200Y0165069D03*
X0144300Y0158369D03*
X0148900Y0151369D03*
X0146300Y0148869D03*
X0155620Y0138939D03*
X0157854Y0143416D03*
X0161211Y0139679D03*
X0137300Y0117769D03*
X0146300Y0170869D03*
X0061800Y0152369D03*
D13*
X0010737Y0020806D02*
X0010637Y0016269D01*
X0124700Y0016269D01*
X0124800Y0038369D01*
X0162300Y0038369D01*
X0162300Y0044869D01*
X0158300Y0045369D02*
X0158300Y0048869D01*
X0176600Y0048769D01*
X0176600Y0094769D01*
X0154700Y0094869D01*
X0154700Y0095869D01*
X0150800Y0100869D02*
X0148300Y0100869D01*
X0148300Y0102369D01*
X0150800Y0102169D02*
X0150800Y0104869D01*
X0145800Y0104869D01*
X0143800Y0100569D02*
X0141100Y0103269D01*
X0141100Y0148869D01*
X0146300Y0148869D01*
X0148900Y0151369D02*
X0142000Y0151369D01*
X0142000Y0151569D01*
X0139600Y0151369D01*
X0139600Y0117169D01*
X0139500Y0114869D01*
X0139500Y0098569D01*
X0148100Y0093269D01*
X0148300Y0098569D02*
X0143800Y0100569D01*
X0150800Y0100869D02*
X0150800Y0080869D01*
X0146800Y0080869D01*
X0152300Y0088869D02*
X0152300Y0102169D01*
X0150800Y0102169D01*
X0152300Y0088869D02*
X0170300Y0088869D01*
X0170300Y0077369D01*
X0173800Y0077369D01*
X0158300Y0045369D02*
X0105300Y0045369D01*
X0105300Y0041369D01*
X0114800Y0031869D02*
X0092300Y0031869D01*
X0092300Y0021869D01*
X0125800Y0059869D02*
X0029800Y0059869D01*
X0029800Y0055869D01*
X0036000Y0066869D02*
X0036000Y0071669D01*
X0054000Y0089669D01*
X0058800Y0089669D01*
X0064100Y0094969D01*
X0064100Y0141769D01*
X0097800Y0141969D01*
X0102600Y0141969D01*
X0102700Y0141869D01*
X0108300Y0141869D01*
X0104300Y0138869D02*
X0103300Y0140369D01*
X0095300Y0140369D01*
X0094600Y0139169D01*
X0067300Y0139169D01*
X0066800Y0114369D01*
X0066800Y0095869D01*
X0057000Y0086069D01*
X0054000Y0086069D01*
X0058200Y0093269D02*
X0057000Y0094469D01*
X0045000Y0094469D01*
X0024000Y0073469D01*
X0019800Y0073469D01*
X0019481Y0073242D01*
X0048600Y0095669D02*
X0034200Y0110069D01*
X0034141Y0110459D01*
X0048600Y0095669D02*
X0059400Y0095669D01*
X0060600Y0093269D02*
X0061800Y0094469D01*
X0062300Y0144769D01*
X0097200Y0145169D01*
X0125600Y0145169D01*
X0126600Y0145069D01*
X0129000Y0145069D01*
X0129000Y0146069D01*
X0135600Y0146069D01*
X0127398Y0138670D02*
X0127398Y0137117D01*
X0127398Y0138670D02*
X0125600Y0140469D01*
X0119200Y0140469D01*
X0119200Y0140269D01*
X0115400Y0136469D01*
X0115400Y0134618D01*
X0115398Y0134617D01*
X0115398Y0116617D01*
X0121898Y0110117D01*
X0121898Y0094117D01*
X0124300Y0088369D02*
X0118300Y0088369D01*
X0118300Y0080869D01*
X0124300Y0088369D02*
X0124300Y0115869D01*
X0121300Y0115869D01*
X0121300Y0136869D01*
X0127898Y0124617D02*
X0131398Y0124117D01*
X0131398Y0106117D01*
X0130898Y0105617D01*
X0130898Y0097117D01*
X0135898Y0092117D01*
X0135898Y0084617D01*
X0135398Y0084117D01*
X0133898Y0086617D02*
X0131398Y0084117D01*
X0133898Y0086617D02*
X0133898Y0092117D01*
X0129398Y0096617D01*
X0129398Y0121117D01*
X0128398Y0121117D01*
X0098400Y0137669D02*
X0070000Y0137769D01*
X0070000Y0097269D01*
X0063600Y0090869D01*
X0063600Y0084869D01*
X0060600Y0093269D02*
X0058200Y0093269D01*
X0072300Y0096869D02*
X0075300Y0093869D01*
X0075300Y0090869D01*
X0076300Y0089869D01*
X0072300Y0096869D02*
X0072300Y0132869D01*
X0093800Y0132869D01*
X0105800Y0158369D02*
X0144300Y0158369D01*
X0134200Y0165069D02*
X0110200Y0165069D01*
X0110300Y0171369D01*
X0106300Y0171369D01*
X0125800Y0067869D02*
X0125800Y0059869D01*
X0125800Y0067869D02*
X0126800Y0067869D01*
X0168000Y0024269D02*
X0170400Y0021869D01*
X0170879Y0021688D01*
D14*
X0066800Y0056869D03*
X0043800Y0032369D03*
X0038800Y0053869D03*
D15*
X0038800Y0056869D01*
X0066800Y0056869D01*
X0075300Y0063369D02*
X0087800Y0075869D01*
X0087800Y0077869D01*
X0107300Y0077869D01*
X0109300Y0054869D02*
X0119800Y0054869D01*
X0127800Y0024269D02*
X0168000Y0024269D01*
X0075300Y0063369D02*
X0026300Y0063369D01*
X0017565Y0054634D01*
X0012151Y0054634D01*
X0010737Y0040806D02*
X0027737Y0032369D01*
X0043800Y0032369D01*
M02*
