G75*
%MOIN*%
%OFA0B0*%
%FSLAX25Y25*%
%IPPOS*%
%LPD*%
%AMOC8*
5,1,8,0,0,1.08239X$1,22.5*
%
%ADD10C,0.06000*%
%ADD11C,0.02800*%
%ADD12C,0.01600*%
%ADD13C,0.00600*%
%ADD14C,0.03200*%
D10*
X0010737Y0020806D03*
X0010737Y0030806D03*
X0010737Y0040806D03*
X0012151Y0054634D03*
X0015816Y0063938D03*
X0019481Y0073242D03*
X0023146Y0082547D03*
X0026811Y0091851D03*
X0030476Y0101155D03*
X0034141Y0110459D03*
X0037806Y0119763D03*
X0041471Y0129067D03*
X0045136Y0138372D03*
X0048801Y0147676D03*
X0052466Y0156980D03*
X0056131Y0166284D03*
X0029800Y0055869D03*
X0170879Y0031688D03*
X0170879Y0021688D03*
D11*
X0162300Y0044869D03*
X0133700Y0060269D03*
X0133700Y0067769D03*
X0126800Y0067869D03*
X0119800Y0054869D03*
X0109300Y0054869D03*
X0102500Y0063269D03*
X0097900Y0063369D03*
X0097900Y0068369D03*
X0102600Y0068669D03*
X0107300Y0077869D03*
X0118300Y0080869D03*
X0131398Y0084117D03*
X0135398Y0084117D03*
X0139398Y0084117D03*
X0146800Y0080869D03*
X0148100Y0093269D03*
X0148300Y0098569D03*
X0148300Y0102369D03*
X0145800Y0104869D03*
X0136898Y0104117D03*
X0133898Y0102117D03*
X0121898Y0094117D03*
X0118898Y0097617D03*
X0115398Y0100617D03*
X0113898Y0104617D03*
X0126898Y0115117D03*
X0123898Y0119617D03*
X0128398Y0121117D03*
X0127898Y0124617D03*
X0136898Y0128117D03*
X0136898Y0135117D03*
X0144898Y0135117D03*
X0144898Y0128117D03*
X0155634Y0124236D03*
X0158898Y0121617D03*
X0163398Y0121617D03*
X0168398Y0121617D03*
X0168398Y0116117D03*
X0174398Y0116617D03*
X0174398Y0121617D03*
X0174398Y0127617D03*
X0174398Y0133117D03*
X0168398Y0133117D03*
X0168398Y0127617D03*
X0162398Y0116117D03*
X0155898Y0117117D03*
X0155898Y0110117D03*
X0162398Y0109117D03*
X0162398Y0102617D03*
X0155898Y0102617D03*
X0154700Y0095869D03*
X0169200Y0092369D03*
X0168398Y0102617D03*
X0174398Y0102617D03*
X0174398Y0109117D03*
X0168398Y0109117D03*
X0167300Y0080869D03*
X0173800Y0077369D03*
X0137300Y0117769D03*
X0118898Y0119617D03*
X0118898Y0133617D03*
X0121300Y0136869D03*
X0127398Y0137117D03*
X0135600Y0146069D03*
X0127398Y0148117D03*
X0127398Y0153117D03*
X0116898Y0147617D03*
X0111700Y0147669D03*
X0108300Y0141869D03*
X0104300Y0138869D03*
X0098400Y0137669D03*
X0093800Y0132869D03*
X0105800Y0158369D03*
X0099800Y0161369D03*
X0092800Y0166369D03*
X0101800Y0171869D03*
X0106300Y0171369D03*
X0128800Y0172369D03*
X0134200Y0165069D03*
X0144300Y0158369D03*
X0148900Y0151369D03*
X0146300Y0148869D03*
X0155620Y0138939D03*
X0157854Y0143416D03*
X0161211Y0139679D03*
X0146300Y0170869D03*
X0102800Y0091369D03*
X0087800Y0077869D03*
X0076300Y0089869D03*
X0063600Y0084869D03*
X0055700Y0091969D03*
X0059400Y0095669D03*
X0054000Y0086069D03*
X0049600Y0081269D03*
X0036000Y0066869D03*
X0052800Y0044869D03*
X0056800Y0044869D03*
X0056800Y0039869D03*
X0052800Y0039869D03*
X0063800Y0033869D03*
X0038800Y0036369D03*
X0072700Y0066269D03*
X0105300Y0041369D03*
X0113800Y0040869D03*
X0114800Y0031869D03*
X0103800Y0024369D03*
X0092300Y0021869D03*
X0127800Y0024269D03*
X0131800Y0050869D03*
X0061800Y0152369D03*
D12*
X0004600Y0051703D02*
X0004600Y0015669D01*
X0104800Y0015669D01*
X0104800Y0021752D01*
X0104357Y0021569D01*
X0103243Y0021569D01*
X0102214Y0021995D01*
X0101426Y0022783D01*
X0101000Y0023812D01*
X0101000Y0024926D01*
X0101426Y0025955D01*
X0102214Y0026742D01*
X0103243Y0027169D01*
X0104357Y0027169D01*
X0104800Y0026985D01*
X0104800Y0028869D01*
X0116800Y0028869D01*
X0116800Y0040869D01*
X0161184Y0042300D01*
X0160714Y0042495D01*
X0159926Y0043283D01*
X0159500Y0044312D01*
X0159500Y0045426D01*
X0159926Y0046455D01*
X0160714Y0047242D01*
X0161743Y0047669D01*
X0162857Y0047669D01*
X0163886Y0047242D01*
X0164674Y0046455D01*
X0165100Y0045426D01*
X0165100Y0044312D01*
X0164674Y0043283D01*
X0163886Y0042495D01*
X0163605Y0042378D01*
X0176165Y0042784D01*
X0176165Y0075774D01*
X0175386Y0074995D01*
X0174357Y0074569D01*
X0173243Y0074569D01*
X0172214Y0074995D01*
X0171426Y0075783D01*
X0171000Y0076812D01*
X0171000Y0077926D01*
X0171426Y0078955D01*
X0172214Y0079742D01*
X0173243Y0080169D01*
X0174357Y0080169D01*
X0175386Y0079742D01*
X0176165Y0078963D01*
X0176165Y0094869D01*
X0157316Y0094869D01*
X0157074Y0094283D01*
X0156286Y0093495D01*
X0155257Y0093069D01*
X0154143Y0093069D01*
X0153114Y0093495D01*
X0152326Y0094283D01*
X0152084Y0094869D01*
X0150460Y0094869D01*
X0150474Y0094855D01*
X0150900Y0093826D01*
X0150900Y0092712D01*
X0150474Y0091683D01*
X0149686Y0090895D01*
X0148657Y0090469D01*
X0147543Y0090469D01*
X0146514Y0090895D01*
X0145726Y0091683D01*
X0145300Y0092712D01*
X0145300Y0093826D01*
X0145726Y0094855D01*
X0146514Y0095642D01*
X0147281Y0095960D01*
X0146714Y0096195D01*
X0145926Y0096983D01*
X0145500Y0098012D01*
X0145500Y0099126D01*
X0145926Y0100155D01*
X0146240Y0100469D01*
X0145926Y0100783D01*
X0145500Y0101812D01*
X0145500Y0102069D01*
X0145243Y0102069D01*
X0144214Y0102495D01*
X0143426Y0103283D01*
X0143000Y0104312D01*
X0143000Y0105426D01*
X0143426Y0106455D01*
X0144214Y0107242D01*
X0145243Y0107669D01*
X0146357Y0107669D01*
X0147386Y0107242D01*
X0148174Y0106455D01*
X0148600Y0105426D01*
X0148600Y0105169D01*
X0148670Y0105169D01*
X0148143Y0146752D01*
X0147886Y0146495D01*
X0146857Y0146069D01*
X0145743Y0146069D01*
X0144714Y0146495D01*
X0143926Y0147283D01*
X0143500Y0148312D01*
X0143500Y0149426D01*
X0143926Y0150455D01*
X0144714Y0151242D01*
X0145743Y0151669D01*
X0146100Y0151669D01*
X0146100Y0151926D01*
X0146526Y0152955D01*
X0147314Y0153742D01*
X0148051Y0154048D01*
X0147805Y0173454D01*
X0131381Y0173454D01*
X0131600Y0172926D01*
X0131600Y0171812D01*
X0131174Y0170783D01*
X0130386Y0169995D01*
X0129357Y0169569D01*
X0128243Y0169569D01*
X0127214Y0169995D01*
X0126426Y0170783D01*
X0126000Y0171812D01*
X0126000Y0172926D01*
X0126219Y0173454D01*
X0108174Y0173454D01*
X0108674Y0172955D01*
X0109100Y0171926D01*
X0109100Y0170812D01*
X0108674Y0169783D01*
X0107886Y0168995D01*
X0106857Y0168569D01*
X0105743Y0168569D01*
X0104714Y0168995D01*
X0103926Y0169783D01*
X0103852Y0169961D01*
X0103386Y0169495D01*
X0102357Y0169069D01*
X0101243Y0169069D01*
X0100214Y0169495D01*
X0099426Y0170283D01*
X0099000Y0171312D01*
X0099000Y0172426D01*
X0099426Y0173454D01*
X0052914Y0173454D01*
X0004600Y0051703D01*
X0004600Y0051233D02*
X0009330Y0051233D01*
X0009659Y0050904D02*
X0011276Y0050234D01*
X0013026Y0050234D01*
X0014643Y0050904D01*
X0015881Y0052142D01*
X0016551Y0053759D01*
X0016551Y0055509D01*
X0015881Y0057126D01*
X0014643Y0058364D01*
X0013026Y0059034D01*
X0011276Y0059034D01*
X0009659Y0058364D01*
X0008421Y0057126D01*
X0007751Y0055509D01*
X0007751Y0053759D01*
X0008421Y0052142D01*
X0009659Y0050904D01*
X0008135Y0052831D02*
X0005048Y0052831D01*
X0005682Y0054430D02*
X0007751Y0054430D01*
X0007966Y0056028D02*
X0006316Y0056028D01*
X0006951Y0057627D02*
X0008921Y0057627D01*
X0007585Y0059225D02*
X0026934Y0059225D01*
X0027308Y0059599D02*
X0026070Y0058361D01*
X0025400Y0056744D01*
X0025400Y0054993D01*
X0026070Y0053376D01*
X0027308Y0052138D01*
X0028925Y0051469D01*
X0030675Y0051469D01*
X0032292Y0052138D01*
X0033530Y0053376D01*
X0034200Y0054993D01*
X0034200Y0056744D01*
X0033530Y0058361D01*
X0032292Y0059599D01*
X0030675Y0060269D01*
X0028925Y0060269D01*
X0027308Y0059599D01*
X0025766Y0057627D02*
X0015381Y0057627D01*
X0016336Y0056028D02*
X0025400Y0056028D01*
X0025633Y0054430D02*
X0016551Y0054430D01*
X0016167Y0052831D02*
X0026615Y0052831D01*
X0032985Y0052831D02*
X0035982Y0052831D01*
X0035800Y0053272D02*
X0036257Y0052169D01*
X0037101Y0051325D01*
X0038203Y0050869D01*
X0039397Y0050869D01*
X0040499Y0051325D01*
X0041151Y0051977D01*
X0041653Y0050430D01*
X0043218Y0049293D01*
X0045153Y0049293D01*
X0046718Y0050430D01*
X0047316Y0052270D01*
X0046718Y0054110D01*
X0045153Y0055247D01*
X0043218Y0055247D01*
X0041800Y0054217D01*
X0041800Y0054465D01*
X0041343Y0055568D01*
X0040499Y0056412D01*
X0039397Y0056869D01*
X0038203Y0056869D01*
X0037101Y0056412D01*
X0036257Y0055568D01*
X0035800Y0054465D01*
X0035800Y0053272D01*
X0035800Y0054430D02*
X0033967Y0054430D01*
X0034200Y0056028D02*
X0036717Y0056028D01*
X0033834Y0057627D02*
X0063867Y0057627D01*
X0063800Y0057465D02*
X0063800Y0056272D01*
X0064257Y0055169D01*
X0065101Y0054325D01*
X0066203Y0053869D01*
X0067397Y0053869D01*
X0068499Y0054325D01*
X0069343Y0055169D01*
X0069800Y0056272D01*
X0069800Y0057465D01*
X0069343Y0058568D01*
X0068499Y0059412D01*
X0067397Y0059869D01*
X0066203Y0059869D01*
X0065101Y0059412D01*
X0064257Y0058568D01*
X0063800Y0057465D01*
X0063901Y0056028D02*
X0040883Y0056028D01*
X0041800Y0054430D02*
X0042093Y0054430D01*
X0041393Y0051233D02*
X0040276Y0051233D01*
X0037324Y0051233D02*
X0014972Y0051233D01*
X0012498Y0044839D02*
X0159500Y0044839D01*
X0159919Y0046437D02*
X0004600Y0046437D01*
X0004600Y0044839D02*
X0008976Y0044839D01*
X0008245Y0044536D02*
X0007007Y0043298D01*
X0006337Y0041681D01*
X0006337Y0039930D01*
X0007007Y0038313D01*
X0008245Y0037075D01*
X0009862Y0036406D01*
X0011612Y0036406D01*
X0013229Y0037075D01*
X0014467Y0038313D01*
X0015137Y0039930D01*
X0015137Y0041681D01*
X0014467Y0043298D01*
X0013229Y0044536D01*
X0011612Y0045206D01*
X0009862Y0045206D01*
X0008245Y0044536D01*
X0006983Y0043240D02*
X0004600Y0043240D01*
X0004600Y0041642D02*
X0006337Y0041642D01*
X0006337Y0040043D02*
X0004600Y0040043D01*
X0004600Y0038445D02*
X0006952Y0038445D01*
X0008798Y0036846D02*
X0004600Y0036846D01*
X0004600Y0035248D02*
X0008882Y0035248D01*
X0008894Y0035254D02*
X0008221Y0034911D01*
X0007610Y0034467D01*
X0007076Y0033933D01*
X0006632Y0033321D01*
X0006289Y0032648D01*
X0006055Y0031930D01*
X0005937Y0031183D01*
X0005937Y0031006D01*
X0010537Y0031006D01*
X0010537Y0035606D01*
X0010359Y0035606D01*
X0009613Y0035487D01*
X0008894Y0035254D01*
X0010537Y0035248D02*
X0010937Y0035248D01*
X0010937Y0035606D02*
X0011115Y0035606D01*
X0011861Y0035487D01*
X0012580Y0035254D01*
X0013253Y0034911D01*
X0013864Y0034467D01*
X0014398Y0033933D01*
X0014842Y0033321D01*
X0015185Y0032648D01*
X0015419Y0031930D01*
X0015537Y0031183D01*
X0015537Y0031006D01*
X0010937Y0031006D01*
X0010537Y0031006D01*
X0010537Y0030606D01*
X0005937Y0030606D01*
X0005937Y0030428D01*
X0006055Y0029682D01*
X0006289Y0028963D01*
X0006632Y0028290D01*
X0007076Y0027679D01*
X0007610Y0027144D01*
X0008221Y0026700D01*
X0008894Y0026357D01*
X0009613Y0026124D01*
X0010359Y0026006D01*
X0010537Y0026006D01*
X0010537Y0030606D01*
X0010937Y0030606D01*
X0010937Y0031006D01*
X0010937Y0035606D01*
X0012592Y0035248D02*
X0036234Y0035248D01*
X0036426Y0034783D02*
X0037214Y0033995D01*
X0038243Y0033569D01*
X0039357Y0033569D01*
X0040386Y0033995D01*
X0041174Y0034783D01*
X0041600Y0035812D01*
X0041600Y0036926D01*
X0041174Y0037955D01*
X0040386Y0038742D01*
X0039357Y0039169D01*
X0038243Y0039169D01*
X0037214Y0038742D01*
X0036426Y0037955D01*
X0036000Y0036926D01*
X0036000Y0035812D01*
X0036426Y0034783D01*
X0038048Y0033649D02*
X0014604Y0033649D01*
X0015379Y0032051D02*
X0040800Y0032051D01*
X0040800Y0031772D02*
X0041257Y0030669D01*
X0042101Y0029825D01*
X0043203Y0029369D01*
X0044397Y0029369D01*
X0045499Y0029825D01*
X0046343Y0030669D01*
X0046800Y0031772D01*
X0046800Y0032965D01*
X0046343Y0034068D01*
X0045499Y0034912D01*
X0044397Y0035369D01*
X0043203Y0035369D01*
X0042101Y0034912D01*
X0041257Y0034068D01*
X0040800Y0032965D01*
X0040800Y0031772D01*
X0041474Y0030452D02*
X0015537Y0030452D01*
X0015537Y0030428D02*
X0015537Y0030606D01*
X0010937Y0030606D01*
X0010937Y0026006D01*
X0011115Y0026006D01*
X0011861Y0026124D01*
X0012580Y0026357D01*
X0013253Y0026700D01*
X0013864Y0027144D01*
X0014398Y0027679D01*
X0014842Y0028290D01*
X0015185Y0028963D01*
X0015419Y0029682D01*
X0015537Y0030428D01*
X0015130Y0028854D02*
X0104800Y0028854D01*
X0104800Y0027255D02*
X0013975Y0027255D01*
X0013229Y0024536D02*
X0011612Y0025206D01*
X0009862Y0025206D01*
X0008245Y0024536D01*
X0007007Y0023298D01*
X0006337Y0021681D01*
X0006337Y0019930D01*
X0007007Y0018313D01*
X0008245Y0017075D01*
X0009862Y0016406D01*
X0011612Y0016406D01*
X0013229Y0017075D01*
X0014467Y0018313D01*
X0015137Y0019930D01*
X0015137Y0021681D01*
X0014467Y0023298D01*
X0013229Y0024536D01*
X0013707Y0024058D02*
X0101000Y0024058D01*
X0101303Y0025657D02*
X0004600Y0025657D01*
X0004600Y0027255D02*
X0007499Y0027255D01*
X0006344Y0028854D02*
X0004600Y0028854D01*
X0004600Y0030452D02*
X0005937Y0030452D01*
X0006095Y0032051D02*
X0004600Y0032051D01*
X0004600Y0033649D02*
X0006870Y0033649D01*
X0010537Y0033649D02*
X0010937Y0033649D01*
X0010937Y0032051D02*
X0010537Y0032051D01*
X0010537Y0030452D02*
X0010937Y0030452D01*
X0010937Y0028854D02*
X0010537Y0028854D01*
X0010537Y0027255D02*
X0010937Y0027255D01*
X0007767Y0024058D02*
X0004600Y0024058D01*
X0004600Y0022460D02*
X0006660Y0022460D01*
X0006337Y0020861D02*
X0004600Y0020861D01*
X0004600Y0019263D02*
X0006614Y0019263D01*
X0007656Y0017664D02*
X0004600Y0017664D01*
X0004600Y0016066D02*
X0104800Y0016066D01*
X0104800Y0017664D02*
X0013818Y0017664D01*
X0014860Y0019263D02*
X0104800Y0019263D01*
X0104800Y0020861D02*
X0015137Y0020861D01*
X0014814Y0022460D02*
X0101749Y0022460D01*
X0116800Y0030452D02*
X0046126Y0030452D01*
X0046800Y0032051D02*
X0116800Y0032051D01*
X0116800Y0033649D02*
X0046517Y0033649D01*
X0044688Y0035248D02*
X0116800Y0035248D01*
X0116800Y0036846D02*
X0041600Y0036846D01*
X0041366Y0035248D02*
X0042912Y0035248D01*
X0041083Y0033649D02*
X0039552Y0033649D01*
X0036000Y0036846D02*
X0012676Y0036846D01*
X0014522Y0038445D02*
X0036916Y0038445D01*
X0040684Y0038445D02*
X0112335Y0038445D01*
X0112214Y0038495D02*
X0113243Y0038069D01*
X0114357Y0038069D01*
X0115386Y0038495D01*
X0116174Y0039283D01*
X0116600Y0040312D01*
X0116600Y0041426D01*
X0116174Y0042455D01*
X0115386Y0043242D01*
X0114357Y0043669D01*
X0113243Y0043669D01*
X0112214Y0043242D01*
X0111426Y0042455D01*
X0111000Y0041426D01*
X0111000Y0040312D01*
X0111426Y0039283D01*
X0112214Y0038495D01*
X0111111Y0040043D02*
X0107782Y0040043D01*
X0107674Y0039783D02*
X0108100Y0040812D01*
X0108100Y0041926D01*
X0107674Y0042955D01*
X0106886Y0043742D01*
X0105857Y0044169D01*
X0104743Y0044169D01*
X0103714Y0043742D01*
X0102926Y0042955D01*
X0102500Y0041926D01*
X0102500Y0040812D01*
X0102926Y0039783D01*
X0103714Y0038995D01*
X0104743Y0038569D01*
X0105857Y0038569D01*
X0106886Y0038995D01*
X0107674Y0039783D01*
X0108100Y0041642D02*
X0111090Y0041642D01*
X0112212Y0043240D02*
X0107388Y0043240D01*
X0103212Y0043240D02*
X0014491Y0043240D01*
X0015137Y0041642D02*
X0102500Y0041642D01*
X0102818Y0040043D02*
X0015137Y0040043D01*
X0004600Y0048036D02*
X0176165Y0048036D01*
X0176165Y0049634D02*
X0045623Y0049634D01*
X0046979Y0051233D02*
X0176165Y0051233D01*
X0176165Y0052831D02*
X0121723Y0052831D01*
X0121386Y0052495D02*
X0122174Y0053283D01*
X0122600Y0054312D01*
X0122600Y0055426D01*
X0122174Y0056455D01*
X0121386Y0057242D01*
X0120357Y0057669D01*
X0119243Y0057669D01*
X0118214Y0057242D01*
X0117426Y0056455D01*
X0117000Y0055426D01*
X0117000Y0054312D01*
X0117426Y0053283D01*
X0118214Y0052495D01*
X0119243Y0052069D01*
X0120357Y0052069D01*
X0121386Y0052495D01*
X0122600Y0054430D02*
X0176165Y0054430D01*
X0176165Y0056028D02*
X0122350Y0056028D01*
X0120458Y0057627D02*
X0176165Y0057627D01*
X0176165Y0059225D02*
X0068686Y0059225D01*
X0069733Y0057627D02*
X0108642Y0057627D01*
X0108743Y0057669D02*
X0107714Y0057242D01*
X0106926Y0056455D01*
X0106500Y0055426D01*
X0106500Y0054312D01*
X0106926Y0053283D01*
X0107714Y0052495D01*
X0108743Y0052069D01*
X0109857Y0052069D01*
X0110886Y0052495D01*
X0111674Y0053283D01*
X0112100Y0054312D01*
X0112100Y0055426D01*
X0111674Y0056455D01*
X0110886Y0057242D01*
X0109857Y0057669D01*
X0108743Y0057669D01*
X0109958Y0057627D02*
X0119142Y0057627D01*
X0117250Y0056028D02*
X0111850Y0056028D01*
X0112100Y0054430D02*
X0117000Y0054430D01*
X0117877Y0052831D02*
X0111223Y0052831D01*
X0107377Y0052831D02*
X0047134Y0052831D01*
X0046278Y0054430D02*
X0064996Y0054430D01*
X0068604Y0054430D02*
X0106500Y0054430D01*
X0106750Y0056028D02*
X0069699Y0056028D01*
X0064914Y0059225D02*
X0032666Y0059225D01*
X0034414Y0064495D02*
X0035443Y0064069D01*
X0036557Y0064069D01*
X0037586Y0064495D01*
X0038374Y0065283D01*
X0038800Y0066312D01*
X0038800Y0067426D01*
X0038374Y0068455D01*
X0037586Y0069242D01*
X0036557Y0069669D01*
X0035443Y0069669D01*
X0034414Y0069242D01*
X0033626Y0068455D01*
X0033200Y0067426D01*
X0033200Y0066312D01*
X0033626Y0065283D01*
X0034414Y0064495D01*
X0033487Y0065619D02*
X0019882Y0065619D01*
X0020216Y0064813D02*
X0019546Y0066431D01*
X0018308Y0067668D01*
X0016691Y0068338D01*
X0014941Y0068338D01*
X0013324Y0067668D01*
X0012086Y0066431D01*
X0011416Y0064813D01*
X0011416Y0063063D01*
X0012086Y0061446D01*
X0013324Y0060208D01*
X0014941Y0059538D01*
X0016691Y0059538D01*
X0018308Y0060208D01*
X0019546Y0061446D01*
X0020216Y0063063D01*
X0020216Y0064813D01*
X0020216Y0064021D02*
X0070988Y0064021D01*
X0071114Y0063895D02*
X0070326Y0064683D01*
X0069900Y0065712D01*
X0069900Y0066826D01*
X0070326Y0067855D01*
X0071114Y0068642D01*
X0072143Y0069069D01*
X0073257Y0069069D01*
X0074286Y0068642D01*
X0075074Y0067855D01*
X0075500Y0066826D01*
X0075500Y0065712D01*
X0075074Y0064683D01*
X0074286Y0063895D01*
X0073257Y0063469D01*
X0072143Y0063469D01*
X0071114Y0063895D01*
X0069938Y0065619D02*
X0038513Y0065619D01*
X0038800Y0067218D02*
X0070063Y0067218D01*
X0071534Y0068817D02*
X0038012Y0068817D01*
X0033988Y0068817D02*
X0011391Y0068817D01*
X0012025Y0070415D02*
X0016086Y0070415D01*
X0015751Y0070750D02*
X0016989Y0069512D01*
X0018606Y0068842D01*
X0020356Y0068842D01*
X0021973Y0069512D01*
X0023211Y0070750D01*
X0023881Y0072367D01*
X0023881Y0074118D01*
X0023211Y0075735D01*
X0021973Y0076973D01*
X0020356Y0077642D01*
X0018606Y0077642D01*
X0016989Y0076973D01*
X0015751Y0075735D01*
X0015081Y0074118D01*
X0015081Y0072367D01*
X0015751Y0070750D01*
X0015227Y0072014D02*
X0012660Y0072014D01*
X0013294Y0073612D02*
X0015081Y0073612D01*
X0015534Y0075211D02*
X0013928Y0075211D01*
X0014563Y0076809D02*
X0016825Y0076809D01*
X0015197Y0078408D02*
X0021641Y0078408D01*
X0022271Y0078147D02*
X0020654Y0078816D01*
X0019416Y0080054D01*
X0018746Y0081671D01*
X0018746Y0083422D01*
X0019416Y0085039D01*
X0020654Y0086277D01*
X0022271Y0086947D01*
X0024021Y0086947D01*
X0025638Y0086277D01*
X0026876Y0085039D01*
X0027546Y0083422D01*
X0027546Y0081671D01*
X0026876Y0080054D01*
X0025638Y0078816D01*
X0024021Y0078147D01*
X0022271Y0078147D01*
X0022137Y0076809D02*
X0085208Y0076809D01*
X0085000Y0077312D02*
X0085426Y0076283D01*
X0086214Y0075495D01*
X0087243Y0075069D01*
X0088357Y0075069D01*
X0089386Y0075495D01*
X0090174Y0076283D01*
X0090600Y0077312D01*
X0090600Y0078426D01*
X0090174Y0079455D01*
X0089386Y0080242D01*
X0088357Y0080669D01*
X0087243Y0080669D01*
X0086214Y0080242D01*
X0085426Y0079455D01*
X0085000Y0078426D01*
X0085000Y0077312D01*
X0085000Y0078408D02*
X0024651Y0078408D01*
X0026828Y0080006D02*
X0085978Y0080006D01*
X0089622Y0080006D02*
X0105478Y0080006D01*
X0105714Y0080242D02*
X0104926Y0079455D01*
X0104500Y0078426D01*
X0104500Y0077312D01*
X0104926Y0076283D01*
X0105714Y0075495D01*
X0106743Y0075069D01*
X0107857Y0075069D01*
X0108886Y0075495D01*
X0109674Y0076283D01*
X0110100Y0077312D01*
X0110100Y0078426D01*
X0109674Y0079455D01*
X0108886Y0080242D01*
X0107857Y0080669D01*
X0106743Y0080669D01*
X0105714Y0080242D01*
X0106937Y0081605D02*
X0027518Y0081605D01*
X0027546Y0083203D02*
X0061306Y0083203D01*
X0061226Y0083283D02*
X0062014Y0082495D01*
X0063043Y0082069D01*
X0064157Y0082069D01*
X0065186Y0082495D01*
X0065974Y0083283D01*
X0066400Y0084312D01*
X0066400Y0085426D01*
X0065974Y0086455D01*
X0065186Y0087242D01*
X0064157Y0087669D01*
X0063043Y0087669D01*
X0062014Y0087242D01*
X0061226Y0086455D01*
X0060800Y0085426D01*
X0060800Y0084312D01*
X0061226Y0083283D01*
X0060800Y0084802D02*
X0056506Y0084802D01*
X0056374Y0084483D02*
X0056800Y0085512D01*
X0056800Y0086626D01*
X0056374Y0087655D01*
X0055586Y0088442D01*
X0054557Y0088869D01*
X0053443Y0088869D01*
X0052414Y0088442D01*
X0051626Y0087655D01*
X0051200Y0086626D01*
X0051200Y0085512D01*
X0051626Y0084483D01*
X0052414Y0083695D01*
X0053443Y0083269D01*
X0054557Y0083269D01*
X0055586Y0083695D01*
X0056374Y0084483D01*
X0056800Y0086400D02*
X0061204Y0086400D01*
X0065996Y0086400D02*
X0105948Y0086400D01*
X0106118Y0086809D02*
X0105528Y0085386D01*
X0105528Y0083847D01*
X0106118Y0082424D01*
X0107206Y0081336D01*
X0108629Y0080747D01*
X0110168Y0080747D01*
X0111591Y0081336D01*
X0112679Y0082424D01*
X0113268Y0083847D01*
X0113268Y0085386D01*
X0112679Y0086809D01*
X0111591Y0087898D01*
X0110168Y0088487D01*
X0108629Y0088487D01*
X0107206Y0087898D01*
X0106118Y0086809D01*
X0107450Y0087999D02*
X0078390Y0087999D01*
X0078674Y0088283D02*
X0079100Y0089312D01*
X0079100Y0090426D01*
X0078674Y0091455D01*
X0077886Y0092242D01*
X0076857Y0092669D01*
X0075743Y0092669D01*
X0074714Y0092242D01*
X0073926Y0091455D01*
X0073500Y0090426D01*
X0073500Y0089312D01*
X0073926Y0088283D01*
X0074714Y0087495D01*
X0075743Y0087069D01*
X0076857Y0087069D01*
X0077886Y0087495D01*
X0078674Y0088283D01*
X0079100Y0089597D02*
X0100612Y0089597D01*
X0100426Y0089783D02*
X0101214Y0088995D01*
X0102243Y0088569D01*
X0103357Y0088569D01*
X0104386Y0088995D01*
X0105174Y0089783D01*
X0105600Y0090812D01*
X0105600Y0091674D01*
X0106118Y0090424D01*
X0107206Y0089336D01*
X0108629Y0088747D01*
X0110168Y0088747D01*
X0111591Y0089336D01*
X0112679Y0090424D01*
X0113268Y0091847D01*
X0113268Y0093386D01*
X0112679Y0094809D01*
X0111591Y0095898D01*
X0110168Y0096487D01*
X0108629Y0096487D01*
X0107206Y0095898D01*
X0106118Y0094809D01*
X0105528Y0093386D01*
X0105528Y0092098D01*
X0105174Y0092955D01*
X0104386Y0093742D01*
X0103357Y0094169D01*
X0102243Y0094169D01*
X0101214Y0093742D01*
X0100426Y0092955D01*
X0100000Y0091926D01*
X0100000Y0090812D01*
X0100426Y0089783D01*
X0100000Y0091196D02*
X0078781Y0091196D01*
X0074210Y0087999D02*
X0056030Y0087999D01*
X0051970Y0087999D02*
X0029009Y0087999D01*
X0029303Y0088121D02*
X0030541Y0089358D01*
X0031211Y0090976D01*
X0031211Y0092726D01*
X0030541Y0094343D01*
X0029303Y0095581D01*
X0027686Y0096251D01*
X0025936Y0096251D01*
X0024319Y0095581D01*
X0023081Y0094343D01*
X0022411Y0092726D01*
X0022411Y0090976D01*
X0023081Y0089358D01*
X0024319Y0088121D01*
X0025936Y0087451D01*
X0027686Y0087451D01*
X0029303Y0088121D01*
X0030640Y0089597D02*
X0073500Y0089597D01*
X0073819Y0091196D02*
X0031211Y0091196D01*
X0031183Y0092794D02*
X0100360Y0092794D01*
X0104988Y0089597D02*
X0106945Y0089597D01*
X0105798Y0091196D02*
X0105600Y0091196D01*
X0105528Y0092794D02*
X0105240Y0092794D01*
X0105945Y0094393D02*
X0061902Y0094393D01*
X0061774Y0094083D02*
X0062200Y0095112D01*
X0062200Y0096226D01*
X0061774Y0097255D01*
X0060986Y0098042D01*
X0059957Y0098469D01*
X0058843Y0098469D01*
X0057814Y0098042D01*
X0057026Y0097255D01*
X0056600Y0096226D01*
X0056600Y0095112D01*
X0057026Y0094083D01*
X0057814Y0093295D01*
X0058843Y0092869D01*
X0059957Y0092869D01*
X0060986Y0093295D01*
X0061774Y0094083D01*
X0062200Y0095991D02*
X0107432Y0095991D01*
X0111364Y0095991D02*
X0119813Y0095991D01*
X0119525Y0095703D02*
X0119098Y0094674D01*
X0119098Y0093560D01*
X0119525Y0092531D01*
X0120312Y0091743D01*
X0121341Y0091317D01*
X0122455Y0091317D01*
X0123484Y0091743D01*
X0124272Y0092531D01*
X0124698Y0093560D01*
X0124698Y0094674D01*
X0124272Y0095703D01*
X0123484Y0096490D01*
X0122455Y0096917D01*
X0121341Y0096917D01*
X0120312Y0096490D01*
X0119525Y0095703D01*
X0119098Y0094393D02*
X0112852Y0094393D01*
X0113268Y0092794D02*
X0119416Y0092794D01*
X0124381Y0092794D02*
X0145300Y0092794D01*
X0145535Y0094393D02*
X0124698Y0094393D01*
X0123984Y0095991D02*
X0147206Y0095991D01*
X0145675Y0097590D02*
X0061439Y0097590D01*
X0057361Y0097590D02*
X0033133Y0097590D01*
X0032968Y0097425D02*
X0034206Y0098662D01*
X0034876Y0100280D01*
X0034876Y0102030D01*
X0034206Y0103647D01*
X0032968Y0104885D01*
X0031351Y0105555D01*
X0029601Y0105555D01*
X0027984Y0104885D01*
X0026746Y0103647D01*
X0026076Y0102030D01*
X0026076Y0100280D01*
X0026746Y0098662D01*
X0027984Y0097425D01*
X0029601Y0096755D01*
X0031351Y0096755D01*
X0032968Y0097425D01*
X0034424Y0099188D02*
X0145526Y0099188D01*
X0145925Y0100787D02*
X0136378Y0100787D01*
X0136272Y0100531D02*
X0136698Y0101560D01*
X0136698Y0102674D01*
X0136272Y0103703D01*
X0135484Y0104490D01*
X0134455Y0104917D01*
X0133341Y0104917D01*
X0132312Y0104490D01*
X0131525Y0103703D01*
X0131098Y0102674D01*
X0131098Y0101560D01*
X0131525Y0100531D01*
X0132312Y0099743D01*
X0133341Y0099317D01*
X0134455Y0099317D01*
X0135484Y0099743D01*
X0136272Y0100531D01*
X0136698Y0102385D02*
X0144479Y0102385D01*
X0143136Y0103984D02*
X0135991Y0103984D01*
X0131806Y0103984D02*
X0033870Y0103984D01*
X0034729Y0102385D02*
X0131098Y0102385D01*
X0131419Y0100787D02*
X0034876Y0100787D01*
X0035016Y0106059D02*
X0036633Y0106729D01*
X0037871Y0107967D01*
X0038541Y0109584D01*
X0038541Y0111334D01*
X0037871Y0112951D01*
X0036633Y0114189D01*
X0035016Y0114859D01*
X0033266Y0114859D01*
X0031649Y0114189D01*
X0030411Y0112951D01*
X0029741Y0111334D01*
X0029741Y0109584D01*
X0030411Y0107967D01*
X0031649Y0106729D01*
X0033266Y0106059D01*
X0035016Y0106059D01*
X0037085Y0107181D02*
X0144152Y0107181D01*
X0143065Y0105582D02*
X0025980Y0105582D01*
X0025346Y0103984D02*
X0027082Y0103984D01*
X0026223Y0102385D02*
X0024712Y0102385D01*
X0024077Y0100787D02*
X0026076Y0100787D01*
X0026528Y0099188D02*
X0023443Y0099188D01*
X0022809Y0097590D02*
X0027819Y0097590D01*
X0028313Y0095991D02*
X0056600Y0095991D01*
X0056898Y0094393D02*
X0030492Y0094393D01*
X0025309Y0095991D02*
X0022174Y0095991D01*
X0021540Y0094393D02*
X0023130Y0094393D01*
X0022439Y0092794D02*
X0020906Y0092794D01*
X0020272Y0091196D02*
X0022411Y0091196D01*
X0022982Y0089597D02*
X0019637Y0089597D01*
X0019003Y0087999D02*
X0024613Y0087999D01*
X0025340Y0086400D02*
X0051200Y0086400D01*
X0051494Y0084802D02*
X0026974Y0084802D01*
X0020952Y0086400D02*
X0018369Y0086400D01*
X0017734Y0084802D02*
X0019318Y0084802D01*
X0018746Y0083203D02*
X0017100Y0083203D01*
X0016466Y0081605D02*
X0018774Y0081605D01*
X0019464Y0080006D02*
X0015831Y0080006D01*
X0023428Y0075211D02*
X0086900Y0075211D01*
X0088700Y0075211D02*
X0106400Y0075211D01*
X0108200Y0075211D02*
X0171998Y0075211D01*
X0171001Y0076809D02*
X0109892Y0076809D01*
X0110100Y0078408D02*
X0116925Y0078408D01*
X0116714Y0078495D02*
X0117743Y0078069D01*
X0118857Y0078069D01*
X0119886Y0078495D01*
X0120674Y0079283D01*
X0121100Y0080312D01*
X0121100Y0081426D01*
X0120674Y0082455D01*
X0119886Y0083242D01*
X0118857Y0083669D01*
X0117743Y0083669D01*
X0116714Y0083242D01*
X0115926Y0082455D01*
X0115500Y0081426D01*
X0115500Y0080312D01*
X0115926Y0079283D01*
X0116714Y0078495D01*
X0115627Y0080006D02*
X0109122Y0080006D01*
X0111859Y0081605D02*
X0115574Y0081605D01*
X0116675Y0083203D02*
X0113002Y0083203D01*
X0113268Y0084802D02*
X0128496Y0084802D01*
X0128629Y0084747D02*
X0128629Y0084747D01*
X0128598Y0084674D01*
X0128598Y0083560D01*
X0129025Y0082531D01*
X0129812Y0081743D01*
X0130841Y0081317D01*
X0131955Y0081317D01*
X0132984Y0081743D01*
X0133398Y0082157D01*
X0133812Y0081743D01*
X0134841Y0081317D01*
X0135955Y0081317D01*
X0136984Y0081743D01*
X0137772Y0082531D01*
X0138198Y0083560D01*
X0138198Y0084674D01*
X0137772Y0085703D01*
X0136984Y0086490D01*
X0135955Y0086917D01*
X0134841Y0086917D01*
X0133812Y0086490D01*
X0133398Y0086076D01*
X0132984Y0086490D01*
X0132747Y0086589D01*
X0133268Y0087847D01*
X0133268Y0089386D01*
X0132679Y0090809D01*
X0131591Y0091898D01*
X0130168Y0092487D01*
X0128629Y0092487D01*
X0127206Y0091898D01*
X0126118Y0090809D01*
X0125528Y0089386D01*
X0125528Y0087847D01*
X0126118Y0086424D01*
X0127206Y0085336D01*
X0128629Y0084747D01*
X0128746Y0083203D02*
X0119925Y0083203D01*
X0121026Y0081605D02*
X0130146Y0081605D01*
X0132651Y0081605D02*
X0134146Y0081605D01*
X0136651Y0081605D02*
X0144074Y0081605D01*
X0144000Y0081426D02*
X0144000Y0080312D01*
X0144426Y0079283D01*
X0145214Y0078495D01*
X0146243Y0078069D01*
X0147357Y0078069D01*
X0148386Y0078495D01*
X0149174Y0079283D01*
X0149600Y0080312D01*
X0149600Y0081426D01*
X0149174Y0082455D01*
X0148386Y0083242D01*
X0147357Y0083669D01*
X0146243Y0083669D01*
X0145214Y0083242D01*
X0144426Y0082455D01*
X0144000Y0081426D01*
X0144127Y0080006D02*
X0120973Y0080006D01*
X0119675Y0078408D02*
X0145425Y0078408D01*
X0148175Y0078408D02*
X0165925Y0078408D01*
X0165714Y0078495D02*
X0166743Y0078069D01*
X0167857Y0078069D01*
X0168886Y0078495D01*
X0169674Y0079283D01*
X0170100Y0080312D01*
X0170100Y0081426D01*
X0169674Y0082455D01*
X0168886Y0083242D01*
X0167857Y0083669D01*
X0166743Y0083669D01*
X0165714Y0083242D01*
X0164926Y0082455D01*
X0164500Y0081426D01*
X0164500Y0080312D01*
X0164926Y0079283D01*
X0165714Y0078495D01*
X0164627Y0080006D02*
X0149473Y0080006D01*
X0149526Y0081605D02*
X0164574Y0081605D01*
X0165675Y0083203D02*
X0148425Y0083203D01*
X0145175Y0083203D02*
X0138051Y0083203D01*
X0138145Y0084802D02*
X0176165Y0084802D01*
X0176165Y0086400D02*
X0137075Y0086400D01*
X0133722Y0086400D02*
X0133075Y0086400D01*
X0133268Y0087999D02*
X0176165Y0087999D01*
X0176165Y0089597D02*
X0133181Y0089597D01*
X0132292Y0091196D02*
X0146213Y0091196D01*
X0149987Y0091196D02*
X0176165Y0091196D01*
X0176165Y0092794D02*
X0150900Y0092794D01*
X0150665Y0094393D02*
X0152281Y0094393D01*
X0157119Y0094393D02*
X0176165Y0094393D01*
X0176165Y0083203D02*
X0168925Y0083203D01*
X0170026Y0081605D02*
X0176165Y0081605D01*
X0176165Y0080006D02*
X0174749Y0080006D01*
X0172851Y0080006D02*
X0169973Y0080006D01*
X0171200Y0078408D02*
X0168675Y0078408D01*
X0175602Y0075211D02*
X0176165Y0075211D01*
X0176165Y0073612D02*
X0023881Y0073612D01*
X0023734Y0072014D02*
X0176165Y0072014D01*
X0176165Y0070415D02*
X0127969Y0070415D01*
X0128386Y0070242D02*
X0127357Y0070669D01*
X0126243Y0070669D01*
X0125214Y0070242D01*
X0124426Y0069455D01*
X0124000Y0068426D01*
X0124000Y0067312D01*
X0124426Y0066283D01*
X0125214Y0065495D01*
X0126243Y0065069D01*
X0127357Y0065069D01*
X0128386Y0065495D01*
X0129174Y0066283D01*
X0129600Y0067312D01*
X0129600Y0068426D01*
X0129174Y0069455D01*
X0128386Y0070242D01*
X0129438Y0068817D02*
X0176165Y0068817D01*
X0176165Y0067218D02*
X0129561Y0067218D01*
X0128511Y0065619D02*
X0176165Y0065619D01*
X0176165Y0064021D02*
X0074412Y0064021D01*
X0075462Y0065619D02*
X0125089Y0065619D01*
X0124039Y0067218D02*
X0075337Y0067218D01*
X0073866Y0068817D02*
X0124162Y0068817D01*
X0125631Y0070415D02*
X0022876Y0070415D01*
X0018759Y0067218D02*
X0033200Y0067218D01*
X0019951Y0062422D02*
X0176165Y0062422D01*
X0176165Y0060824D02*
X0018924Y0060824D01*
X0012708Y0060824D02*
X0008219Y0060824D01*
X0008854Y0062422D02*
X0011681Y0062422D01*
X0011416Y0064021D02*
X0009488Y0064021D01*
X0010122Y0065619D02*
X0011750Y0065619D01*
X0010757Y0067218D02*
X0012873Y0067218D01*
X0004600Y0049634D02*
X0042749Y0049634D01*
X0065894Y0083203D02*
X0105795Y0083203D01*
X0105528Y0084802D02*
X0066400Y0084802D01*
X0090392Y0076809D02*
X0104708Y0076809D01*
X0104500Y0078408D02*
X0090600Y0078408D01*
X0111347Y0087999D02*
X0125528Y0087999D01*
X0125616Y0089597D02*
X0111852Y0089597D01*
X0112999Y0091196D02*
X0126504Y0091196D01*
X0126142Y0086400D02*
X0112849Y0086400D01*
X0135714Y0115395D02*
X0136743Y0114969D01*
X0137857Y0114969D01*
X0138886Y0115395D01*
X0139674Y0116183D01*
X0140100Y0117212D01*
X0140100Y0118326D01*
X0139674Y0119355D01*
X0138886Y0120142D01*
X0137857Y0120569D01*
X0136743Y0120569D01*
X0135714Y0120142D01*
X0134926Y0119355D01*
X0134500Y0118326D01*
X0134500Y0117212D01*
X0134926Y0116183D01*
X0135714Y0115395D01*
X0136249Y0115173D02*
X0029786Y0115173D01*
X0029152Y0113575D02*
X0031034Y0113575D01*
X0030007Y0111976D02*
X0028518Y0111976D01*
X0027883Y0110378D02*
X0029741Y0110378D01*
X0030074Y0108779D02*
X0027249Y0108779D01*
X0026615Y0107181D02*
X0031197Y0107181D01*
X0038208Y0108779D02*
X0148624Y0108779D01*
X0148644Y0107181D02*
X0147448Y0107181D01*
X0148535Y0105582D02*
X0148664Y0105582D01*
X0148604Y0110378D02*
X0038541Y0110378D01*
X0038275Y0111976D02*
X0148583Y0111976D01*
X0148563Y0113575D02*
X0037248Y0113575D01*
X0036931Y0115363D02*
X0035314Y0116033D01*
X0034076Y0117271D01*
X0033406Y0118888D01*
X0033406Y0120638D01*
X0034076Y0122256D01*
X0035314Y0123493D01*
X0036931Y0124163D01*
X0038681Y0124163D01*
X0040298Y0123493D01*
X0041536Y0122256D01*
X0042206Y0120638D01*
X0042206Y0118888D01*
X0041536Y0117271D01*
X0040298Y0116033D01*
X0038681Y0115363D01*
X0036931Y0115363D01*
X0034575Y0116772D02*
X0030421Y0116772D01*
X0031055Y0118370D02*
X0033620Y0118370D01*
X0033406Y0119969D02*
X0031689Y0119969D01*
X0032324Y0121567D02*
X0033791Y0121567D01*
X0032958Y0123166D02*
X0034986Y0123166D01*
X0033592Y0124764D02*
X0040362Y0124764D01*
X0040596Y0124667D02*
X0042346Y0124667D01*
X0043963Y0125337D01*
X0045201Y0126575D01*
X0045871Y0128192D01*
X0045871Y0129943D01*
X0045201Y0131560D01*
X0043963Y0132798D01*
X0042346Y0133467D01*
X0040596Y0133467D01*
X0038979Y0132798D01*
X0037741Y0131560D01*
X0037071Y0129943D01*
X0037071Y0128192D01*
X0037741Y0126575D01*
X0038979Y0125337D01*
X0040596Y0124667D01*
X0040626Y0123166D02*
X0125469Y0123166D01*
X0125525Y0123031D02*
X0125974Y0122581D01*
X0125658Y0121817D01*
X0125484Y0121990D01*
X0124455Y0122417D01*
X0123341Y0122417D01*
X0122312Y0121990D01*
X0121525Y0121203D01*
X0121098Y0120174D01*
X0121098Y0119060D01*
X0121525Y0118031D01*
X0122312Y0117243D01*
X0123341Y0116817D01*
X0124455Y0116817D01*
X0125484Y0117243D01*
X0126272Y0118031D01*
X0126639Y0118916D01*
X0126812Y0118743D01*
X0127841Y0118317D01*
X0128955Y0118317D01*
X0129984Y0118743D01*
X0130772Y0119531D01*
X0131198Y0120560D01*
X0131198Y0121674D01*
X0130772Y0122703D01*
X0130323Y0123152D01*
X0130698Y0124060D01*
X0130698Y0125174D01*
X0130272Y0126203D01*
X0129484Y0126990D01*
X0128455Y0127417D01*
X0127341Y0127417D01*
X0126312Y0126990D01*
X0125525Y0126203D01*
X0125098Y0125174D01*
X0125098Y0124060D01*
X0125525Y0123031D01*
X0125098Y0124764D02*
X0042580Y0124764D01*
X0044989Y0126363D02*
X0125685Y0126363D01*
X0130112Y0126363D02*
X0148401Y0126363D01*
X0148381Y0127961D02*
X0045775Y0127961D01*
X0045871Y0129560D02*
X0148361Y0129560D01*
X0148341Y0131158D02*
X0096050Y0131158D01*
X0096174Y0131283D02*
X0096600Y0132312D01*
X0096600Y0133426D01*
X0096174Y0134455D01*
X0095386Y0135242D01*
X0094357Y0135669D01*
X0093243Y0135669D01*
X0092214Y0135242D01*
X0091426Y0134455D01*
X0091000Y0133426D01*
X0091000Y0132312D01*
X0091426Y0131283D01*
X0092214Y0130495D01*
X0093243Y0130069D01*
X0094357Y0130069D01*
X0095386Y0130495D01*
X0096174Y0131283D01*
X0096600Y0132757D02*
X0148320Y0132757D01*
X0148300Y0134355D02*
X0128049Y0134355D01*
X0127955Y0134317D02*
X0128984Y0134743D01*
X0129772Y0135531D01*
X0130198Y0136560D01*
X0130198Y0137674D01*
X0129772Y0138703D01*
X0128984Y0139490D01*
X0127955Y0139917D01*
X0126841Y0139917D01*
X0125812Y0139490D01*
X0125025Y0138703D01*
X0124598Y0137674D01*
X0124598Y0136560D01*
X0125025Y0135531D01*
X0125812Y0134743D01*
X0126841Y0134317D01*
X0127955Y0134317D01*
X0126748Y0134355D02*
X0122549Y0134355D01*
X0122886Y0134495D02*
X0123674Y0135283D01*
X0124100Y0136312D01*
X0124100Y0137426D01*
X0123674Y0138455D01*
X0122886Y0139242D01*
X0121857Y0139669D01*
X0120743Y0139669D01*
X0119714Y0139242D01*
X0118926Y0138455D01*
X0118500Y0137426D01*
X0118500Y0136312D01*
X0118926Y0135283D01*
X0119714Y0134495D01*
X0120743Y0134069D01*
X0121857Y0134069D01*
X0122886Y0134495D01*
X0123952Y0135954D02*
X0124849Y0135954D01*
X0124598Y0137552D02*
X0124047Y0137552D01*
X0122977Y0139151D02*
X0125473Y0139151D01*
X0129324Y0139151D02*
X0148239Y0139151D01*
X0148260Y0137552D02*
X0130198Y0137552D01*
X0129948Y0135954D02*
X0148280Y0135954D01*
X0148219Y0140750D02*
X0110867Y0140750D01*
X0110674Y0140283D02*
X0111100Y0141312D01*
X0111100Y0142426D01*
X0110674Y0143455D01*
X0109886Y0144242D01*
X0108857Y0144669D01*
X0107743Y0144669D01*
X0106714Y0144242D01*
X0105926Y0143455D01*
X0105500Y0142426D01*
X0105500Y0141402D01*
X0104857Y0141669D01*
X0103743Y0141669D01*
X0102714Y0141242D01*
X0101926Y0140455D01*
X0101500Y0139426D01*
X0101500Y0138312D01*
X0101926Y0137283D01*
X0102714Y0136495D01*
X0103743Y0136069D01*
X0104857Y0136069D01*
X0105886Y0136495D01*
X0106674Y0137283D01*
X0107100Y0138312D01*
X0107100Y0139335D01*
X0107743Y0139069D01*
X0108857Y0139069D01*
X0109886Y0139495D01*
X0110674Y0140283D01*
X0109056Y0139151D02*
X0119623Y0139151D01*
X0118553Y0137552D02*
X0106786Y0137552D01*
X0107100Y0139151D02*
X0107544Y0139151D01*
X0105500Y0142348D02*
X0047034Y0142348D01*
X0047628Y0142102D02*
X0046011Y0142772D01*
X0044261Y0142772D01*
X0042644Y0142102D01*
X0041406Y0140864D01*
X0040736Y0139247D01*
X0040736Y0137496D01*
X0041406Y0135879D01*
X0042644Y0134641D01*
X0044261Y0133972D01*
X0046011Y0133972D01*
X0047628Y0134641D01*
X0048866Y0135879D01*
X0049536Y0137496D01*
X0049536Y0139247D01*
X0048866Y0140864D01*
X0047628Y0142102D01*
X0047926Y0143276D02*
X0049676Y0143276D01*
X0051293Y0143946D01*
X0052531Y0145183D01*
X0053201Y0146801D01*
X0053201Y0148551D01*
X0052531Y0150168D01*
X0051293Y0151406D01*
X0049676Y0152076D01*
X0047926Y0152076D01*
X0046309Y0151406D01*
X0045071Y0150168D01*
X0044401Y0148551D01*
X0044401Y0146801D01*
X0045071Y0145183D01*
X0046309Y0143946D01*
X0047926Y0143276D01*
X0046308Y0143947D02*
X0041204Y0143947D01*
X0041839Y0145545D02*
X0044921Y0145545D01*
X0044401Y0147144D02*
X0042473Y0147144D01*
X0043107Y0148742D02*
X0044480Y0148742D01*
X0043742Y0150341D02*
X0045243Y0150341D01*
X0044376Y0151939D02*
X0047596Y0151939D01*
X0049686Y0153538D02*
X0045010Y0153538D01*
X0045645Y0155136D02*
X0048467Y0155136D01*
X0048736Y0154488D02*
X0049974Y0153250D01*
X0051591Y0152580D01*
X0053341Y0152580D01*
X0054958Y0153250D01*
X0056196Y0154488D01*
X0056866Y0156105D01*
X0056866Y0157855D01*
X0056196Y0159472D01*
X0054958Y0160710D01*
X0053341Y0161380D01*
X0051591Y0161380D01*
X0049974Y0160710D01*
X0048736Y0159472D01*
X0048066Y0157855D01*
X0048066Y0156105D01*
X0048736Y0154488D01*
X0048066Y0156735D02*
X0046279Y0156735D01*
X0046913Y0158333D02*
X0048264Y0158333D01*
X0047548Y0159932D02*
X0049195Y0159932D01*
X0048182Y0161530D02*
X0147956Y0161530D01*
X0147976Y0159932D02*
X0146683Y0159932D01*
X0146674Y0159955D02*
X0145886Y0160742D01*
X0144857Y0161169D01*
X0143743Y0161169D01*
X0142714Y0160742D01*
X0141926Y0159955D01*
X0141500Y0158926D01*
X0141500Y0157812D01*
X0141926Y0156783D01*
X0142714Y0155995D01*
X0143743Y0155569D01*
X0144857Y0155569D01*
X0145886Y0155995D01*
X0146674Y0156783D01*
X0147100Y0157812D01*
X0147100Y0158926D01*
X0146674Y0159955D01*
X0147100Y0158333D02*
X0147997Y0158333D01*
X0148017Y0156735D02*
X0146626Y0156735D01*
X0148037Y0155136D02*
X0056465Y0155136D01*
X0056866Y0156735D02*
X0103474Y0156735D01*
X0103426Y0156783D02*
X0104214Y0155995D01*
X0105243Y0155569D01*
X0106357Y0155569D01*
X0107386Y0155995D01*
X0108174Y0156783D01*
X0108600Y0157812D01*
X0108600Y0158926D01*
X0108174Y0159955D01*
X0107386Y0160742D01*
X0106357Y0161169D01*
X0105243Y0161169D01*
X0104214Y0160742D01*
X0103426Y0159955D01*
X0103000Y0158926D01*
X0103000Y0157812D01*
X0103426Y0156783D01*
X0103000Y0158333D02*
X0056668Y0158333D01*
X0055737Y0159932D02*
X0103417Y0159932D01*
X0108183Y0159932D02*
X0141917Y0159932D01*
X0141500Y0158333D02*
X0108600Y0158333D01*
X0108126Y0156735D02*
X0141974Y0156735D01*
X0147109Y0153538D02*
X0055246Y0153538D01*
X0052359Y0150341D02*
X0110834Y0150341D01*
X0111143Y0150469D02*
X0110114Y0150042D01*
X0109326Y0149255D01*
X0108900Y0148226D01*
X0108900Y0147112D01*
X0109326Y0146083D01*
X0110114Y0145295D01*
X0111143Y0144869D01*
X0112257Y0144869D01*
X0113286Y0145295D01*
X0114074Y0146083D01*
X0114500Y0147112D01*
X0114500Y0148226D01*
X0114074Y0149255D01*
X0113286Y0150042D01*
X0112257Y0150469D01*
X0111143Y0150469D01*
X0112566Y0150341D02*
X0125663Y0150341D01*
X0125812Y0150490D02*
X0125025Y0149703D01*
X0124598Y0148674D01*
X0124598Y0147560D01*
X0125025Y0146531D01*
X0125812Y0145743D01*
X0126841Y0145317D01*
X0127955Y0145317D01*
X0128984Y0145743D01*
X0129772Y0146531D01*
X0130198Y0147560D01*
X0130198Y0148674D01*
X0129772Y0149703D01*
X0128984Y0150490D01*
X0127955Y0150917D01*
X0126841Y0150917D01*
X0125812Y0150490D01*
X0124627Y0148742D02*
X0114286Y0148742D01*
X0114500Y0147144D02*
X0124771Y0147144D01*
X0126290Y0145545D02*
X0113536Y0145545D01*
X0109864Y0145545D02*
X0052681Y0145545D01*
X0053201Y0147144D02*
X0108900Y0147144D01*
X0109114Y0148742D02*
X0053122Y0148742D01*
X0050006Y0151939D02*
X0146106Y0151939D01*
X0143879Y0150341D02*
X0129134Y0150341D01*
X0130170Y0148742D02*
X0134738Y0148742D01*
X0135043Y0148869D02*
X0134014Y0148442D01*
X0133226Y0147655D01*
X0132800Y0146626D01*
X0132800Y0145512D01*
X0133226Y0144483D01*
X0134014Y0143695D01*
X0135043Y0143269D01*
X0136157Y0143269D01*
X0137186Y0143695D01*
X0137974Y0144483D01*
X0138400Y0145512D01*
X0138400Y0146626D01*
X0137974Y0147655D01*
X0137186Y0148442D01*
X0136157Y0148869D01*
X0135043Y0148869D01*
X0136462Y0148742D02*
X0143500Y0148742D01*
X0144065Y0147144D02*
X0138185Y0147144D01*
X0138400Y0145545D02*
X0148159Y0145545D01*
X0148179Y0143947D02*
X0137438Y0143947D01*
X0133762Y0143947D02*
X0110182Y0143947D01*
X0111100Y0142348D02*
X0148199Y0142348D01*
X0133015Y0147144D02*
X0130026Y0147144D01*
X0128507Y0145545D02*
X0132800Y0145545D01*
X0120050Y0134355D02*
X0096215Y0134355D01*
X0096814Y0135295D02*
X0097843Y0134869D01*
X0098957Y0134869D01*
X0099986Y0135295D01*
X0100774Y0136083D01*
X0101200Y0137112D01*
X0101200Y0138226D01*
X0100774Y0139255D01*
X0099986Y0140042D01*
X0098957Y0140469D01*
X0097843Y0140469D01*
X0096814Y0140042D01*
X0096026Y0139255D01*
X0095600Y0138226D01*
X0095600Y0137112D01*
X0096026Y0136083D01*
X0096814Y0135295D01*
X0096155Y0135954D02*
X0048897Y0135954D01*
X0049536Y0137552D02*
X0095600Y0137552D01*
X0095983Y0139151D02*
X0049536Y0139151D01*
X0048914Y0140750D02*
X0102221Y0140750D01*
X0101500Y0139151D02*
X0100817Y0139151D01*
X0101200Y0137552D02*
X0101814Y0137552D01*
X0100645Y0135954D02*
X0118648Y0135954D01*
X0130698Y0124764D02*
X0148422Y0124764D01*
X0148442Y0123166D02*
X0130328Y0123166D01*
X0131198Y0121567D02*
X0148462Y0121567D01*
X0148482Y0119969D02*
X0139060Y0119969D01*
X0140081Y0118370D02*
X0148502Y0118370D01*
X0148523Y0116772D02*
X0139918Y0116772D01*
X0138351Y0115173D02*
X0148543Y0115173D01*
X0135540Y0119969D02*
X0130954Y0119969D01*
X0129085Y0118370D02*
X0134519Y0118370D01*
X0134682Y0116772D02*
X0041037Y0116772D01*
X0041992Y0118370D02*
X0121384Y0118370D01*
X0121098Y0119969D02*
X0042206Y0119969D01*
X0041821Y0121567D02*
X0121889Y0121567D01*
X0126413Y0118370D02*
X0127712Y0118370D01*
X0106418Y0143947D02*
X0051294Y0143947D01*
X0043238Y0142348D02*
X0040570Y0142348D01*
X0039936Y0140750D02*
X0041359Y0140750D01*
X0040736Y0139151D02*
X0039301Y0139151D01*
X0038667Y0137552D02*
X0040736Y0137552D01*
X0041375Y0135954D02*
X0038033Y0135954D01*
X0037398Y0134355D02*
X0043334Y0134355D01*
X0044004Y0132757D02*
X0091000Y0132757D01*
X0091385Y0134355D02*
X0046938Y0134355D01*
X0045367Y0131158D02*
X0091550Y0131158D01*
X0092243Y0163569D02*
X0093357Y0163569D01*
X0094386Y0163995D01*
X0095174Y0164783D01*
X0095600Y0165812D01*
X0095600Y0166926D01*
X0095174Y0167955D01*
X0094386Y0168742D01*
X0093357Y0169169D01*
X0092243Y0169169D01*
X0091214Y0168742D01*
X0090426Y0167955D01*
X0090000Y0166926D01*
X0090000Y0165812D01*
X0090426Y0164783D01*
X0091214Y0163995D01*
X0092243Y0163569D01*
X0090482Y0164727D02*
X0060249Y0164727D01*
X0060531Y0165409D02*
X0059861Y0163792D01*
X0058623Y0162554D01*
X0057006Y0161884D01*
X0055256Y0161884D01*
X0053639Y0162554D01*
X0052401Y0163792D01*
X0051731Y0165409D01*
X0051731Y0167159D01*
X0052401Y0168777D01*
X0053639Y0170014D01*
X0055256Y0170684D01*
X0057006Y0170684D01*
X0058623Y0170014D01*
X0059861Y0168777D01*
X0060531Y0167159D01*
X0060531Y0165409D01*
X0060531Y0166326D02*
X0090000Y0166326D01*
X0090414Y0167924D02*
X0060214Y0167924D01*
X0059115Y0169523D02*
X0100186Y0169523D01*
X0099079Y0171121D02*
X0051988Y0171121D01*
X0051354Y0169523D02*
X0053147Y0169523D01*
X0052048Y0167924D02*
X0050719Y0167924D01*
X0050085Y0166326D02*
X0051731Y0166326D01*
X0052013Y0164727D02*
X0049451Y0164727D01*
X0048816Y0163129D02*
X0053064Y0163129D01*
X0059198Y0163129D02*
X0132180Y0163129D01*
X0131826Y0163483D02*
X0132614Y0162695D01*
X0133643Y0162269D01*
X0134757Y0162269D01*
X0135786Y0162695D01*
X0136574Y0163483D01*
X0137000Y0164512D01*
X0137000Y0165626D01*
X0136574Y0166655D01*
X0135786Y0167442D01*
X0134757Y0167869D01*
X0133643Y0167869D01*
X0132614Y0167442D01*
X0131826Y0166655D01*
X0131400Y0165626D01*
X0131400Y0164512D01*
X0131826Y0163483D01*
X0131400Y0164727D02*
X0095118Y0164727D01*
X0095600Y0166326D02*
X0131690Y0166326D01*
X0131314Y0171121D02*
X0147835Y0171121D01*
X0147855Y0169523D02*
X0108414Y0169523D01*
X0109100Y0171121D02*
X0126286Y0171121D01*
X0126000Y0172720D02*
X0108771Y0172720D01*
X0104186Y0169523D02*
X0103414Y0169523D01*
X0099122Y0172720D02*
X0052622Y0172720D01*
X0038938Y0132757D02*
X0036764Y0132757D01*
X0036130Y0131158D02*
X0037575Y0131158D01*
X0037071Y0129560D02*
X0035495Y0129560D01*
X0034861Y0127961D02*
X0037167Y0127961D01*
X0037953Y0126363D02*
X0034227Y0126363D01*
X0095186Y0167924D02*
X0147875Y0167924D01*
X0147895Y0166326D02*
X0136710Y0166326D01*
X0137000Y0164727D02*
X0147916Y0164727D01*
X0147936Y0163129D02*
X0136220Y0163129D01*
X0131600Y0172720D02*
X0147815Y0172720D01*
X0164681Y0046437D02*
X0176165Y0046437D01*
X0176165Y0044839D02*
X0165100Y0044839D01*
X0164632Y0043240D02*
X0176165Y0043240D01*
X0159968Y0043240D02*
X0115388Y0043240D01*
X0116510Y0041642D02*
X0140770Y0041642D01*
X0116800Y0040043D02*
X0116489Y0040043D01*
X0116800Y0038445D02*
X0115265Y0038445D01*
D13*
X0133700Y0060269D02*
X0133700Y0067769D01*
X0102600Y0068669D02*
X0102600Y0068869D01*
X0097900Y0068369D01*
X0097900Y0063369D02*
X0102500Y0063269D01*
X0063800Y0035869D02*
X0063800Y0033869D01*
X0056800Y0039869D02*
X0056800Y0044869D01*
X0052800Y0044869D02*
X0052800Y0039869D01*
X0052800Y0044869D02*
X0051800Y0044869D01*
X0055700Y0091969D02*
X0055800Y0091969D01*
X0055800Y0093269D01*
D14*
X0066800Y0056869D03*
X0043800Y0032369D03*
X0038800Y0053869D03*
M02*
