G75*
%MOIN*%
%OFA0B0*%
%FSLAX25Y25*%
%IPPOS*%
%LPD*%
%AMOC8*
5,1,8,0,0,1.08239X$1,22.5*
%
%ADD10C,0.04540*%
%ADD11C,0.06800*%
%ADD12OC8,0.06800*%
%ADD13C,0.03600*%
%ADD14C,0.04000*%
D10*
X0109398Y0084617D03*
X0109398Y0092617D03*
X0129398Y0088617D03*
D11*
X0013737Y0020806D02*
X0007737Y0020806D01*
X0007737Y0030806D02*
X0013737Y0030806D01*
X0013737Y0040806D02*
X0007737Y0040806D01*
X0014942Y0053535D02*
X0009360Y0055734D01*
X0013025Y0065038D02*
X0018607Y0062839D01*
X0022272Y0072143D02*
X0016690Y0074342D01*
X0020355Y0083646D02*
X0025937Y0081447D01*
X0029602Y0090751D02*
X0024020Y0092950D01*
X0027685Y0102254D02*
X0033267Y0100055D01*
X0036932Y0109360D02*
X0031350Y0111559D01*
X0035015Y0120863D02*
X0040597Y0118664D01*
X0044262Y0127968D02*
X0038680Y0130167D01*
X0042345Y0139471D02*
X0047927Y0137272D01*
X0051592Y0146576D02*
X0046010Y0148775D01*
X0049675Y0158079D02*
X0055257Y0155880D01*
X0058922Y0165185D02*
X0053340Y0167384D01*
X0167879Y0031688D02*
X0173879Y0031688D01*
X0173879Y0021688D02*
X0167879Y0021688D01*
D12*
X0029800Y0055869D03*
D13*
X0087800Y0077869D03*
X0102800Y0091369D03*
X0113800Y0040869D03*
X0167300Y0080869D03*
X0106300Y0171369D03*
X0101800Y0171869D03*
D14*
X0066800Y0056869D03*
X0043800Y0032369D03*
X0038800Y0053869D03*
M02*
