G75*
%MOIN*%
%OFA0B0*%
%FSLAX25Y25*%
%IPPOS*%
%LPD*%
%AMOC8*
5,1,8,0,0,1.08239X$1,22.5*
%
%ADD10C,0.06000*%
%ADD11C,0.02800*%
%ADD12C,0.01600*%
%ADD13C,0.03200*%
%ADD14C,0.00600*%
D10*
X0010737Y0020806D03*
X0010737Y0030806D03*
X0010737Y0040806D03*
X0012151Y0054634D03*
X0015816Y0063938D03*
X0019481Y0073242D03*
X0023146Y0082547D03*
X0026811Y0091851D03*
X0030476Y0101155D03*
X0034141Y0110459D03*
X0037806Y0119763D03*
X0041471Y0129067D03*
X0045136Y0138372D03*
X0048801Y0147676D03*
X0052466Y0156980D03*
X0056131Y0166284D03*
X0029800Y0055869D03*
X0170879Y0031688D03*
X0170879Y0021688D03*
D11*
X0162300Y0044869D03*
X0133700Y0060269D03*
X0133700Y0067769D03*
X0126800Y0067869D03*
X0119800Y0054869D03*
X0109300Y0054869D03*
X0102500Y0063269D03*
X0097900Y0063369D03*
X0097900Y0068369D03*
X0102600Y0068669D03*
X0107300Y0077869D03*
X0118300Y0080869D03*
X0131398Y0084117D03*
X0135398Y0084117D03*
X0139398Y0084117D03*
X0146800Y0080869D03*
X0148100Y0093269D03*
X0148300Y0098569D03*
X0148300Y0102369D03*
X0145800Y0104869D03*
X0136898Y0104117D03*
X0133898Y0102117D03*
X0121898Y0094117D03*
X0118898Y0097617D03*
X0115398Y0100617D03*
X0113898Y0104617D03*
X0126898Y0115117D03*
X0123898Y0119617D03*
X0128398Y0121117D03*
X0127898Y0124617D03*
X0136898Y0128117D03*
X0136898Y0135117D03*
X0144898Y0135117D03*
X0144898Y0128117D03*
X0155634Y0124236D03*
X0158898Y0121617D03*
X0163398Y0121617D03*
X0168398Y0121617D03*
X0168398Y0116117D03*
X0174398Y0116617D03*
X0174398Y0121617D03*
X0174398Y0127617D03*
X0174398Y0133117D03*
X0168398Y0133117D03*
X0168398Y0127617D03*
X0162398Y0116117D03*
X0155898Y0117117D03*
X0155898Y0110117D03*
X0162398Y0109117D03*
X0162398Y0102617D03*
X0155898Y0102617D03*
X0154700Y0095869D03*
X0169200Y0092369D03*
X0168398Y0102617D03*
X0174398Y0102617D03*
X0174398Y0109117D03*
X0168398Y0109117D03*
X0167300Y0080869D03*
X0173800Y0077369D03*
X0137300Y0117769D03*
X0118898Y0119617D03*
X0118898Y0133617D03*
X0121300Y0136869D03*
X0127398Y0137117D03*
X0135600Y0146069D03*
X0127398Y0148117D03*
X0127398Y0153117D03*
X0116898Y0147617D03*
X0111700Y0147669D03*
X0108300Y0141869D03*
X0104300Y0138869D03*
X0098400Y0137669D03*
X0093800Y0132869D03*
X0105800Y0158369D03*
X0099800Y0161369D03*
X0092800Y0166369D03*
X0101800Y0171869D03*
X0106300Y0171369D03*
X0128800Y0172369D03*
X0134200Y0165069D03*
X0144300Y0158369D03*
X0148900Y0151369D03*
X0146300Y0148869D03*
X0155620Y0138939D03*
X0157854Y0143416D03*
X0161211Y0139679D03*
X0146300Y0170869D03*
X0102800Y0091369D03*
X0087800Y0077869D03*
X0076300Y0089869D03*
X0063600Y0084869D03*
X0055700Y0091969D03*
X0059400Y0095669D03*
X0054000Y0086069D03*
X0049600Y0081269D03*
X0036000Y0066869D03*
X0052800Y0044869D03*
X0056800Y0044869D03*
X0056800Y0039869D03*
X0052800Y0039869D03*
X0063800Y0033869D03*
X0038800Y0036369D03*
X0072700Y0066269D03*
X0105300Y0041369D03*
X0113800Y0040869D03*
X0114800Y0031869D03*
X0103800Y0024369D03*
X0092300Y0021869D03*
X0127800Y0024269D03*
X0131800Y0050869D03*
X0061800Y0152369D03*
D12*
X0004600Y0019169D02*
X0004600Y0015669D01*
X0105800Y0015669D01*
X0105800Y0022409D01*
X0105386Y0021995D01*
X0104357Y0021569D01*
X0103243Y0021569D01*
X0102214Y0021995D01*
X0101426Y0022783D01*
X0101000Y0023812D01*
X0101000Y0024926D01*
X0101426Y0025955D01*
X0102214Y0026742D01*
X0103243Y0027169D01*
X0104357Y0027169D01*
X0105386Y0026742D01*
X0105800Y0026328D01*
X0105800Y0027869D01*
X0117800Y0027869D01*
X0117800Y0041869D01*
X0160649Y0042560D01*
X0159926Y0043283D01*
X0159500Y0044312D01*
X0159500Y0045426D01*
X0159926Y0046455D01*
X0160714Y0047242D01*
X0161743Y0047669D01*
X0162857Y0047669D01*
X0163886Y0047242D01*
X0164674Y0046455D01*
X0165100Y0045426D01*
X0165100Y0044312D01*
X0164674Y0043283D01*
X0164005Y0042614D01*
X0176165Y0042810D01*
X0176165Y0075774D01*
X0175386Y0074995D01*
X0174357Y0074569D01*
X0173243Y0074569D01*
X0172214Y0074995D01*
X0171426Y0075783D01*
X0171000Y0076812D01*
X0171000Y0077926D01*
X0171426Y0078955D01*
X0172214Y0079742D01*
X0173243Y0080169D01*
X0174357Y0080169D01*
X0175386Y0079742D01*
X0176165Y0078963D01*
X0176165Y0094781D01*
X0170922Y0094606D01*
X0171574Y0093955D01*
X0172000Y0092926D01*
X0172000Y0091812D01*
X0171574Y0090783D01*
X0170786Y0089995D01*
X0169757Y0089569D01*
X0168643Y0089569D01*
X0167614Y0089995D01*
X0166826Y0090783D01*
X0166400Y0091812D01*
X0166400Y0092926D01*
X0166826Y0093955D01*
X0167359Y0094487D01*
X0156931Y0094140D01*
X0156286Y0093495D01*
X0155257Y0093069D01*
X0154143Y0093069D01*
X0153114Y0093495D01*
X0152613Y0093996D01*
X0150854Y0093937D01*
X0150900Y0093826D01*
X0150900Y0092712D01*
X0150474Y0091683D01*
X0149686Y0090895D01*
X0148657Y0090469D01*
X0147543Y0090469D01*
X0146514Y0090895D01*
X0145726Y0091683D01*
X0145300Y0092712D01*
X0145300Y0093826D01*
X0145726Y0094855D01*
X0146514Y0095642D01*
X0147281Y0095960D01*
X0146714Y0096195D01*
X0145926Y0096983D01*
X0145500Y0098012D01*
X0145500Y0099126D01*
X0145926Y0100155D01*
X0146240Y0100469D01*
X0145926Y0100783D01*
X0145500Y0101812D01*
X0145500Y0102069D01*
X0145243Y0102069D01*
X0144214Y0102495D01*
X0143426Y0103283D01*
X0143000Y0104312D01*
X0143000Y0105426D01*
X0143426Y0106455D01*
X0144214Y0107242D01*
X0145243Y0107669D01*
X0146357Y0107669D01*
X0147386Y0107242D01*
X0148174Y0106455D01*
X0148600Y0105426D01*
X0148600Y0105169D01*
X0148800Y0105169D01*
X0148800Y0147587D01*
X0148674Y0147283D01*
X0147886Y0146495D01*
X0146857Y0146069D01*
X0145743Y0146069D01*
X0144714Y0146495D01*
X0143926Y0147283D01*
X0143500Y0148312D01*
X0143500Y0149426D01*
X0143926Y0150455D01*
X0144714Y0151242D01*
X0145743Y0151669D01*
X0146100Y0151669D01*
X0146100Y0151926D01*
X0146526Y0152955D01*
X0147314Y0153742D01*
X0148343Y0154169D01*
X0148800Y0154169D01*
X0148800Y0169587D01*
X0148674Y0169283D01*
X0147886Y0168495D01*
X0146857Y0168069D01*
X0145743Y0168069D01*
X0144714Y0168495D01*
X0143926Y0169283D01*
X0143500Y0170312D01*
X0143500Y0171426D01*
X0143926Y0172455D01*
X0144714Y0173242D01*
X0145226Y0173454D01*
X0108174Y0173454D01*
X0108674Y0172955D01*
X0109100Y0171926D01*
X0109100Y0170812D01*
X0108674Y0169783D01*
X0107886Y0168995D01*
X0106857Y0168569D01*
X0105743Y0168569D01*
X0104714Y0168995D01*
X0103926Y0169783D01*
X0103852Y0169961D01*
X0103386Y0169495D01*
X0102357Y0169069D01*
X0101243Y0169069D01*
X0100214Y0169495D01*
X0099426Y0170283D01*
X0099000Y0171312D01*
X0099000Y0172426D01*
X0099426Y0173454D01*
X0083363Y0173454D01*
X0069800Y0173369D01*
X0062198Y0155169D01*
X0062357Y0155169D01*
X0063386Y0154742D01*
X0064174Y0153955D01*
X0064600Y0152926D01*
X0064600Y0151812D01*
X0064174Y0150783D01*
X0063386Y0149995D01*
X0062357Y0149569D01*
X0061243Y0149569D01*
X0060214Y0149995D01*
X0060089Y0150119D01*
X0017800Y0048869D01*
X0014881Y0042300D01*
X0015137Y0041681D01*
X0015137Y0039930D01*
X0014467Y0038313D01*
X0013229Y0037075D01*
X0012407Y0036735D01*
X0011710Y0035165D01*
X0013229Y0034536D01*
X0014467Y0033298D01*
X0015137Y0031681D01*
X0015137Y0029930D01*
X0014467Y0028313D01*
X0013229Y0027075D01*
X0011612Y0026406D01*
X0009862Y0026406D01*
X0008245Y0027075D01*
X0008154Y0027166D01*
X0004600Y0019169D01*
X0004642Y0019263D02*
X0006614Y0019263D01*
X0006337Y0019930D02*
X0007007Y0018313D01*
X0008245Y0017075D01*
X0009862Y0016406D01*
X0011612Y0016406D01*
X0013229Y0017075D01*
X0014467Y0018313D01*
X0015137Y0019930D01*
X0015137Y0021681D01*
X0014467Y0023298D01*
X0013229Y0024536D01*
X0011612Y0025206D01*
X0009862Y0025206D01*
X0008245Y0024536D01*
X0007007Y0023298D01*
X0006337Y0021681D01*
X0006337Y0019930D01*
X0006337Y0020861D02*
X0005352Y0020861D01*
X0006063Y0022460D02*
X0006660Y0022460D01*
X0006773Y0024058D02*
X0007767Y0024058D01*
X0007484Y0025657D02*
X0101303Y0025657D01*
X0101000Y0024058D02*
X0094070Y0024058D01*
X0093886Y0024242D02*
X0092857Y0024669D01*
X0091743Y0024669D01*
X0090714Y0024242D01*
X0089926Y0023455D01*
X0089500Y0022426D01*
X0089500Y0021312D01*
X0089926Y0020283D01*
X0090714Y0019495D01*
X0091743Y0019069D01*
X0092857Y0019069D01*
X0093886Y0019495D01*
X0094674Y0020283D01*
X0095100Y0021312D01*
X0095100Y0022426D01*
X0094674Y0023455D01*
X0093886Y0024242D01*
X0095086Y0022460D02*
X0101749Y0022460D01*
X0105800Y0020861D02*
X0094913Y0020861D01*
X0093325Y0019263D02*
X0105800Y0019263D01*
X0105800Y0017664D02*
X0013818Y0017664D01*
X0014860Y0019263D02*
X0091275Y0019263D01*
X0089687Y0020861D02*
X0015137Y0020861D01*
X0014814Y0022460D02*
X0089514Y0022460D01*
X0090530Y0024058D02*
X0013707Y0024058D01*
X0013409Y0027255D02*
X0105800Y0027255D01*
X0112426Y0030283D02*
X0112000Y0031312D01*
X0112000Y0032426D01*
X0112426Y0033455D01*
X0113214Y0034242D01*
X0114243Y0034669D01*
X0115357Y0034669D01*
X0116386Y0034242D01*
X0117174Y0033455D01*
X0117600Y0032426D01*
X0117600Y0031312D01*
X0117174Y0030283D01*
X0116386Y0029495D01*
X0115357Y0029069D01*
X0114243Y0029069D01*
X0113214Y0029495D01*
X0112426Y0030283D01*
X0112356Y0030452D02*
X0046126Y0030452D01*
X0046343Y0030669D02*
X0045499Y0029825D01*
X0044397Y0029369D01*
X0043203Y0029369D01*
X0042101Y0029825D01*
X0041257Y0030669D01*
X0040800Y0031772D01*
X0040800Y0032965D01*
X0041257Y0034068D01*
X0042101Y0034912D01*
X0042720Y0035169D01*
X0041334Y0035169D01*
X0041174Y0034783D01*
X0040386Y0033995D01*
X0039357Y0033569D01*
X0038243Y0033569D01*
X0037214Y0033995D01*
X0036426Y0034783D01*
X0036000Y0035812D01*
X0036000Y0036926D01*
X0036426Y0037955D01*
X0037214Y0038742D01*
X0038243Y0039169D01*
X0039357Y0039169D01*
X0040386Y0038742D01*
X0040560Y0038569D01*
X0050308Y0038569D01*
X0050000Y0039312D01*
X0050000Y0040426D01*
X0050426Y0041455D01*
X0051214Y0042242D01*
X0051519Y0042369D01*
X0051214Y0042495D01*
X0050426Y0043283D01*
X0050000Y0044312D01*
X0050000Y0045426D01*
X0050426Y0046455D01*
X0051214Y0047242D01*
X0052243Y0047669D01*
X0053357Y0047669D01*
X0054386Y0047242D01*
X0054800Y0046828D01*
X0055214Y0047242D01*
X0056243Y0047669D01*
X0057357Y0047669D01*
X0058386Y0047242D01*
X0059174Y0046455D01*
X0059600Y0045426D01*
X0059600Y0044312D01*
X0059174Y0043283D01*
X0058386Y0042495D01*
X0058081Y0042369D01*
X0058386Y0042242D01*
X0059174Y0041455D01*
X0059600Y0040426D01*
X0059600Y0039312D01*
X0059292Y0038569D01*
X0072974Y0038569D01*
X0071167Y0063873D01*
X0071114Y0063895D01*
X0070326Y0064683D01*
X0069900Y0065712D01*
X0069900Y0066826D01*
X0070326Y0067855D01*
X0071114Y0068642D01*
X0072143Y0069069D01*
X0073257Y0069069D01*
X0074286Y0068642D01*
X0075074Y0067855D01*
X0075500Y0066826D01*
X0075500Y0065712D01*
X0075074Y0064683D01*
X0074555Y0064164D01*
X0076450Y0037622D01*
X0076500Y0037573D01*
X0076500Y0036929D01*
X0076546Y0036287D01*
X0076500Y0036234D01*
X0076500Y0036164D01*
X0076045Y0035709D01*
X0075623Y0035223D01*
X0075554Y0035218D01*
X0075504Y0035169D01*
X0074861Y0035169D01*
X0074219Y0035123D01*
X0074166Y0035169D01*
X0066292Y0035169D01*
X0066600Y0034426D01*
X0066600Y0033312D01*
X0066174Y0032283D01*
X0065386Y0031495D01*
X0064357Y0031069D01*
X0063243Y0031069D01*
X0062214Y0031495D01*
X0061426Y0032283D01*
X0061000Y0033312D01*
X0061000Y0034426D01*
X0061308Y0035169D01*
X0044880Y0035169D01*
X0045499Y0034912D01*
X0046343Y0034068D01*
X0046800Y0032965D01*
X0046800Y0031772D01*
X0046343Y0030669D01*
X0046800Y0032051D02*
X0061658Y0032051D01*
X0061000Y0033649D02*
X0046517Y0033649D01*
X0041083Y0033649D02*
X0039552Y0033649D01*
X0038048Y0033649D02*
X0014116Y0033649D01*
X0014984Y0032051D02*
X0040800Y0032051D01*
X0041474Y0030452D02*
X0015137Y0030452D01*
X0014691Y0028854D02*
X0117800Y0028854D01*
X0117800Y0030452D02*
X0117244Y0030452D01*
X0117600Y0032051D02*
X0117800Y0032051D01*
X0117800Y0033649D02*
X0116979Y0033649D01*
X0117800Y0035248D02*
X0075645Y0035248D01*
X0076506Y0036846D02*
X0117800Y0036846D01*
X0117800Y0038445D02*
X0115265Y0038445D01*
X0115386Y0038495D02*
X0116174Y0039283D01*
X0116600Y0040312D01*
X0116600Y0041426D01*
X0116174Y0042455D01*
X0115386Y0043242D01*
X0114357Y0043669D01*
X0113243Y0043669D01*
X0112214Y0043242D01*
X0111426Y0042455D01*
X0111000Y0041426D01*
X0111000Y0040312D01*
X0111426Y0039283D01*
X0112214Y0038495D01*
X0113243Y0038069D01*
X0114357Y0038069D01*
X0115386Y0038495D01*
X0116489Y0040043D02*
X0117800Y0040043D01*
X0117800Y0041642D02*
X0116510Y0041642D01*
X0115388Y0043240D02*
X0159968Y0043240D01*
X0159500Y0044839D02*
X0075935Y0044839D01*
X0075821Y0046437D02*
X0159919Y0046437D01*
X0164681Y0046437D02*
X0176165Y0046437D01*
X0176165Y0044839D02*
X0165100Y0044839D01*
X0164631Y0043240D02*
X0176165Y0043240D01*
X0176165Y0048036D02*
X0075707Y0048036D01*
X0075592Y0049634D02*
X0129281Y0049634D01*
X0129426Y0049283D02*
X0130214Y0048495D01*
X0131243Y0048069D01*
X0132357Y0048069D01*
X0133386Y0048495D01*
X0134174Y0049283D01*
X0134600Y0050312D01*
X0134600Y0051426D01*
X0134174Y0052455D01*
X0133386Y0053242D01*
X0132357Y0053669D01*
X0131243Y0053669D01*
X0130214Y0053242D01*
X0129426Y0052455D01*
X0129000Y0051426D01*
X0129000Y0050312D01*
X0129426Y0049283D01*
X0129000Y0051233D02*
X0075478Y0051233D01*
X0075364Y0052831D02*
X0107377Y0052831D01*
X0107714Y0052495D02*
X0108743Y0052069D01*
X0109857Y0052069D01*
X0110886Y0052495D01*
X0111674Y0053283D01*
X0112100Y0054312D01*
X0112100Y0055426D01*
X0111674Y0056455D01*
X0110886Y0057242D01*
X0109857Y0057669D01*
X0108743Y0057669D01*
X0107714Y0057242D01*
X0106926Y0056455D01*
X0106500Y0055426D01*
X0106500Y0054312D01*
X0106926Y0053283D01*
X0107714Y0052495D01*
X0106500Y0054430D02*
X0075250Y0054430D01*
X0075136Y0056028D02*
X0106750Y0056028D01*
X0108642Y0057627D02*
X0075022Y0057627D01*
X0074907Y0059225D02*
X0131101Y0059225D01*
X0130900Y0059712D02*
X0131326Y0058683D01*
X0132114Y0057895D01*
X0133143Y0057469D01*
X0134257Y0057469D01*
X0135286Y0057895D01*
X0136074Y0058683D01*
X0136500Y0059712D01*
X0136500Y0060826D01*
X0136074Y0061855D01*
X0135286Y0062642D01*
X0134257Y0063069D01*
X0133143Y0063069D01*
X0132114Y0062642D01*
X0131326Y0061855D01*
X0130900Y0060826D01*
X0130900Y0059712D01*
X0130900Y0060824D02*
X0103915Y0060824D01*
X0104086Y0060895D02*
X0104874Y0061683D01*
X0105300Y0062712D01*
X0105300Y0063826D01*
X0104874Y0064855D01*
X0104086Y0065642D01*
X0103348Y0065948D01*
X0104186Y0066295D01*
X0104974Y0067083D01*
X0105400Y0068112D01*
X0105400Y0069226D01*
X0104974Y0070255D01*
X0104186Y0071042D01*
X0103157Y0071469D01*
X0102043Y0071469D01*
X0101014Y0071042D01*
X0100226Y0070255D01*
X0100152Y0070076D01*
X0099486Y0070742D01*
X0098457Y0071169D01*
X0097343Y0071169D01*
X0096314Y0070742D01*
X0095526Y0069955D01*
X0095100Y0068926D01*
X0095100Y0067812D01*
X0095526Y0066783D01*
X0096314Y0065995D01*
X0096619Y0065869D01*
X0096314Y0065742D01*
X0095526Y0064955D01*
X0095100Y0063926D01*
X0095100Y0062812D01*
X0095526Y0061783D01*
X0096314Y0060995D01*
X0097343Y0060569D01*
X0098457Y0060569D01*
X0099486Y0060995D01*
X0100150Y0061659D01*
X0100914Y0060895D01*
X0101943Y0060469D01*
X0103057Y0060469D01*
X0104086Y0060895D01*
X0105180Y0062422D02*
X0131894Y0062422D01*
X0133143Y0064969D02*
X0132114Y0065395D01*
X0131326Y0066183D01*
X0130900Y0067212D01*
X0130900Y0068326D01*
X0131326Y0069355D01*
X0132114Y0070142D01*
X0133143Y0070569D01*
X0134257Y0070569D01*
X0135286Y0070142D01*
X0136074Y0069355D01*
X0136500Y0068326D01*
X0136500Y0067212D01*
X0136074Y0066183D01*
X0135286Y0065395D01*
X0134257Y0064969D01*
X0133143Y0064969D01*
X0131889Y0065619D02*
X0128511Y0065619D01*
X0128386Y0065495D02*
X0129174Y0066283D01*
X0129600Y0067312D01*
X0129600Y0068426D01*
X0129174Y0069455D01*
X0128386Y0070242D01*
X0127357Y0070669D01*
X0126243Y0070669D01*
X0125214Y0070242D01*
X0124426Y0069455D01*
X0124000Y0068426D01*
X0124000Y0067312D01*
X0124426Y0066283D01*
X0125214Y0065495D01*
X0126243Y0065069D01*
X0127357Y0065069D01*
X0128386Y0065495D01*
X0129561Y0067218D02*
X0130900Y0067218D01*
X0131103Y0068817D02*
X0129438Y0068817D01*
X0127969Y0070415D02*
X0132772Y0070415D01*
X0134628Y0070415D02*
X0176165Y0070415D01*
X0176165Y0068817D02*
X0136297Y0068817D01*
X0136500Y0067218D02*
X0176165Y0067218D01*
X0176165Y0065619D02*
X0135511Y0065619D01*
X0135506Y0062422D02*
X0176165Y0062422D01*
X0176165Y0060824D02*
X0136500Y0060824D01*
X0136299Y0059225D02*
X0176165Y0059225D01*
X0176165Y0057627D02*
X0134639Y0057627D01*
X0132761Y0057627D02*
X0120458Y0057627D01*
X0120357Y0057669D02*
X0119243Y0057669D01*
X0118214Y0057242D01*
X0117426Y0056455D01*
X0117000Y0055426D01*
X0117000Y0054312D01*
X0117426Y0053283D01*
X0118214Y0052495D01*
X0119243Y0052069D01*
X0120357Y0052069D01*
X0121386Y0052495D01*
X0122174Y0053283D01*
X0122600Y0054312D01*
X0122600Y0055426D01*
X0122174Y0056455D01*
X0121386Y0057242D01*
X0120357Y0057669D01*
X0119142Y0057627D02*
X0109958Y0057627D01*
X0111850Y0056028D02*
X0117250Y0056028D01*
X0117000Y0054430D02*
X0112100Y0054430D01*
X0111223Y0052831D02*
X0117877Y0052831D01*
X0121723Y0052831D02*
X0129803Y0052831D01*
X0133797Y0052831D02*
X0176165Y0052831D01*
X0176165Y0051233D02*
X0134600Y0051233D01*
X0134319Y0049634D02*
X0176165Y0049634D01*
X0176165Y0054430D02*
X0122600Y0054430D01*
X0122350Y0056028D02*
X0176165Y0056028D01*
X0176165Y0064021D02*
X0105219Y0064021D01*
X0104109Y0065619D02*
X0125089Y0065619D01*
X0124039Y0067218D02*
X0105030Y0067218D01*
X0105400Y0068817D02*
X0124162Y0068817D01*
X0125631Y0070415D02*
X0104813Y0070415D01*
X0100387Y0070415D02*
X0099813Y0070415D01*
X0095987Y0070415D02*
X0026799Y0070415D01*
X0026132Y0068817D02*
X0033988Y0068817D01*
X0033626Y0068455D02*
X0033200Y0067426D01*
X0033200Y0066312D01*
X0033626Y0065283D01*
X0034414Y0064495D01*
X0035443Y0064069D01*
X0036557Y0064069D01*
X0037586Y0064495D01*
X0038374Y0065283D01*
X0038800Y0066312D01*
X0038800Y0067426D01*
X0038374Y0068455D01*
X0037586Y0069242D01*
X0036557Y0069669D01*
X0035443Y0069669D01*
X0034414Y0069242D01*
X0033626Y0068455D01*
X0033200Y0067218D02*
X0025464Y0067218D01*
X0024796Y0065619D02*
X0033487Y0065619D01*
X0038513Y0065619D02*
X0069938Y0065619D01*
X0070063Y0067218D02*
X0038800Y0067218D01*
X0038012Y0068817D02*
X0071534Y0068817D01*
X0073866Y0068817D02*
X0095100Y0068817D01*
X0095346Y0067218D02*
X0075337Y0067218D01*
X0075462Y0065619D02*
X0096191Y0065619D01*
X0095140Y0064021D02*
X0074565Y0064021D01*
X0074679Y0062422D02*
X0095261Y0062422D01*
X0096727Y0060824D02*
X0074793Y0060824D01*
X0071385Y0060824D02*
X0022793Y0060824D01*
X0022126Y0059225D02*
X0026934Y0059225D01*
X0027308Y0059599D02*
X0026070Y0058361D01*
X0025400Y0056744D01*
X0025400Y0054993D01*
X0026070Y0053376D01*
X0027308Y0052138D01*
X0028925Y0051469D01*
X0030675Y0051469D01*
X0032292Y0052138D01*
X0033530Y0053376D01*
X0034200Y0054993D01*
X0034200Y0056744D01*
X0033530Y0058361D01*
X0032292Y0059599D01*
X0030675Y0060269D01*
X0028925Y0060269D01*
X0027308Y0059599D01*
X0025766Y0057627D02*
X0021458Y0057627D01*
X0020790Y0056028D02*
X0025400Y0056028D01*
X0025633Y0054430D02*
X0020123Y0054430D01*
X0019455Y0052831D02*
X0026615Y0052831D01*
X0032985Y0052831D02*
X0035982Y0052831D01*
X0035800Y0053272D02*
X0036257Y0052169D01*
X0037101Y0051325D01*
X0038203Y0050869D01*
X0039397Y0050869D01*
X0040499Y0051325D01*
X0041151Y0051977D01*
X0041653Y0050430D01*
X0043218Y0049293D01*
X0045153Y0049293D01*
X0046718Y0050430D01*
X0047316Y0052270D01*
X0046718Y0054110D01*
X0045153Y0055247D01*
X0043218Y0055247D01*
X0041800Y0054217D01*
X0041800Y0054465D01*
X0041343Y0055568D01*
X0040499Y0056412D01*
X0039397Y0056869D01*
X0038203Y0056869D01*
X0037101Y0056412D01*
X0036257Y0055568D01*
X0035800Y0054465D01*
X0035800Y0053272D01*
X0035800Y0054430D02*
X0033967Y0054430D01*
X0034200Y0056028D02*
X0036717Y0056028D01*
X0033834Y0057627D02*
X0063867Y0057627D01*
X0063800Y0057465D02*
X0063800Y0056272D01*
X0064257Y0055169D01*
X0065101Y0054325D01*
X0066203Y0053869D01*
X0067397Y0053869D01*
X0068499Y0054325D01*
X0069343Y0055169D01*
X0069800Y0056272D01*
X0069800Y0057465D01*
X0069343Y0058568D01*
X0068499Y0059412D01*
X0067397Y0059869D01*
X0066203Y0059869D01*
X0065101Y0059412D01*
X0064257Y0058568D01*
X0063800Y0057465D01*
X0063901Y0056028D02*
X0040883Y0056028D01*
X0041800Y0054430D02*
X0042093Y0054430D01*
X0041393Y0051233D02*
X0040276Y0051233D01*
X0037324Y0051233D02*
X0018787Y0051233D01*
X0018120Y0049634D02*
X0042749Y0049634D01*
X0045623Y0049634D02*
X0072184Y0049634D01*
X0072298Y0048036D02*
X0017430Y0048036D01*
X0016719Y0046437D02*
X0050419Y0046437D01*
X0050000Y0044839D02*
X0016009Y0044839D01*
X0015299Y0043240D02*
X0050468Y0043240D01*
X0050613Y0041642D02*
X0015137Y0041642D01*
X0015137Y0040043D02*
X0050000Y0040043D01*
X0058987Y0041642D02*
X0072755Y0041642D01*
X0072641Y0043240D02*
X0059132Y0043240D01*
X0059600Y0044839D02*
X0072526Y0044839D01*
X0072412Y0046437D02*
X0059181Y0046437D01*
X0059600Y0040043D02*
X0072869Y0040043D01*
X0076278Y0040043D02*
X0102818Y0040043D01*
X0102926Y0039783D02*
X0103714Y0038995D01*
X0104743Y0038569D01*
X0105857Y0038569D01*
X0106886Y0038995D01*
X0107674Y0039783D01*
X0108100Y0040812D01*
X0108100Y0041926D01*
X0107674Y0042955D01*
X0106886Y0043742D01*
X0105857Y0044169D01*
X0104743Y0044169D01*
X0103714Y0043742D01*
X0102926Y0042955D01*
X0102500Y0041926D01*
X0102500Y0040812D01*
X0102926Y0039783D01*
X0102500Y0041642D02*
X0076163Y0041642D01*
X0076049Y0043240D02*
X0103212Y0043240D01*
X0107388Y0043240D02*
X0112212Y0043240D01*
X0111090Y0041642D02*
X0108100Y0041642D01*
X0107782Y0040043D02*
X0111111Y0040043D01*
X0112335Y0038445D02*
X0076392Y0038445D01*
X0066600Y0033649D02*
X0112621Y0033649D01*
X0112000Y0032051D02*
X0065942Y0032051D01*
X0072070Y0051233D02*
X0046979Y0051233D01*
X0047134Y0052831D02*
X0071955Y0052831D01*
X0071841Y0054430D02*
X0068604Y0054430D01*
X0069699Y0056028D02*
X0071727Y0056028D01*
X0071613Y0057627D02*
X0069733Y0057627D01*
X0068686Y0059225D02*
X0071499Y0059225D01*
X0071270Y0062422D02*
X0023461Y0062422D01*
X0024129Y0064021D02*
X0070988Y0064021D01*
X0064914Y0059225D02*
X0032666Y0059225D01*
X0027467Y0072014D02*
X0176165Y0072014D01*
X0176165Y0073612D02*
X0028135Y0073612D01*
X0028802Y0075211D02*
X0086900Y0075211D01*
X0087243Y0075069D02*
X0088357Y0075069D01*
X0089386Y0075495D01*
X0090174Y0076283D01*
X0090600Y0077312D01*
X0090600Y0078426D01*
X0090174Y0079455D01*
X0089386Y0080242D01*
X0088357Y0080669D01*
X0087243Y0080669D01*
X0086214Y0080242D01*
X0085426Y0079455D01*
X0085000Y0078426D01*
X0085000Y0077312D01*
X0085426Y0076283D01*
X0086214Y0075495D01*
X0087243Y0075069D01*
X0088700Y0075211D02*
X0106400Y0075211D01*
X0106743Y0075069D02*
X0107857Y0075069D01*
X0108886Y0075495D01*
X0109674Y0076283D01*
X0110100Y0077312D01*
X0110100Y0078426D01*
X0109674Y0079455D01*
X0108886Y0080242D01*
X0107857Y0080669D01*
X0106743Y0080669D01*
X0105714Y0080242D01*
X0104926Y0079455D01*
X0104500Y0078426D01*
X0104500Y0077312D01*
X0104926Y0076283D01*
X0105714Y0075495D01*
X0106743Y0075069D01*
X0108200Y0075211D02*
X0171998Y0075211D01*
X0171001Y0076809D02*
X0109892Y0076809D01*
X0110100Y0078408D02*
X0116925Y0078408D01*
X0116714Y0078495D02*
X0117743Y0078069D01*
X0118857Y0078069D01*
X0119886Y0078495D01*
X0120674Y0079283D01*
X0121100Y0080312D01*
X0121100Y0081426D01*
X0120674Y0082455D01*
X0119886Y0083242D01*
X0118857Y0083669D01*
X0117743Y0083669D01*
X0116714Y0083242D01*
X0115926Y0082455D01*
X0115500Y0081426D01*
X0115500Y0080312D01*
X0115926Y0079283D01*
X0116714Y0078495D01*
X0115627Y0080006D02*
X0109122Y0080006D01*
X0108629Y0080747D02*
X0110168Y0080747D01*
X0111591Y0081336D01*
X0112679Y0082424D01*
X0113268Y0083847D01*
X0113268Y0085386D01*
X0112679Y0086809D01*
X0111591Y0087898D01*
X0110168Y0088487D01*
X0108629Y0088487D01*
X0107206Y0087898D01*
X0106118Y0086809D01*
X0105528Y0085386D01*
X0105528Y0083847D01*
X0106118Y0082424D01*
X0107206Y0081336D01*
X0108629Y0080747D01*
X0106937Y0081605D02*
X0052400Y0081605D01*
X0052400Y0081826D02*
X0051974Y0082855D01*
X0051186Y0083642D01*
X0050157Y0084069D01*
X0049043Y0084069D01*
X0048014Y0083642D01*
X0047226Y0082855D01*
X0046800Y0081826D01*
X0046800Y0080712D01*
X0047226Y0079683D01*
X0048014Y0078895D01*
X0049043Y0078469D01*
X0050157Y0078469D01*
X0051186Y0078895D01*
X0051974Y0079683D01*
X0052400Y0080712D01*
X0052400Y0081826D01*
X0051625Y0083203D02*
X0061306Y0083203D01*
X0061226Y0083283D02*
X0062014Y0082495D01*
X0063043Y0082069D01*
X0064157Y0082069D01*
X0065186Y0082495D01*
X0065974Y0083283D01*
X0066400Y0084312D01*
X0066400Y0085426D01*
X0065974Y0086455D01*
X0065186Y0087242D01*
X0064157Y0087669D01*
X0063043Y0087669D01*
X0062014Y0087242D01*
X0061226Y0086455D01*
X0060800Y0085426D01*
X0060800Y0084312D01*
X0061226Y0083283D01*
X0060800Y0084802D02*
X0056506Y0084802D01*
X0056374Y0084483D02*
X0056800Y0085512D01*
X0056800Y0086626D01*
X0056374Y0087655D01*
X0055586Y0088442D01*
X0054557Y0088869D01*
X0053443Y0088869D01*
X0052414Y0088442D01*
X0051626Y0087655D01*
X0051200Y0086626D01*
X0051200Y0085512D01*
X0051626Y0084483D01*
X0052414Y0083695D01*
X0053443Y0083269D01*
X0054557Y0083269D01*
X0055586Y0083695D01*
X0056374Y0084483D01*
X0056800Y0086400D02*
X0061204Y0086400D01*
X0065996Y0086400D02*
X0105948Y0086400D01*
X0105528Y0084802D02*
X0066400Y0084802D01*
X0065894Y0083203D02*
X0105795Y0083203D01*
X0105478Y0080006D02*
X0089622Y0080006D01*
X0090600Y0078408D02*
X0104500Y0078408D01*
X0104708Y0076809D02*
X0090392Y0076809D01*
X0085208Y0076809D02*
X0029470Y0076809D01*
X0030138Y0078408D02*
X0085000Y0078408D01*
X0085978Y0080006D02*
X0052108Y0080006D01*
X0051494Y0084802D02*
X0032808Y0084802D01*
X0033476Y0086400D02*
X0051200Y0086400D01*
X0051970Y0087999D02*
X0034143Y0087999D01*
X0034811Y0089597D02*
X0054112Y0089597D01*
X0054114Y0089595D02*
X0055143Y0089169D01*
X0056257Y0089169D01*
X0057286Y0089595D01*
X0058074Y0090383D01*
X0058500Y0091412D01*
X0058500Y0092526D01*
X0058257Y0093111D01*
X0058843Y0092869D01*
X0059957Y0092869D01*
X0060986Y0093295D01*
X0061774Y0094083D01*
X0062200Y0095112D01*
X0062200Y0096226D01*
X0061774Y0097255D01*
X0060986Y0098042D01*
X0059957Y0098469D01*
X0058843Y0098469D01*
X0057814Y0098042D01*
X0057026Y0097255D01*
X0056600Y0096226D01*
X0056600Y0095112D01*
X0056843Y0094526D01*
X0056257Y0094769D01*
X0055143Y0094769D01*
X0054114Y0094342D01*
X0053326Y0093555D01*
X0052900Y0092526D01*
X0052900Y0091412D01*
X0053326Y0090383D01*
X0054114Y0089595D01*
X0052989Y0091196D02*
X0035479Y0091196D01*
X0036146Y0092794D02*
X0053011Y0092794D01*
X0054236Y0094393D02*
X0036814Y0094393D01*
X0037482Y0095991D02*
X0056600Y0095991D01*
X0057361Y0097590D02*
X0038149Y0097590D01*
X0038817Y0099188D02*
X0112959Y0099188D01*
X0113025Y0099031D02*
X0113812Y0098243D01*
X0114841Y0097817D01*
X0115955Y0097817D01*
X0116098Y0097876D01*
X0116098Y0097060D01*
X0116525Y0096031D01*
X0117312Y0095243D01*
X0118341Y0094817D01*
X0119158Y0094817D01*
X0119098Y0094674D01*
X0119098Y0093560D01*
X0119525Y0092531D01*
X0120312Y0091743D01*
X0121341Y0091317D01*
X0122455Y0091317D01*
X0123484Y0091743D01*
X0124272Y0092531D01*
X0124698Y0093560D01*
X0124698Y0094674D01*
X0124272Y0095703D01*
X0123484Y0096490D01*
X0122455Y0096917D01*
X0121639Y0096917D01*
X0121698Y0097060D01*
X0121698Y0098174D01*
X0121272Y0099203D01*
X0120484Y0099990D01*
X0119455Y0100417D01*
X0118341Y0100417D01*
X0118198Y0100357D01*
X0118198Y0101174D01*
X0117772Y0102203D01*
X0116984Y0102990D01*
X0116362Y0103248D01*
X0116698Y0104060D01*
X0116698Y0105174D01*
X0116272Y0106203D01*
X0115484Y0106990D01*
X0114455Y0107417D01*
X0113341Y0107417D01*
X0112312Y0106990D01*
X0111525Y0106203D01*
X0111098Y0105174D01*
X0111098Y0104060D01*
X0111525Y0103031D01*
X0112312Y0102243D01*
X0112935Y0101985D01*
X0112598Y0101174D01*
X0112598Y0100060D01*
X0113025Y0099031D01*
X0112598Y0100787D02*
X0039485Y0100787D01*
X0040152Y0102385D02*
X0112170Y0102385D01*
X0111130Y0103984D02*
X0040820Y0103984D01*
X0041488Y0105582D02*
X0111268Y0105582D01*
X0112772Y0107181D02*
X0042155Y0107181D01*
X0042823Y0108779D02*
X0148800Y0108779D01*
X0148800Y0107181D02*
X0147448Y0107181D01*
X0148535Y0105582D02*
X0148800Y0105582D01*
X0144152Y0107181D02*
X0115025Y0107181D01*
X0116529Y0105582D02*
X0134475Y0105582D01*
X0134525Y0105703D02*
X0134098Y0104674D01*
X0134098Y0103560D01*
X0134525Y0102531D01*
X0135312Y0101743D01*
X0136341Y0101317D01*
X0137455Y0101317D01*
X0138484Y0101743D01*
X0139272Y0102531D01*
X0139698Y0103560D01*
X0139698Y0104674D01*
X0139272Y0105703D01*
X0138484Y0106490D01*
X0137455Y0106917D01*
X0136341Y0106917D01*
X0135312Y0106490D01*
X0134525Y0105703D01*
X0134098Y0103984D02*
X0116667Y0103984D01*
X0117590Y0102385D02*
X0134670Y0102385D01*
X0139127Y0102385D02*
X0144479Y0102385D01*
X0143136Y0103984D02*
X0139698Y0103984D01*
X0139322Y0105582D02*
X0143065Y0105582D01*
X0145925Y0100787D02*
X0118198Y0100787D01*
X0121278Y0099188D02*
X0145526Y0099188D01*
X0145675Y0097590D02*
X0121698Y0097590D01*
X0123984Y0095991D02*
X0147206Y0095991D01*
X0145535Y0094393D02*
X0124698Y0094393D01*
X0124381Y0092794D02*
X0145300Y0092794D01*
X0146213Y0091196D02*
X0132292Y0091196D01*
X0132679Y0090809D02*
X0131591Y0091898D01*
X0130168Y0092487D01*
X0128629Y0092487D01*
X0127206Y0091898D01*
X0126118Y0090809D01*
X0125528Y0089386D01*
X0125528Y0087847D01*
X0126118Y0086424D01*
X0127206Y0085336D01*
X0128629Y0084747D01*
X0128598Y0084674D01*
X0128598Y0083560D01*
X0129025Y0082531D01*
X0129812Y0081743D01*
X0130841Y0081317D01*
X0131955Y0081317D01*
X0132984Y0081743D01*
X0133398Y0082157D01*
X0133812Y0081743D01*
X0134841Y0081317D01*
X0135955Y0081317D01*
X0136984Y0081743D01*
X0137398Y0082157D01*
X0137812Y0081743D01*
X0138841Y0081317D01*
X0139955Y0081317D01*
X0140984Y0081743D01*
X0141772Y0082531D01*
X0142198Y0083560D01*
X0142198Y0084674D01*
X0141772Y0085703D01*
X0140984Y0086490D01*
X0139955Y0086917D01*
X0138841Y0086917D01*
X0137812Y0086490D01*
X0137398Y0086076D01*
X0136984Y0086490D01*
X0135955Y0086917D01*
X0134841Y0086917D01*
X0133812Y0086490D01*
X0133398Y0086076D01*
X0132984Y0086490D01*
X0132747Y0086589D01*
X0133268Y0087847D01*
X0133268Y0089386D01*
X0132679Y0090809D01*
X0133181Y0089597D02*
X0168574Y0089597D01*
X0169826Y0089597D02*
X0176165Y0089597D01*
X0176165Y0087999D02*
X0133268Y0087999D01*
X0133075Y0086400D02*
X0133722Y0086400D01*
X0137075Y0086400D02*
X0137722Y0086400D01*
X0141075Y0086400D02*
X0176165Y0086400D01*
X0176165Y0084802D02*
X0142145Y0084802D01*
X0142051Y0083203D02*
X0145175Y0083203D01*
X0145214Y0083242D02*
X0144426Y0082455D01*
X0144000Y0081426D01*
X0144000Y0080312D01*
X0144426Y0079283D01*
X0145214Y0078495D01*
X0146243Y0078069D01*
X0147357Y0078069D01*
X0148386Y0078495D01*
X0149174Y0079283D01*
X0149600Y0080312D01*
X0149600Y0081426D01*
X0149174Y0082455D01*
X0148386Y0083242D01*
X0147357Y0083669D01*
X0146243Y0083669D01*
X0145214Y0083242D01*
X0144074Y0081605D02*
X0140651Y0081605D01*
X0138146Y0081605D02*
X0136651Y0081605D01*
X0134146Y0081605D02*
X0132651Y0081605D01*
X0130146Y0081605D02*
X0121026Y0081605D01*
X0120973Y0080006D02*
X0144127Y0080006D01*
X0145425Y0078408D02*
X0119675Y0078408D01*
X0115574Y0081605D02*
X0111859Y0081605D01*
X0113002Y0083203D02*
X0116675Y0083203D01*
X0119925Y0083203D02*
X0128746Y0083203D01*
X0128629Y0084747D02*
X0128629Y0084747D01*
X0128496Y0084802D02*
X0113268Y0084802D01*
X0112849Y0086400D02*
X0126142Y0086400D01*
X0125528Y0087999D02*
X0111347Y0087999D01*
X0111591Y0089336D02*
X0112679Y0090424D01*
X0113268Y0091847D01*
X0113268Y0093386D01*
X0112679Y0094809D01*
X0111591Y0095898D01*
X0110168Y0096487D01*
X0108629Y0096487D01*
X0107206Y0095898D01*
X0106118Y0094809D01*
X0105528Y0093386D01*
X0105528Y0092098D01*
X0105174Y0092955D01*
X0104386Y0093742D01*
X0103357Y0094169D01*
X0102243Y0094169D01*
X0101214Y0093742D01*
X0100426Y0092955D01*
X0100000Y0091926D01*
X0100000Y0090812D01*
X0100426Y0089783D01*
X0101214Y0088995D01*
X0102243Y0088569D01*
X0103357Y0088569D01*
X0104386Y0088995D01*
X0105174Y0089783D01*
X0105600Y0090812D01*
X0105600Y0091674D01*
X0106118Y0090424D01*
X0107206Y0089336D01*
X0108629Y0088747D01*
X0110168Y0088747D01*
X0111591Y0089336D01*
X0111852Y0089597D02*
X0125616Y0089597D01*
X0126504Y0091196D02*
X0112999Y0091196D01*
X0113268Y0092794D02*
X0119416Y0092794D01*
X0119098Y0094393D02*
X0112852Y0094393D01*
X0111364Y0095991D02*
X0116564Y0095991D01*
X0116098Y0097590D02*
X0061439Y0097590D01*
X0062200Y0095991D02*
X0107432Y0095991D01*
X0105945Y0094393D02*
X0061902Y0094393D01*
X0058389Y0092794D02*
X0100360Y0092794D01*
X0100000Y0091196D02*
X0078781Y0091196D01*
X0078674Y0091455D02*
X0079100Y0090426D01*
X0079100Y0089312D01*
X0078674Y0088283D01*
X0077886Y0087495D01*
X0076857Y0087069D01*
X0075743Y0087069D01*
X0074714Y0087495D01*
X0073926Y0088283D01*
X0073500Y0089312D01*
X0073500Y0090426D01*
X0073926Y0091455D01*
X0074714Y0092242D01*
X0075743Y0092669D01*
X0076857Y0092669D01*
X0077886Y0092242D01*
X0078674Y0091455D01*
X0079100Y0089597D02*
X0100612Y0089597D01*
X0104988Y0089597D02*
X0106945Y0089597D01*
X0107450Y0087999D02*
X0078390Y0087999D01*
X0074210Y0087999D02*
X0056030Y0087999D01*
X0057288Y0089597D02*
X0073500Y0089597D01*
X0073819Y0091196D02*
X0058411Y0091196D01*
X0047575Y0083203D02*
X0032141Y0083203D01*
X0031473Y0081605D02*
X0046800Y0081605D01*
X0047092Y0080006D02*
X0030805Y0080006D01*
X0046278Y0054430D02*
X0064996Y0054430D01*
X0036916Y0038445D02*
X0014522Y0038445D01*
X0012676Y0036846D02*
X0036000Y0036846D01*
X0036234Y0035248D02*
X0011746Y0035248D01*
X0007656Y0017664D02*
X0004600Y0017664D01*
X0004600Y0016066D02*
X0105800Y0016066D01*
X0101085Y0060824D02*
X0099073Y0060824D01*
X0105600Y0091196D02*
X0105798Y0091196D01*
X0105528Y0092794D02*
X0105240Y0092794D01*
X0125312Y0112743D02*
X0126341Y0112317D01*
X0127455Y0112317D01*
X0128484Y0112743D01*
X0129272Y0113531D01*
X0129698Y0114560D01*
X0129698Y0115674D01*
X0129272Y0116703D01*
X0128484Y0117490D01*
X0127455Y0117917D01*
X0126341Y0117917D01*
X0125312Y0117490D01*
X0124525Y0116703D01*
X0124098Y0115674D01*
X0124098Y0114560D01*
X0124525Y0113531D01*
X0125312Y0112743D01*
X0124506Y0113575D02*
X0044826Y0113575D01*
X0045494Y0115173D02*
X0124098Y0115173D01*
X0124594Y0116772D02*
X0046161Y0116772D01*
X0046829Y0118370D02*
X0116384Y0118370D01*
X0116525Y0118031D02*
X0117312Y0117243D01*
X0118341Y0116817D01*
X0119455Y0116817D01*
X0120484Y0117243D01*
X0121272Y0118031D01*
X0121698Y0119060D01*
X0121698Y0120174D01*
X0121272Y0121203D01*
X0120484Y0121990D01*
X0119455Y0122417D01*
X0118341Y0122417D01*
X0117312Y0121990D01*
X0116525Y0121203D01*
X0116098Y0120174D01*
X0116098Y0119060D01*
X0116525Y0118031D01*
X0116098Y0119969D02*
X0047496Y0119969D01*
X0048164Y0121567D02*
X0116889Y0121567D01*
X0120907Y0121567D02*
X0125598Y0121567D01*
X0125598Y0121674D02*
X0125598Y0120560D01*
X0126025Y0119531D01*
X0126812Y0118743D01*
X0127841Y0118317D01*
X0128955Y0118317D01*
X0129984Y0118743D01*
X0130772Y0119531D01*
X0131198Y0120560D01*
X0131198Y0121674D01*
X0130772Y0122703D01*
X0130323Y0123152D01*
X0130698Y0124060D01*
X0130698Y0125174D01*
X0130272Y0126203D01*
X0129484Y0126990D01*
X0128455Y0127417D01*
X0127341Y0127417D01*
X0126312Y0126990D01*
X0125525Y0126203D01*
X0125098Y0125174D01*
X0125098Y0124060D01*
X0125525Y0123031D01*
X0125974Y0122581D01*
X0125598Y0121674D01*
X0125469Y0123166D02*
X0048832Y0123166D01*
X0049499Y0124764D02*
X0125098Y0124764D01*
X0125685Y0126363D02*
X0050167Y0126363D01*
X0050835Y0127961D02*
X0134098Y0127961D01*
X0134098Y0127560D02*
X0134098Y0128674D01*
X0134525Y0129703D01*
X0135312Y0130490D01*
X0136341Y0130917D01*
X0137455Y0130917D01*
X0138484Y0130490D01*
X0139272Y0129703D01*
X0139698Y0128674D01*
X0139698Y0127560D01*
X0139272Y0126531D01*
X0138484Y0125743D01*
X0137455Y0125317D01*
X0136341Y0125317D01*
X0135312Y0125743D01*
X0134525Y0126531D01*
X0134098Y0127560D01*
X0134692Y0126363D02*
X0130112Y0126363D01*
X0130698Y0124764D02*
X0148800Y0124764D01*
X0148800Y0123166D02*
X0130328Y0123166D01*
X0131198Y0121567D02*
X0148800Y0121567D01*
X0148800Y0119969D02*
X0130954Y0119969D01*
X0129085Y0118370D02*
X0148800Y0118370D01*
X0148800Y0116772D02*
X0129203Y0116772D01*
X0129698Y0115173D02*
X0148800Y0115173D01*
X0148800Y0113575D02*
X0129290Y0113575D01*
X0127712Y0118370D02*
X0121413Y0118370D01*
X0121698Y0119969D02*
X0125843Y0119969D01*
X0134466Y0129560D02*
X0051502Y0129560D01*
X0052170Y0131158D02*
X0091550Y0131158D01*
X0091426Y0131283D02*
X0092214Y0130495D01*
X0093243Y0130069D01*
X0094357Y0130069D01*
X0095386Y0130495D01*
X0096174Y0131283D01*
X0096600Y0132312D01*
X0096600Y0133426D01*
X0096174Y0134455D01*
X0095386Y0135242D01*
X0094357Y0135669D01*
X0093243Y0135669D01*
X0092214Y0135242D01*
X0091426Y0134455D01*
X0091000Y0133426D01*
X0091000Y0132312D01*
X0091426Y0131283D01*
X0091000Y0132757D02*
X0052838Y0132757D01*
X0053505Y0134355D02*
X0091385Y0134355D01*
X0096026Y0136083D02*
X0095600Y0137112D01*
X0095600Y0138226D01*
X0096026Y0139255D01*
X0096814Y0140042D01*
X0097843Y0140469D01*
X0098957Y0140469D01*
X0099986Y0140042D01*
X0100774Y0139255D01*
X0101200Y0138226D01*
X0101200Y0137112D01*
X0100774Y0136083D01*
X0099986Y0135295D01*
X0098957Y0134869D01*
X0097843Y0134869D01*
X0096814Y0135295D01*
X0096026Y0136083D01*
X0096155Y0135954D02*
X0054173Y0135954D01*
X0054841Y0137552D02*
X0095600Y0137552D01*
X0095983Y0139151D02*
X0055508Y0139151D01*
X0056176Y0140750D02*
X0102221Y0140750D01*
X0101926Y0140455D02*
X0102714Y0141242D01*
X0103743Y0141669D01*
X0104857Y0141669D01*
X0105500Y0141402D01*
X0105500Y0142426D01*
X0105926Y0143455D01*
X0106714Y0144242D01*
X0107743Y0144669D01*
X0108857Y0144669D01*
X0109886Y0144242D01*
X0110674Y0143455D01*
X0111100Y0142426D01*
X0111100Y0141312D01*
X0110674Y0140283D01*
X0109886Y0139495D01*
X0108857Y0139069D01*
X0107743Y0139069D01*
X0107100Y0139335D01*
X0107100Y0138312D01*
X0106674Y0137283D01*
X0105886Y0136495D01*
X0104857Y0136069D01*
X0103743Y0136069D01*
X0102714Y0136495D01*
X0101926Y0137283D01*
X0101500Y0138312D01*
X0101500Y0139426D01*
X0101926Y0140455D01*
X0101500Y0139151D02*
X0100817Y0139151D01*
X0101200Y0137552D02*
X0101814Y0137552D01*
X0100645Y0135954D02*
X0117276Y0135954D01*
X0117312Y0135990D02*
X0116525Y0135203D01*
X0116098Y0134174D01*
X0116098Y0133060D01*
X0116525Y0132031D01*
X0117312Y0131243D01*
X0118341Y0130817D01*
X0119455Y0130817D01*
X0120484Y0131243D01*
X0121272Y0132031D01*
X0121698Y0133060D01*
X0121698Y0134069D01*
X0121857Y0134069D01*
X0122886Y0134495D01*
X0123674Y0135283D01*
X0124100Y0136312D01*
X0124100Y0137426D01*
X0123674Y0138455D01*
X0122886Y0139242D01*
X0121857Y0139669D01*
X0120743Y0139669D01*
X0119714Y0139242D01*
X0118926Y0138455D01*
X0118500Y0137426D01*
X0118500Y0136417D01*
X0118341Y0136417D01*
X0117312Y0135990D01*
X0116174Y0134355D02*
X0096215Y0134355D01*
X0096600Y0132757D02*
X0116224Y0132757D01*
X0117516Y0131158D02*
X0096050Y0131158D01*
X0106786Y0137552D02*
X0118553Y0137552D01*
X0119623Y0139151D02*
X0109056Y0139151D01*
X0107544Y0139151D02*
X0107100Y0139151D01*
X0105500Y0142348D02*
X0056844Y0142348D01*
X0057511Y0143947D02*
X0106418Y0143947D01*
X0110182Y0143947D02*
X0133762Y0143947D01*
X0134014Y0143695D02*
X0135043Y0143269D01*
X0136157Y0143269D01*
X0137186Y0143695D01*
X0137974Y0144483D01*
X0138400Y0145512D01*
X0138400Y0146626D01*
X0137974Y0147655D01*
X0137186Y0148442D01*
X0136157Y0148869D01*
X0135043Y0148869D01*
X0134014Y0148442D01*
X0133226Y0147655D01*
X0132800Y0146626D01*
X0132800Y0145512D01*
X0133226Y0144483D01*
X0134014Y0143695D01*
X0132800Y0145545D02*
X0118787Y0145545D01*
X0118484Y0145243D02*
X0119272Y0146031D01*
X0119698Y0147060D01*
X0119698Y0148174D01*
X0119272Y0149203D01*
X0118484Y0149990D01*
X0117455Y0150417D01*
X0116341Y0150417D01*
X0115312Y0149990D01*
X0114525Y0149203D01*
X0114098Y0148174D01*
X0114098Y0147060D01*
X0114525Y0146031D01*
X0115312Y0145243D01*
X0116341Y0144817D01*
X0117455Y0144817D01*
X0118484Y0145243D01*
X0119698Y0147144D02*
X0133015Y0147144D01*
X0134738Y0148742D02*
X0119463Y0148742D01*
X0117639Y0150341D02*
X0126784Y0150341D01*
X0126841Y0150317D02*
X0127955Y0150317D01*
X0128984Y0150743D01*
X0129772Y0151531D01*
X0130198Y0152560D01*
X0130198Y0153674D01*
X0129772Y0154703D01*
X0128984Y0155490D01*
X0127955Y0155917D01*
X0126841Y0155917D01*
X0125812Y0155490D01*
X0125025Y0154703D01*
X0124598Y0153674D01*
X0124598Y0152560D01*
X0125025Y0151531D01*
X0125812Y0150743D01*
X0126841Y0150317D01*
X0128013Y0150341D02*
X0143879Y0150341D01*
X0143500Y0148742D02*
X0136462Y0148742D01*
X0138185Y0147144D02*
X0144065Y0147144D01*
X0148535Y0147144D02*
X0148800Y0147144D01*
X0148800Y0145545D02*
X0138400Y0145545D01*
X0137438Y0143947D02*
X0148800Y0143947D01*
X0148800Y0142348D02*
X0111100Y0142348D01*
X0110867Y0140750D02*
X0148800Y0140750D01*
X0148800Y0139151D02*
X0129324Y0139151D01*
X0128984Y0139490D02*
X0129772Y0138703D01*
X0130198Y0137674D01*
X0130198Y0136560D01*
X0129772Y0135531D01*
X0128984Y0134743D01*
X0127955Y0134317D01*
X0126841Y0134317D01*
X0125812Y0134743D01*
X0125025Y0135531D01*
X0124598Y0136560D01*
X0124598Y0137674D01*
X0125025Y0138703D01*
X0125812Y0139490D01*
X0126841Y0139917D01*
X0127955Y0139917D01*
X0128984Y0139490D01*
X0130198Y0137552D02*
X0135462Y0137552D01*
X0135312Y0137490D02*
X0134525Y0136703D01*
X0134098Y0135674D01*
X0134098Y0134560D01*
X0134525Y0133531D01*
X0135312Y0132743D01*
X0136341Y0132317D01*
X0137455Y0132317D01*
X0138484Y0132743D01*
X0139272Y0133531D01*
X0139698Y0134560D01*
X0139698Y0135674D01*
X0139272Y0136703D01*
X0138484Y0137490D01*
X0137455Y0137917D01*
X0136341Y0137917D01*
X0135312Y0137490D01*
X0134215Y0135954D02*
X0129948Y0135954D01*
X0128049Y0134355D02*
X0134183Y0134355D01*
X0135298Y0132757D02*
X0121573Y0132757D01*
X0122549Y0134355D02*
X0126748Y0134355D01*
X0124849Y0135954D02*
X0123952Y0135954D01*
X0124047Y0137552D02*
X0124598Y0137552D01*
X0125473Y0139151D02*
X0122977Y0139151D01*
X0115010Y0145545D02*
X0058179Y0145545D01*
X0058847Y0147144D02*
X0114098Y0147144D01*
X0114334Y0148742D02*
X0059514Y0148742D01*
X0063732Y0150341D02*
X0116158Y0150341D01*
X0108174Y0156783D02*
X0108600Y0157812D01*
X0108600Y0158926D01*
X0108174Y0159955D01*
X0107386Y0160742D01*
X0106357Y0161169D01*
X0105243Y0161169D01*
X0104214Y0160742D01*
X0103426Y0159955D01*
X0103000Y0158926D01*
X0103000Y0157812D01*
X0103426Y0156783D01*
X0104214Y0155995D01*
X0105243Y0155569D01*
X0106357Y0155569D01*
X0107386Y0155995D01*
X0108174Y0156783D01*
X0108126Y0156735D02*
X0141974Y0156735D01*
X0141926Y0156783D02*
X0142714Y0155995D01*
X0143743Y0155569D01*
X0144857Y0155569D01*
X0145886Y0155995D01*
X0146674Y0156783D01*
X0147100Y0157812D01*
X0147100Y0158926D01*
X0146674Y0159955D01*
X0145886Y0160742D01*
X0144857Y0161169D01*
X0143743Y0161169D01*
X0142714Y0160742D01*
X0141926Y0159955D01*
X0141500Y0158926D01*
X0141500Y0157812D01*
X0141926Y0156783D01*
X0141500Y0158333D02*
X0108600Y0158333D01*
X0108183Y0159932D02*
X0141917Y0159932D01*
X0146683Y0159932D02*
X0148800Y0159932D01*
X0148800Y0161530D02*
X0102600Y0161530D01*
X0102600Y0161926D02*
X0102174Y0162955D01*
X0101386Y0163742D01*
X0100357Y0164169D01*
X0099243Y0164169D01*
X0098214Y0163742D01*
X0097426Y0162955D01*
X0097000Y0161926D01*
X0097000Y0160812D01*
X0097426Y0159783D01*
X0098214Y0158995D01*
X0099243Y0158569D01*
X0100357Y0158569D01*
X0101386Y0158995D01*
X0102174Y0159783D01*
X0102600Y0160812D01*
X0102600Y0161926D01*
X0102000Y0163129D02*
X0132180Y0163129D01*
X0131826Y0163483D02*
X0132614Y0162695D01*
X0133643Y0162269D01*
X0134757Y0162269D01*
X0135786Y0162695D01*
X0136574Y0163483D01*
X0137000Y0164512D01*
X0137000Y0165626D01*
X0136574Y0166655D01*
X0135786Y0167442D01*
X0134757Y0167869D01*
X0133643Y0167869D01*
X0132614Y0167442D01*
X0131826Y0166655D01*
X0131400Y0165626D01*
X0131400Y0164512D01*
X0131826Y0163483D01*
X0131400Y0164727D02*
X0066191Y0164727D01*
X0065523Y0163129D02*
X0097600Y0163129D01*
X0097000Y0161530D02*
X0064855Y0161530D01*
X0064188Y0159932D02*
X0097364Y0159932D01*
X0102235Y0159932D02*
X0103417Y0159932D01*
X0103000Y0158333D02*
X0063520Y0158333D01*
X0062852Y0156735D02*
X0103474Y0156735D01*
X0103414Y0169523D02*
X0104186Y0169523D01*
X0100186Y0169523D02*
X0068194Y0169523D01*
X0068861Y0171121D02*
X0099079Y0171121D01*
X0099122Y0172720D02*
X0069529Y0172720D01*
X0067526Y0167924D02*
X0148800Y0167924D01*
X0148800Y0166326D02*
X0136710Y0166326D01*
X0137000Y0164727D02*
X0148800Y0164727D01*
X0148800Y0163129D02*
X0136220Y0163129D01*
X0131690Y0166326D02*
X0066858Y0166326D01*
X0062435Y0155136D02*
X0125458Y0155136D01*
X0124598Y0153538D02*
X0064346Y0153538D01*
X0064600Y0151939D02*
X0124855Y0151939D01*
X0129941Y0151939D02*
X0146106Y0151939D01*
X0147109Y0153538D02*
X0130198Y0153538D01*
X0129339Y0155136D02*
X0148800Y0155136D01*
X0148800Y0156735D02*
X0146626Y0156735D01*
X0147100Y0158333D02*
X0148800Y0158333D01*
X0148773Y0169523D02*
X0148800Y0169523D01*
X0144191Y0172720D02*
X0108771Y0172720D01*
X0109100Y0171121D02*
X0143500Y0171121D01*
X0143827Y0169523D02*
X0108414Y0169523D01*
X0138334Y0137552D02*
X0143462Y0137552D01*
X0143312Y0137490D02*
X0142525Y0136703D01*
X0142098Y0135674D01*
X0142098Y0134560D01*
X0142525Y0133531D01*
X0143312Y0132743D01*
X0144341Y0132317D01*
X0145455Y0132317D01*
X0146484Y0132743D01*
X0147272Y0133531D01*
X0147698Y0134560D01*
X0147698Y0135674D01*
X0147272Y0136703D01*
X0146484Y0137490D01*
X0145455Y0137917D01*
X0144341Y0137917D01*
X0143312Y0137490D01*
X0142215Y0135954D02*
X0139582Y0135954D01*
X0139614Y0134355D02*
X0142183Y0134355D01*
X0143298Y0132757D02*
X0138499Y0132757D01*
X0139331Y0129560D02*
X0142466Y0129560D01*
X0142525Y0129703D02*
X0142098Y0128674D01*
X0142098Y0127560D01*
X0142525Y0126531D01*
X0143312Y0125743D01*
X0144341Y0125317D01*
X0145455Y0125317D01*
X0146484Y0125743D01*
X0147272Y0126531D01*
X0147698Y0127560D01*
X0147698Y0128674D01*
X0147272Y0129703D01*
X0146484Y0130490D01*
X0145455Y0130917D01*
X0144341Y0130917D01*
X0143312Y0130490D01*
X0142525Y0129703D01*
X0142098Y0127961D02*
X0139698Y0127961D01*
X0139104Y0126363D02*
X0142692Y0126363D01*
X0147104Y0126363D02*
X0148800Y0126363D01*
X0148800Y0127961D02*
X0147698Y0127961D01*
X0147331Y0129560D02*
X0148800Y0129560D01*
X0148800Y0131158D02*
X0120281Y0131158D01*
X0146499Y0132757D02*
X0148800Y0132757D01*
X0148800Y0134355D02*
X0147614Y0134355D01*
X0147582Y0135954D02*
X0148800Y0135954D01*
X0148800Y0137552D02*
X0146334Y0137552D01*
X0148800Y0111976D02*
X0044158Y0111976D01*
X0043491Y0110378D02*
X0148800Y0110378D01*
X0164522Y0094393D02*
X0167264Y0094393D01*
X0166400Y0092794D02*
X0150900Y0092794D01*
X0149987Y0091196D02*
X0166655Y0091196D01*
X0171136Y0094393D02*
X0176165Y0094393D01*
X0176165Y0092794D02*
X0172000Y0092794D01*
X0171745Y0091196D02*
X0176165Y0091196D01*
X0176165Y0083203D02*
X0148425Y0083203D01*
X0149526Y0081605D02*
X0176165Y0081605D01*
X0176165Y0080006D02*
X0174749Y0080006D01*
X0172851Y0080006D02*
X0149473Y0080006D01*
X0148175Y0078408D02*
X0171200Y0078408D01*
X0175602Y0075211D02*
X0176165Y0075211D01*
D13*
X0066800Y0056869D03*
X0043800Y0032369D03*
X0038800Y0053869D03*
D14*
X0038800Y0036869D02*
X0038800Y0036369D01*
X0038800Y0036869D02*
X0074800Y0036869D01*
X0072700Y0066269D01*
X0037040Y0100850D02*
X0034776Y0100850D01*
X0034776Y0100816D02*
X0034776Y0101493D01*
X0034670Y0102162D01*
X0034461Y0102806D01*
X0034154Y0103409D01*
X0033756Y0103956D01*
X0033277Y0104435D01*
X0032730Y0104833D01*
X0032328Y0105037D01*
X0030865Y0101324D01*
X0030307Y0101544D01*
X0031769Y0105256D01*
X0031483Y0105349D01*
X0030814Y0105455D01*
X0030138Y0105455D01*
X0029469Y0105349D01*
X0028825Y0105140D01*
X0028222Y0104833D01*
X0027675Y0104435D01*
X0027196Y0103956D01*
X0026798Y0103409D01*
X0026594Y0103007D01*
X0030307Y0101544D01*
X0030087Y0100986D01*
X0026375Y0102448D01*
X0026282Y0102162D01*
X0026176Y0101493D01*
X0026176Y0100816D01*
X0026282Y0100148D01*
X0026491Y0099504D01*
X0026798Y0098901D01*
X0027196Y0098354D01*
X0027675Y0097875D01*
X0028222Y0097477D01*
X0028624Y0097272D01*
X0030087Y0100986D01*
X0030645Y0100766D01*
X0029183Y0097054D01*
X0029469Y0096961D01*
X0030138Y0096855D01*
X0030814Y0096855D01*
X0031483Y0096961D01*
X0032127Y0097170D01*
X0032730Y0097477D01*
X0033277Y0097875D01*
X0033756Y0098354D01*
X0034154Y0098901D01*
X0034358Y0099303D01*
X0030645Y0100766D01*
X0030865Y0101324D01*
X0034577Y0099862D01*
X0034670Y0100148D01*
X0034776Y0100816D01*
X0034686Y0100251D02*
X0036788Y0100251D01*
X0036536Y0099653D02*
X0033471Y0099653D01*
X0033588Y0100251D02*
X0031951Y0100251D01*
X0032069Y0100850D02*
X0030678Y0100850D01*
X0030432Y0100850D02*
X0030033Y0100850D01*
X0030269Y0101448D02*
X0028913Y0101448D01*
X0029030Y0102047D02*
X0027393Y0102047D01*
X0027511Y0102645D02*
X0024277Y0102645D01*
X0024040Y0102047D02*
X0026264Y0102047D01*
X0026176Y0101448D02*
X0023802Y0101448D01*
X0023565Y0100850D02*
X0026176Y0100850D01*
X0026266Y0100251D02*
X0023327Y0100251D01*
X0023090Y0099653D02*
X0026443Y0099653D01*
X0026720Y0099054D02*
X0022852Y0099054D01*
X0022615Y0098456D02*
X0027122Y0098456D01*
X0027699Y0097857D02*
X0022377Y0097857D01*
X0022140Y0097259D02*
X0029264Y0097259D01*
X0029499Y0097857D02*
X0028855Y0097857D01*
X0029090Y0098456D02*
X0029735Y0098456D01*
X0029971Y0099054D02*
X0029326Y0099054D01*
X0029562Y0099653D02*
X0030207Y0099653D01*
X0030442Y0100251D02*
X0029798Y0100251D01*
X0030550Y0101448D02*
X0030914Y0101448D01*
X0031150Y0102047D02*
X0030505Y0102047D01*
X0030741Y0102645D02*
X0031386Y0102645D01*
X0031621Y0103244D02*
X0030976Y0103244D01*
X0031212Y0103842D02*
X0031857Y0103842D01*
X0032093Y0104441D02*
X0031448Y0104441D01*
X0031684Y0105039D02*
X0038805Y0105039D01*
X0038553Y0104441D02*
X0033269Y0104441D01*
X0033839Y0103842D02*
X0038301Y0103842D01*
X0038049Y0103244D02*
X0034238Y0103244D01*
X0034513Y0102645D02*
X0037796Y0102645D01*
X0037544Y0102047D02*
X0034688Y0102047D01*
X0034776Y0101448D02*
X0037292Y0101448D01*
X0036284Y0099054D02*
X0034232Y0099054D01*
X0033830Y0098456D02*
X0036032Y0098456D01*
X0035779Y0097857D02*
X0033253Y0097857D01*
X0032301Y0097259D02*
X0035527Y0097259D01*
X0035275Y0096660D02*
X0021902Y0096660D01*
X0021665Y0096062D02*
X0035023Y0096062D01*
X0034771Y0095463D02*
X0028281Y0095463D01*
X0027587Y0095751D02*
X0029020Y0095157D01*
X0030117Y0094060D01*
X0030711Y0092626D01*
X0030711Y0091075D01*
X0030117Y0089642D01*
X0029020Y0088544D01*
X0027587Y0087951D01*
X0026035Y0087951D01*
X0024602Y0088544D01*
X0023505Y0089642D01*
X0022911Y0091075D01*
X0022911Y0092626D01*
X0023505Y0094060D01*
X0024602Y0095157D01*
X0026035Y0095751D01*
X0027587Y0095751D01*
X0029312Y0094865D02*
X0034519Y0094865D01*
X0034267Y0094266D02*
X0029911Y0094266D01*
X0030280Y0093668D02*
X0034015Y0093668D01*
X0033762Y0093069D02*
X0030528Y0093069D01*
X0030711Y0092471D02*
X0033510Y0092471D01*
X0033258Y0091872D02*
X0030711Y0091872D01*
X0030711Y0091274D02*
X0033006Y0091274D01*
X0032754Y0090675D02*
X0030545Y0090675D01*
X0030297Y0090077D02*
X0032502Y0090077D01*
X0032250Y0089478D02*
X0029954Y0089478D01*
X0029355Y0088880D02*
X0031998Y0088880D01*
X0031745Y0088281D02*
X0028384Y0088281D01*
X0031241Y0087084D02*
X0018102Y0087084D01*
X0018339Y0087683D02*
X0031493Y0087683D01*
X0030989Y0086486D02*
X0024375Y0086486D01*
X0024439Y0086648D02*
X0024153Y0086741D01*
X0023484Y0086847D01*
X0022808Y0086847D01*
X0022139Y0086741D01*
X0021495Y0086532D01*
X0020892Y0086224D01*
X0020345Y0085826D01*
X0019866Y0085348D01*
X0019468Y0084800D01*
X0019263Y0084398D01*
X0022977Y0082936D01*
X0024439Y0086648D01*
X0024998Y0086429D02*
X0023535Y0082716D01*
X0022977Y0082936D01*
X0022757Y0082377D01*
X0023315Y0082157D01*
X0021853Y0078445D01*
X0022139Y0078352D01*
X0022808Y0078247D01*
X0023484Y0078247D01*
X0024153Y0078352D01*
X0024797Y0078562D01*
X0025400Y0078869D01*
X0025947Y0079267D01*
X0026426Y0079745D01*
X0026824Y0080293D01*
X0027028Y0080695D01*
X0023315Y0082157D01*
X0023535Y0082716D01*
X0027247Y0081253D01*
X0027340Y0081540D01*
X0027446Y0082208D01*
X0027446Y0082885D01*
X0027340Y0083553D01*
X0027131Y0084197D01*
X0026824Y0084800D01*
X0026426Y0085348D01*
X0025947Y0085826D01*
X0025400Y0086224D01*
X0024998Y0086429D01*
X0024784Y0085887D02*
X0024139Y0085887D01*
X0023904Y0085288D02*
X0024548Y0085288D01*
X0024313Y0084690D02*
X0023668Y0084690D01*
X0023432Y0084091D02*
X0024077Y0084091D01*
X0023841Y0083493D02*
X0023196Y0083493D01*
X0023081Y0082894D02*
X0023605Y0082894D01*
X0023370Y0082296D02*
X0024601Y0082296D01*
X0024483Y0081697D02*
X0026120Y0081697D01*
X0026003Y0081099D02*
X0028720Y0081099D01*
X0028972Y0081697D02*
X0027365Y0081697D01*
X0027446Y0082296D02*
X0029224Y0082296D01*
X0029476Y0082894D02*
X0027444Y0082894D01*
X0027350Y0083493D02*
X0029728Y0083493D01*
X0029980Y0084091D02*
X0027165Y0084091D01*
X0026880Y0084690D02*
X0030233Y0084690D01*
X0030485Y0085288D02*
X0026469Y0085288D01*
X0025864Y0085887D02*
X0030737Y0085887D01*
X0028468Y0080500D02*
X0026929Y0080500D01*
X0026540Y0079902D02*
X0028216Y0079902D01*
X0027963Y0079303D02*
X0025984Y0079303D01*
X0025078Y0078705D02*
X0027711Y0078705D01*
X0027459Y0078106D02*
X0014539Y0078106D01*
X0014302Y0077508D02*
X0027207Y0077508D01*
X0026955Y0076909D02*
X0020819Y0076909D01*
X0020257Y0077142D02*
X0021690Y0076549D01*
X0022787Y0075452D01*
X0023381Y0074018D01*
X0023381Y0072467D01*
X0022787Y0071033D01*
X0021690Y0069936D01*
X0020257Y0069342D01*
X0018705Y0069342D01*
X0017272Y0069936D01*
X0016175Y0071033D01*
X0015581Y0072467D01*
X0015581Y0074018D01*
X0016175Y0075452D01*
X0017272Y0076549D01*
X0018705Y0077142D01*
X0020257Y0077142D01*
X0021214Y0078705D02*
X0014777Y0078705D01*
X0015014Y0079303D02*
X0020308Y0079303D01*
X0020345Y0079267D02*
X0020892Y0078869D01*
X0021294Y0078664D01*
X0022757Y0082377D01*
X0019045Y0083840D01*
X0018952Y0083553D01*
X0018846Y0082885D01*
X0018846Y0082208D01*
X0018952Y0081540D01*
X0019161Y0080896D01*
X0019468Y0080293D01*
X0019866Y0079745D01*
X0020345Y0079267D01*
X0019752Y0079902D02*
X0015252Y0079902D01*
X0015489Y0080500D02*
X0019363Y0080500D01*
X0019095Y0081099D02*
X0015727Y0081099D01*
X0015964Y0081697D02*
X0018927Y0081697D01*
X0018846Y0082296D02*
X0016202Y0082296D01*
X0016439Y0082894D02*
X0018847Y0082894D01*
X0018942Y0083493D02*
X0016677Y0083493D01*
X0016914Y0084091D02*
X0020042Y0084091D01*
X0019925Y0083493D02*
X0021562Y0083493D01*
X0021444Y0082894D02*
X0022961Y0082894D01*
X0022964Y0082296D02*
X0022725Y0082296D01*
X0022489Y0081697D02*
X0023134Y0081697D01*
X0022898Y0081099D02*
X0022253Y0081099D01*
X0022018Y0080500D02*
X0022662Y0080500D01*
X0022427Y0079902D02*
X0021782Y0079902D01*
X0021546Y0079303D02*
X0022191Y0079303D01*
X0021955Y0078705D02*
X0021310Y0078705D01*
X0021928Y0076311D02*
X0026703Y0076311D01*
X0026451Y0075712D02*
X0022526Y0075712D01*
X0022927Y0075114D02*
X0026199Y0075114D01*
X0025946Y0074515D02*
X0023175Y0074515D01*
X0023381Y0073917D02*
X0025694Y0073917D01*
X0025442Y0073318D02*
X0023381Y0073318D01*
X0023381Y0072720D02*
X0025190Y0072720D01*
X0024938Y0072121D02*
X0023238Y0072121D01*
X0022990Y0071523D02*
X0024686Y0071523D01*
X0024434Y0070924D02*
X0022678Y0070924D01*
X0022080Y0070326D02*
X0024182Y0070326D01*
X0023929Y0069727D02*
X0021186Y0069727D01*
X0023425Y0068530D02*
X0010739Y0068530D01*
X0010502Y0067932D02*
X0023173Y0067932D01*
X0022921Y0067333D02*
X0017811Y0067333D01*
X0018025Y0067244D02*
X0016592Y0067838D01*
X0015040Y0067838D01*
X0013607Y0067244D01*
X0012510Y0066147D01*
X0011916Y0064714D01*
X0011916Y0063162D01*
X0012510Y0061729D01*
X0013607Y0060632D01*
X0015040Y0060038D01*
X0016592Y0060038D01*
X0018025Y0060632D01*
X0019122Y0061729D01*
X0019716Y0063162D01*
X0019716Y0064714D01*
X0019122Y0066147D01*
X0018025Y0067244D01*
X0018535Y0066735D02*
X0022669Y0066735D01*
X0022417Y0066136D02*
X0019127Y0066136D01*
X0019375Y0065538D02*
X0022165Y0065538D01*
X0021912Y0064939D02*
X0019623Y0064939D01*
X0019716Y0064341D02*
X0021660Y0064341D01*
X0021408Y0063742D02*
X0019716Y0063742D01*
X0019708Y0063144D02*
X0021156Y0063144D01*
X0020904Y0062545D02*
X0019460Y0062545D01*
X0019212Y0061947D02*
X0020652Y0061947D01*
X0020400Y0061348D02*
X0018741Y0061348D01*
X0018143Y0060750D02*
X0020147Y0060750D01*
X0019895Y0060151D02*
X0016864Y0060151D01*
X0014768Y0060151D02*
X0007414Y0060151D01*
X0007177Y0059552D02*
X0019643Y0059552D01*
X0019391Y0058954D02*
X0006939Y0058954D01*
X0006702Y0058355D02*
X0009983Y0058355D01*
X0009897Y0058312D02*
X0009350Y0057914D01*
X0008871Y0057435D01*
X0008473Y0056888D01*
X0008268Y0056486D01*
X0011982Y0055023D01*
X0013444Y0058735D01*
X0013158Y0058828D01*
X0012489Y0058934D01*
X0011813Y0058934D01*
X0011144Y0058828D01*
X0010500Y0058619D01*
X0009897Y0058312D01*
X0009193Y0057757D02*
X0006464Y0057757D01*
X0006227Y0057158D02*
X0008670Y0057158D01*
X0008306Y0056560D02*
X0005989Y0056560D01*
X0005752Y0055961D02*
X0009600Y0055961D01*
X0009482Y0055363D02*
X0011119Y0055363D01*
X0011001Y0054764D02*
X0011880Y0054764D01*
X0011982Y0055023D02*
X0011762Y0054465D01*
X0008050Y0055927D01*
X0007957Y0055641D01*
X0007851Y0054972D01*
X0007851Y0054296D01*
X0007957Y0053627D01*
X0008166Y0052983D01*
X0008473Y0052380D01*
X0008871Y0051833D01*
X0009350Y0051354D01*
X0009897Y0050956D01*
X0010299Y0050752D01*
X0011762Y0054465D01*
X0012320Y0054245D01*
X0010858Y0050533D01*
X0011144Y0050440D01*
X0011813Y0050334D01*
X0012489Y0050334D01*
X0013158Y0050440D01*
X0013802Y0050649D01*
X0014405Y0050956D01*
X0014952Y0051354D01*
X0015431Y0051833D01*
X0015829Y0052380D01*
X0016033Y0052782D01*
X0012320Y0054245D01*
X0012540Y0054803D01*
X0016252Y0053341D01*
X0016345Y0053627D01*
X0016451Y0054296D01*
X0016451Y0054972D01*
X0016345Y0055641D01*
X0016136Y0056285D01*
X0015829Y0056888D01*
X0015431Y0057435D01*
X0014952Y0057914D01*
X0014405Y0058312D01*
X0014003Y0058516D01*
X0012540Y0054803D01*
X0011982Y0055023D01*
X0012116Y0055363D02*
X0012760Y0055363D01*
X0012638Y0054764D02*
X0012525Y0054764D01*
X0012521Y0054166D02*
X0014158Y0054166D01*
X0014040Y0053567D02*
X0015677Y0053567D01*
X0015560Y0052969D02*
X0016870Y0052969D01*
X0017122Y0053567D02*
X0016326Y0053567D01*
X0016430Y0054166D02*
X0017374Y0054166D01*
X0017626Y0054764D02*
X0016451Y0054764D01*
X0016389Y0055363D02*
X0017878Y0055363D01*
X0018130Y0055961D02*
X0016241Y0055961D01*
X0015996Y0056560D02*
X0018383Y0056560D01*
X0018635Y0057158D02*
X0015632Y0057158D01*
X0015109Y0057757D02*
X0018887Y0057757D01*
X0019139Y0058355D02*
X0014319Y0058355D01*
X0013939Y0058355D02*
X0013294Y0058355D01*
X0013059Y0057757D02*
X0013704Y0057757D01*
X0013468Y0057158D02*
X0012823Y0057158D01*
X0012587Y0056560D02*
X0013232Y0056560D01*
X0012996Y0055961D02*
X0012351Y0055961D01*
X0012289Y0054166D02*
X0011644Y0054166D01*
X0011408Y0053567D02*
X0012053Y0053567D01*
X0011817Y0052969D02*
X0011173Y0052969D01*
X0010937Y0052370D02*
X0011582Y0052370D01*
X0011346Y0051772D02*
X0010701Y0051772D01*
X0010465Y0051173D02*
X0011110Y0051173D01*
X0010874Y0050575D02*
X0006146Y0050575D01*
X0004830Y0051173D02*
X0009599Y0051173D01*
X0008932Y0051772D02*
X0004100Y0051772D01*
X0004100Y0051799D02*
X0052574Y0173954D01*
X0067800Y0173954D01*
X0067800Y0173869D01*
X0014300Y0046869D01*
X0004100Y0051505D01*
X0004100Y0051799D01*
X0004327Y0052370D02*
X0008480Y0052370D01*
X0008173Y0052969D02*
X0004564Y0052969D01*
X0004802Y0053567D02*
X0007976Y0053567D01*
X0007871Y0054166D02*
X0005039Y0054166D01*
X0005277Y0054764D02*
X0007851Y0054764D01*
X0007913Y0055363D02*
X0005514Y0055363D01*
X0007463Y0049976D02*
X0015609Y0049976D01*
X0015357Y0049378D02*
X0008780Y0049378D01*
X0010097Y0048779D02*
X0015105Y0048779D01*
X0014853Y0048181D02*
X0011413Y0048181D01*
X0012730Y0047582D02*
X0014601Y0047582D01*
X0014349Y0046984D02*
X0014047Y0046984D01*
X0013573Y0050575D02*
X0015861Y0050575D01*
X0016113Y0051173D02*
X0014703Y0051173D01*
X0015370Y0051772D02*
X0016366Y0051772D01*
X0016618Y0052370D02*
X0015821Y0052370D01*
X0013489Y0060750D02*
X0007652Y0060750D01*
X0007889Y0061348D02*
X0012891Y0061348D01*
X0012420Y0061947D02*
X0008127Y0061947D01*
X0008364Y0062545D02*
X0012172Y0062545D01*
X0011924Y0063144D02*
X0008602Y0063144D01*
X0008839Y0063742D02*
X0011916Y0063742D01*
X0011916Y0064341D02*
X0009077Y0064341D01*
X0009314Y0064939D02*
X0012009Y0064939D01*
X0012257Y0065538D02*
X0009552Y0065538D01*
X0009789Y0066136D02*
X0012505Y0066136D01*
X0013097Y0066735D02*
X0010027Y0066735D01*
X0010264Y0067333D02*
X0013821Y0067333D01*
X0010977Y0069129D02*
X0023677Y0069129D01*
X0017776Y0069727D02*
X0011214Y0069727D01*
X0011452Y0070326D02*
X0016882Y0070326D01*
X0016284Y0070924D02*
X0011689Y0070924D01*
X0011927Y0071523D02*
X0015972Y0071523D01*
X0015724Y0072121D02*
X0012164Y0072121D01*
X0012402Y0072720D02*
X0015581Y0072720D01*
X0015581Y0073318D02*
X0012639Y0073318D01*
X0012877Y0073917D02*
X0015581Y0073917D01*
X0015787Y0074515D02*
X0013114Y0074515D01*
X0013352Y0075114D02*
X0016035Y0075114D01*
X0016435Y0075712D02*
X0013589Y0075712D01*
X0013827Y0076311D02*
X0017034Y0076311D01*
X0018143Y0076909D02*
X0014064Y0076909D01*
X0017152Y0084690D02*
X0019412Y0084690D01*
X0019823Y0085288D02*
X0017389Y0085288D01*
X0017627Y0085887D02*
X0020428Y0085887D01*
X0021405Y0086486D02*
X0017864Y0086486D01*
X0018577Y0088281D02*
X0025238Y0088281D01*
X0024267Y0088880D02*
X0018814Y0088880D01*
X0019052Y0089478D02*
X0023668Y0089478D01*
X0023325Y0090077D02*
X0019289Y0090077D01*
X0019527Y0090675D02*
X0023077Y0090675D01*
X0022911Y0091274D02*
X0019764Y0091274D01*
X0020002Y0091872D02*
X0022911Y0091872D01*
X0022911Y0092471D02*
X0020240Y0092471D01*
X0020477Y0093069D02*
X0023094Y0093069D01*
X0023342Y0093668D02*
X0020715Y0093668D01*
X0020952Y0094266D02*
X0023711Y0094266D01*
X0024310Y0094865D02*
X0021190Y0094865D01*
X0021427Y0095463D02*
X0025341Y0095463D01*
X0024515Y0103244D02*
X0026714Y0103244D01*
X0027113Y0103842D02*
X0024752Y0103842D01*
X0024990Y0104441D02*
X0027683Y0104441D01*
X0028628Y0105039D02*
X0025227Y0105039D01*
X0025465Y0105638D02*
X0039057Y0105638D01*
X0039309Y0106236D02*
X0025702Y0106236D01*
X0025940Y0106835D02*
X0032699Y0106835D01*
X0033365Y0106559D02*
X0031932Y0107153D01*
X0030835Y0108250D01*
X0030241Y0109683D01*
X0030241Y0111235D01*
X0030835Y0112668D01*
X0031932Y0113765D01*
X0033365Y0114359D01*
X0034917Y0114359D01*
X0036350Y0113765D01*
X0037447Y0112668D01*
X0038041Y0111235D01*
X0038041Y0109683D01*
X0037447Y0108250D01*
X0036350Y0107153D01*
X0034917Y0106559D01*
X0033365Y0106559D01*
X0031651Y0107433D02*
X0026177Y0107433D01*
X0026415Y0108032D02*
X0031053Y0108032D01*
X0030677Y0108630D02*
X0026652Y0108630D01*
X0026890Y0109229D02*
X0030429Y0109229D01*
X0030241Y0109827D02*
X0027127Y0109827D01*
X0027365Y0110426D02*
X0030241Y0110426D01*
X0030241Y0111024D02*
X0027602Y0111024D01*
X0027840Y0111623D02*
X0030402Y0111623D01*
X0030650Y0112221D02*
X0028077Y0112221D01*
X0028315Y0112820D02*
X0030987Y0112820D01*
X0031585Y0113419D02*
X0028552Y0113419D01*
X0028790Y0114017D02*
X0032540Y0114017D01*
X0035005Y0116483D02*
X0035552Y0116086D01*
X0035954Y0115881D01*
X0037417Y0119594D01*
X0037975Y0119374D01*
X0036513Y0115662D01*
X0036799Y0115569D01*
X0037468Y0115463D01*
X0038144Y0115463D01*
X0038813Y0115569D01*
X0039457Y0115778D01*
X0040060Y0116086D01*
X0040607Y0116483D01*
X0041086Y0116962D01*
X0041484Y0117510D01*
X0041688Y0117911D01*
X0037975Y0119374D01*
X0038195Y0119932D01*
X0041907Y0118470D01*
X0042000Y0118756D01*
X0042106Y0119425D01*
X0042106Y0120102D01*
X0042000Y0120770D01*
X0041791Y0121414D01*
X0041484Y0122017D01*
X0041086Y0122565D01*
X0040607Y0123043D01*
X0040060Y0123441D01*
X0039658Y0123646D01*
X0038195Y0119932D01*
X0037637Y0120152D01*
X0037417Y0119594D01*
X0033705Y0121056D01*
X0033612Y0120770D01*
X0033506Y0120102D01*
X0033506Y0119425D01*
X0033612Y0118756D01*
X0033821Y0118113D01*
X0034128Y0117510D01*
X0034526Y0116962D01*
X0035005Y0116483D01*
X0035104Y0116411D02*
X0029740Y0116411D01*
X0029977Y0117010D02*
X0034492Y0117010D01*
X0034078Y0117608D02*
X0030215Y0117608D01*
X0030452Y0118207D02*
X0033791Y0118207D01*
X0033604Y0118805D02*
X0030690Y0118805D01*
X0030927Y0119404D02*
X0033509Y0119404D01*
X0033506Y0120002D02*
X0031165Y0120002D01*
X0031402Y0120601D02*
X0033585Y0120601D01*
X0033924Y0121615D02*
X0037637Y0120152D01*
X0039099Y0123864D01*
X0038813Y0123957D01*
X0038144Y0124063D01*
X0037468Y0124063D01*
X0036799Y0123957D01*
X0036155Y0123748D01*
X0035552Y0123441D01*
X0035005Y0123043D01*
X0034526Y0122565D01*
X0034128Y0122017D01*
X0033924Y0121615D01*
X0034017Y0121798D02*
X0031877Y0121798D01*
X0032115Y0122396D02*
X0034404Y0122396D01*
X0034956Y0122995D02*
X0032352Y0122995D01*
X0032590Y0123593D02*
X0035851Y0123593D01*
X0034979Y0121199D02*
X0031640Y0121199D01*
X0034862Y0120601D02*
X0036499Y0120601D01*
X0036381Y0120002D02*
X0037578Y0120002D01*
X0038018Y0120002D02*
X0038223Y0120002D01*
X0038458Y0120601D02*
X0037813Y0120601D01*
X0038049Y0121199D02*
X0038694Y0121199D01*
X0038930Y0121798D02*
X0038285Y0121798D01*
X0038521Y0122396D02*
X0039166Y0122396D01*
X0039401Y0122995D02*
X0038756Y0122995D01*
X0038992Y0123593D02*
X0039637Y0123593D01*
X0039761Y0123593D02*
X0046621Y0123593D01*
X0046369Y0122995D02*
X0040656Y0122995D01*
X0041208Y0122396D02*
X0046117Y0122396D01*
X0045865Y0121798D02*
X0041595Y0121798D01*
X0041861Y0121199D02*
X0045612Y0121199D01*
X0045360Y0120601D02*
X0042027Y0120601D01*
X0042106Y0120002D02*
X0045108Y0120002D01*
X0044856Y0119404D02*
X0042103Y0119404D01*
X0042008Y0118805D02*
X0044604Y0118805D01*
X0044352Y0118207D02*
X0040939Y0118207D01*
X0041057Y0118805D02*
X0039420Y0118805D01*
X0039537Y0119404D02*
X0037987Y0119404D01*
X0037900Y0119404D02*
X0037342Y0119404D01*
X0037106Y0118805D02*
X0037751Y0118805D01*
X0037515Y0118207D02*
X0036870Y0118207D01*
X0036635Y0117608D02*
X0037280Y0117608D01*
X0037044Y0117010D02*
X0036399Y0117010D01*
X0036163Y0116411D02*
X0036808Y0116411D01*
X0036572Y0115813D02*
X0029502Y0115813D01*
X0029265Y0115214D02*
X0043091Y0115214D01*
X0042839Y0114616D02*
X0029027Y0114616D01*
X0035743Y0114017D02*
X0042587Y0114017D01*
X0042335Y0113419D02*
X0036697Y0113419D01*
X0037296Y0112820D02*
X0042083Y0112820D01*
X0041831Y0112221D02*
X0037632Y0112221D01*
X0037880Y0111623D02*
X0041578Y0111623D01*
X0041326Y0111024D02*
X0038041Y0111024D01*
X0038041Y0110426D02*
X0041074Y0110426D01*
X0040822Y0109827D02*
X0038041Y0109827D01*
X0037853Y0109229D02*
X0040570Y0109229D01*
X0040318Y0108630D02*
X0037605Y0108630D01*
X0037229Y0108032D02*
X0040066Y0108032D01*
X0039814Y0107433D02*
X0036631Y0107433D01*
X0035583Y0106835D02*
X0039561Y0106835D01*
X0039524Y0115813D02*
X0043343Y0115813D01*
X0043595Y0116411D02*
X0040508Y0116411D01*
X0041120Y0117010D02*
X0043848Y0117010D01*
X0044100Y0117608D02*
X0041534Y0117608D01*
X0042247Y0125167D02*
X0043680Y0125761D01*
X0044777Y0126858D01*
X0045371Y0128292D01*
X0045371Y0129843D01*
X0044777Y0131277D01*
X0043680Y0132374D01*
X0042247Y0132967D01*
X0040695Y0132967D01*
X0039262Y0132374D01*
X0038165Y0131277D01*
X0037571Y0129843D01*
X0037571Y0128292D01*
X0038165Y0126858D01*
X0039262Y0125761D01*
X0040695Y0125167D01*
X0042247Y0125167D01*
X0042781Y0125389D02*
X0047377Y0125389D01*
X0047630Y0125987D02*
X0043906Y0125987D01*
X0044505Y0126586D02*
X0047882Y0126586D01*
X0048134Y0127184D02*
X0044912Y0127184D01*
X0045160Y0127783D02*
X0048386Y0127783D01*
X0048638Y0128381D02*
X0045371Y0128381D01*
X0045371Y0128980D02*
X0048890Y0128980D01*
X0049142Y0129578D02*
X0045371Y0129578D01*
X0045233Y0130177D02*
X0049394Y0130177D01*
X0049647Y0130775D02*
X0044985Y0130775D01*
X0044680Y0131374D02*
X0049899Y0131374D01*
X0050151Y0131972D02*
X0044082Y0131972D01*
X0043204Y0132571D02*
X0050403Y0132571D01*
X0050655Y0133169D02*
X0036390Y0133169D01*
X0036152Y0132571D02*
X0039738Y0132571D01*
X0038861Y0131972D02*
X0035915Y0131972D01*
X0035677Y0131374D02*
X0038262Y0131374D01*
X0037957Y0130775D02*
X0035440Y0130775D01*
X0035202Y0130177D02*
X0037709Y0130177D01*
X0037571Y0129578D02*
X0034965Y0129578D01*
X0034727Y0128980D02*
X0037571Y0128980D01*
X0037571Y0128381D02*
X0034490Y0128381D01*
X0034252Y0127783D02*
X0037782Y0127783D01*
X0038030Y0127184D02*
X0034015Y0127184D01*
X0033777Y0126586D02*
X0038437Y0126586D01*
X0039036Y0125987D02*
X0033540Y0125987D01*
X0033302Y0125389D02*
X0040161Y0125389D01*
X0046873Y0124192D02*
X0032827Y0124192D01*
X0033065Y0124790D02*
X0047125Y0124790D01*
X0045474Y0134072D02*
X0046143Y0134177D01*
X0046787Y0134387D01*
X0047390Y0134694D01*
X0047937Y0135092D01*
X0048416Y0135570D01*
X0048814Y0136118D01*
X0049019Y0136520D01*
X0045305Y0137983D01*
X0045525Y0138541D01*
X0044967Y0138761D01*
X0046429Y0142473D01*
X0046143Y0142566D01*
X0045474Y0142672D01*
X0044798Y0142672D01*
X0044129Y0142566D01*
X0043485Y0142357D01*
X0042882Y0142049D01*
X0042335Y0141651D01*
X0041856Y0141173D01*
X0041458Y0140625D01*
X0041254Y0140223D01*
X0044967Y0138761D01*
X0044747Y0138202D01*
X0045305Y0137982D01*
X0043843Y0134270D01*
X0044129Y0134177D01*
X0044798Y0134072D01*
X0045474Y0134072D01*
X0046724Y0134366D02*
X0051159Y0134366D01*
X0050907Y0133768D02*
X0036627Y0133768D01*
X0036865Y0134366D02*
X0043881Y0134366D01*
X0043284Y0134489D02*
X0044747Y0138202D01*
X0041035Y0139665D01*
X0040942Y0139379D01*
X0040836Y0138710D01*
X0040836Y0138033D01*
X0040942Y0137365D01*
X0041151Y0136721D01*
X0041458Y0136118D01*
X0041856Y0135570D01*
X0042335Y0135092D01*
X0042882Y0134694D01*
X0043284Y0134489D01*
X0043472Y0134965D02*
X0044117Y0134965D01*
X0044352Y0135563D02*
X0043707Y0135563D01*
X0043943Y0136162D02*
X0044588Y0136162D01*
X0044824Y0136760D02*
X0044179Y0136760D01*
X0044415Y0137359D02*
X0045060Y0137359D01*
X0045295Y0137957D02*
X0044651Y0137957D01*
X0044886Y0138556D02*
X0043849Y0138556D01*
X0043967Y0139155D02*
X0042330Y0139155D01*
X0042448Y0139753D02*
X0039002Y0139753D01*
X0038765Y0139155D02*
X0040906Y0139155D01*
X0040836Y0138556D02*
X0038527Y0138556D01*
X0038290Y0137957D02*
X0040848Y0137957D01*
X0040944Y0137359D02*
X0038052Y0137359D01*
X0037815Y0136760D02*
X0041138Y0136760D01*
X0041436Y0136162D02*
X0037577Y0136162D01*
X0037340Y0135563D02*
X0041863Y0135563D01*
X0042509Y0134965D02*
X0037102Y0134965D01*
X0039240Y0140352D02*
X0041319Y0140352D01*
X0041694Y0140950D02*
X0039477Y0140950D01*
X0039715Y0141549D02*
X0042232Y0141549D01*
X0043074Y0142147D02*
X0039952Y0142147D01*
X0040190Y0142746D02*
X0054689Y0142746D01*
X0054941Y0143344D02*
X0040427Y0143344D01*
X0040665Y0143943D02*
X0047623Y0143943D01*
X0048025Y0143776D02*
X0046592Y0144370D01*
X0045495Y0145467D01*
X0044901Y0146900D01*
X0044901Y0148452D01*
X0045495Y0149885D01*
X0046592Y0150982D01*
X0048025Y0151576D01*
X0049577Y0151576D01*
X0051010Y0150982D01*
X0052107Y0149885D01*
X0052701Y0148452D01*
X0052701Y0146900D01*
X0052107Y0145467D01*
X0051010Y0144370D01*
X0049577Y0143776D01*
X0048025Y0143776D01*
X0046420Y0144541D02*
X0040902Y0144541D01*
X0041140Y0145140D02*
X0045822Y0145140D01*
X0045382Y0145738D02*
X0041377Y0145738D01*
X0041615Y0146337D02*
X0045134Y0146337D01*
X0044901Y0146935D02*
X0041852Y0146935D01*
X0042090Y0147534D02*
X0044901Y0147534D01*
X0044901Y0148132D02*
X0042327Y0148132D01*
X0042565Y0148731D02*
X0045017Y0148731D01*
X0045265Y0149329D02*
X0042802Y0149329D01*
X0043040Y0149928D02*
X0045538Y0149928D01*
X0046136Y0150526D02*
X0043277Y0150526D01*
X0043515Y0151125D02*
X0046936Y0151125D01*
X0043990Y0152322D02*
X0058723Y0152322D01*
X0058975Y0152920D02*
X0053887Y0152920D01*
X0054117Y0152995D02*
X0054720Y0153302D01*
X0055267Y0153700D01*
X0055746Y0154179D01*
X0056144Y0154726D01*
X0056349Y0155128D01*
X0052635Y0156591D01*
X0051173Y0152879D01*
X0051459Y0152786D01*
X0052128Y0152680D01*
X0052804Y0152680D01*
X0053473Y0152786D01*
X0054117Y0152995D01*
X0055018Y0153519D02*
X0059227Y0153519D01*
X0059480Y0154117D02*
X0055685Y0154117D01*
X0056136Y0154716D02*
X0059732Y0154716D01*
X0059984Y0155314D02*
X0055876Y0155314D01*
X0055994Y0155913D02*
X0054357Y0155913D01*
X0054474Y0156511D02*
X0052837Y0156511D01*
X0052635Y0156591D02*
X0052855Y0157149D01*
X0056567Y0155687D01*
X0056660Y0155973D01*
X0056766Y0156642D01*
X0056766Y0157318D01*
X0056660Y0157987D01*
X0056451Y0158631D01*
X0056144Y0159234D01*
X0055746Y0159781D01*
X0055267Y0160260D01*
X0054720Y0160658D01*
X0054318Y0160862D01*
X0052855Y0157149D01*
X0052297Y0157369D01*
X0053759Y0161081D01*
X0053473Y0161174D01*
X0052804Y0161280D01*
X0052128Y0161280D01*
X0051459Y0161174D01*
X0050815Y0160965D01*
X0050212Y0160658D01*
X0049665Y0160260D01*
X0049186Y0159781D01*
X0048788Y0159234D01*
X0048584Y0158832D01*
X0052297Y0157369D01*
X0052077Y0156811D01*
X0048365Y0158273D01*
X0048272Y0157987D01*
X0048166Y0157318D01*
X0048166Y0156642D01*
X0048272Y0155973D01*
X0048481Y0155329D01*
X0048788Y0154726D01*
X0049186Y0154179D01*
X0049665Y0153700D01*
X0050212Y0153302D01*
X0050614Y0153097D01*
X0052077Y0156811D01*
X0052635Y0156591D01*
X0052604Y0156511D02*
X0051959Y0156511D01*
X0051723Y0155913D02*
X0052368Y0155913D01*
X0052132Y0155314D02*
X0051488Y0155314D01*
X0051252Y0154716D02*
X0051897Y0154716D01*
X0051661Y0154117D02*
X0051016Y0154117D01*
X0050780Y0153519D02*
X0051425Y0153519D01*
X0051189Y0152920D02*
X0044227Y0152920D01*
X0044465Y0153519D02*
X0049914Y0153519D01*
X0049248Y0154117D02*
X0044702Y0154117D01*
X0044940Y0154716D02*
X0048796Y0154716D01*
X0048489Y0155314D02*
X0045177Y0155314D01*
X0045415Y0155913D02*
X0048292Y0155913D01*
X0048187Y0156511D02*
X0045652Y0156511D01*
X0045890Y0157110D02*
X0048166Y0157110D01*
X0048228Y0157708D02*
X0046127Y0157708D01*
X0046365Y0158307D02*
X0049916Y0158307D01*
X0049798Y0157708D02*
X0051435Y0157708D01*
X0051318Y0157110D02*
X0052195Y0157110D01*
X0052431Y0157708D02*
X0053075Y0157708D01*
X0052955Y0157110D02*
X0052840Y0157110D01*
X0052666Y0158307D02*
X0053311Y0158307D01*
X0053547Y0158905D02*
X0052902Y0158905D01*
X0053138Y0159504D02*
X0053783Y0159504D01*
X0054018Y0160102D02*
X0053374Y0160102D01*
X0053609Y0160701D02*
X0054254Y0160701D01*
X0054635Y0160701D02*
X0062253Y0160701D01*
X0062505Y0161299D02*
X0047553Y0161299D01*
X0047315Y0160701D02*
X0050297Y0160701D01*
X0049507Y0160102D02*
X0047078Y0160102D01*
X0046840Y0159504D02*
X0048985Y0159504D01*
X0048621Y0158905D02*
X0046602Y0158905D01*
X0047790Y0161898D02*
X0062757Y0161898D01*
X0063009Y0162496D02*
X0057178Y0162496D01*
X0056907Y0162384D02*
X0058340Y0162978D01*
X0059437Y0164075D01*
X0060031Y0165508D01*
X0060031Y0167060D01*
X0059437Y0168493D01*
X0058340Y0169590D01*
X0056907Y0170184D01*
X0055355Y0170184D01*
X0053922Y0169590D01*
X0052825Y0168493D01*
X0052231Y0167060D01*
X0052231Y0165508D01*
X0052825Y0164075D01*
X0053922Y0162978D01*
X0055355Y0162384D01*
X0056907Y0162384D01*
X0058457Y0163095D02*
X0063261Y0163095D01*
X0063514Y0163693D02*
X0059056Y0163693D01*
X0059527Y0164292D02*
X0063766Y0164292D01*
X0064018Y0164890D02*
X0059775Y0164890D01*
X0060023Y0165489D02*
X0064270Y0165489D01*
X0064522Y0166088D02*
X0060031Y0166088D01*
X0060031Y0166686D02*
X0064774Y0166686D01*
X0065026Y0167285D02*
X0059938Y0167285D01*
X0059690Y0167883D02*
X0065279Y0167883D01*
X0065531Y0168482D02*
X0059442Y0168482D01*
X0058851Y0169080D02*
X0065783Y0169080D01*
X0066035Y0169679D02*
X0058127Y0169679D01*
X0054135Y0169679D02*
X0050878Y0169679D01*
X0051115Y0170277D02*
X0066287Y0170277D01*
X0066539Y0170876D02*
X0051353Y0170876D01*
X0051590Y0171474D02*
X0066791Y0171474D01*
X0067043Y0172073D02*
X0051828Y0172073D01*
X0052065Y0172671D02*
X0067296Y0172671D01*
X0067548Y0173270D02*
X0052303Y0173270D01*
X0052540Y0173868D02*
X0067800Y0173868D01*
X0055084Y0162496D02*
X0048028Y0162496D01*
X0048265Y0163095D02*
X0053805Y0163095D01*
X0053206Y0163693D02*
X0048503Y0163693D01*
X0048740Y0164292D02*
X0052735Y0164292D01*
X0052487Y0164890D02*
X0048978Y0164890D01*
X0049215Y0165489D02*
X0052239Y0165489D01*
X0052231Y0166088D02*
X0049453Y0166088D01*
X0049690Y0166686D02*
X0052231Y0166686D01*
X0052324Y0167285D02*
X0049928Y0167285D01*
X0050165Y0167883D02*
X0052572Y0167883D01*
X0052820Y0168482D02*
X0050403Y0168482D01*
X0050640Y0169080D02*
X0053412Y0169080D01*
X0055425Y0160102D02*
X0062001Y0160102D01*
X0061749Y0159504D02*
X0055947Y0159504D01*
X0056311Y0158905D02*
X0061497Y0158905D01*
X0061244Y0158307D02*
X0056556Y0158307D01*
X0056704Y0157708D02*
X0060992Y0157708D01*
X0060740Y0157110D02*
X0056766Y0157110D01*
X0056745Y0156511D02*
X0060488Y0156511D01*
X0060236Y0155913D02*
X0056641Y0155913D01*
X0058471Y0151723D02*
X0043752Y0151723D01*
X0050666Y0151125D02*
X0058219Y0151125D01*
X0057967Y0150526D02*
X0051466Y0150526D01*
X0052065Y0149928D02*
X0057715Y0149928D01*
X0057463Y0149329D02*
X0052338Y0149329D01*
X0052585Y0148731D02*
X0057210Y0148731D01*
X0056958Y0148132D02*
X0052701Y0148132D01*
X0052701Y0147534D02*
X0056706Y0147534D01*
X0056454Y0146935D02*
X0052701Y0146935D01*
X0052468Y0146337D02*
X0056202Y0146337D01*
X0055950Y0145738D02*
X0052220Y0145738D01*
X0051780Y0145140D02*
X0055698Y0145140D01*
X0055446Y0144541D02*
X0051182Y0144541D01*
X0049980Y0143943D02*
X0055193Y0143943D01*
X0054437Y0142147D02*
X0047198Y0142147D01*
X0047390Y0142049D02*
X0046988Y0142254D01*
X0045525Y0138541D01*
X0049237Y0137079D01*
X0049330Y0137365D01*
X0049436Y0138033D01*
X0049436Y0138710D01*
X0049330Y0139379D01*
X0049121Y0140022D01*
X0048814Y0140625D01*
X0048416Y0141173D01*
X0047937Y0141651D01*
X0047390Y0142049D01*
X0046946Y0142147D02*
X0046301Y0142147D01*
X0046065Y0141549D02*
X0046710Y0141549D01*
X0046474Y0140950D02*
X0045829Y0140950D01*
X0045594Y0140352D02*
X0046238Y0140352D01*
X0046003Y0139753D02*
X0045358Y0139753D01*
X0045122Y0139155D02*
X0045767Y0139155D01*
X0045531Y0138556D02*
X0045487Y0138556D01*
X0045369Y0137957D02*
X0047006Y0137957D01*
X0046888Y0137359D02*
X0048525Y0137359D01*
X0048408Y0136760D02*
X0052168Y0136760D01*
X0051916Y0136162D02*
X0048836Y0136162D01*
X0048409Y0135563D02*
X0051664Y0135563D01*
X0051411Y0134965D02*
X0047763Y0134965D01*
X0049328Y0137359D02*
X0052420Y0137359D01*
X0052672Y0137957D02*
X0049424Y0137957D01*
X0049436Y0138556D02*
X0052924Y0138556D01*
X0053176Y0139155D02*
X0049366Y0139155D01*
X0049208Y0139753D02*
X0053428Y0139753D01*
X0053681Y0140352D02*
X0048953Y0140352D01*
X0048578Y0140950D02*
X0053933Y0140950D01*
X0054185Y0141549D02*
X0048040Y0141549D01*
M02*
