G75*
%MOIN*%
%OFA0B0*%
%FSLAX25Y25*%
%IPPOS*%
%LPD*%
%AMOC8*
5,1,8,0,0,1.08239X$1,22.5*
%
%ADD10R,0.01784X0.03556*%
%ADD11R,0.03556X0.01784*%
%ADD12R,0.14186X0.14186*%
%ADD13R,0.04343X0.04737*%
%ADD14R,0.02178X0.04737*%
%ADD15R,0.07099X0.03950*%
%ADD16R,0.03162X0.02965*%
%ADD17R,0.02965X0.03162*%
%ADD18R,0.04048X0.01981*%
%ADD19C,0.04540*%
%ADD20C,0.03900*%
%ADD21R,0.06706X0.05918*%
%ADD22R,0.03556X0.04343*%
%ADD23R,0.04343X0.03556*%
%ADD24C,0.01725*%
%ADD25R,0.04737X0.05131*%
%ADD26R,0.05131X0.04737*%
%ADD27R,0.03162X0.03162*%
%ADD28R,0.04737X0.02375*%
%ADD29R,0.05131X0.04934*%
%ADD30R,0.04146X0.02375*%
%ADD31R,0.04343X0.01902*%
%ADD32C,0.06800*%
%ADD33R,0.07200X0.04300*%
%ADD34R,0.07200X0.13300*%
%ADD35R,0.07099X0.02375*%
%ADD36R,0.02375X0.07099*%
%ADD37R,0.10643X0.10643*%
%ADD38R,0.10249X0.10249*%
%ADD39R,0.09461X0.09461*%
%ADD40R,0.12611X0.30328*%
%ADD41R,0.03950X0.04343*%
%ADD42R,0.07690X0.02296*%
%ADD43R,0.02296X0.07690*%
%ADD44R,0.01981X0.04146*%
%ADD45R,0.09855X0.06312*%
%ADD46R,0.04146X0.01981*%
%ADD47R,0.06312X0.09855*%
%ADD48R,0.08674X0.01981*%
%ADD49R,0.01981X0.08674*%
%ADD50R,0.10419X0.10419*%
%ADD51OC8,0.06800*%
%ADD52C,0.03600*%
%ADD53C,0.04000*%
D10*
X0134509Y0122168D03*
X0136477Y0122168D03*
X0138446Y0122168D03*
X0140414Y0122168D03*
X0142383Y0122168D03*
X0144351Y0122168D03*
X0146320Y0122168D03*
X0148288Y0122168D03*
X0148288Y0141065D03*
X0146320Y0141065D03*
X0144351Y0141065D03*
X0142383Y0141065D03*
X0140414Y0141065D03*
X0138446Y0141065D03*
X0136477Y0141065D03*
X0134509Y0141065D03*
D11*
X0131950Y0138506D03*
X0131950Y0136538D03*
X0131950Y0134569D03*
X0131950Y0132601D03*
X0131950Y0130632D03*
X0131950Y0128664D03*
X0131950Y0126695D03*
X0131950Y0124727D03*
X0150847Y0124727D03*
X0150847Y0126695D03*
X0150847Y0128664D03*
X0150847Y0130632D03*
X0150847Y0132601D03*
X0150847Y0134569D03*
X0150847Y0136538D03*
X0150847Y0138506D03*
D12*
X0141398Y0131617D03*
D13*
X0125950Y0110758D03*
X0119847Y0110758D03*
X0119847Y0103475D03*
X0125950Y0103475D03*
D14*
X0158839Y0127975D03*
X0161398Y0127975D03*
X0163957Y0127975D03*
X0163957Y0135258D03*
X0161398Y0135258D03*
X0158839Y0135258D03*
D15*
X0172398Y0157424D03*
X0172398Y0170810D03*
D16*
X0125745Y0097617D03*
X0122398Y0097617D03*
D17*
X0113898Y0108117D03*
X0113898Y0111463D03*
X0144398Y0099963D03*
X0144398Y0096617D03*
X0144398Y0090117D03*
X0144398Y0086770D03*
D18*
X0153517Y0086148D03*
X0153517Y0084180D03*
X0153517Y0088117D03*
X0153517Y0090085D03*
X0153517Y0092054D03*
X0163280Y0092054D03*
X0163280Y0090085D03*
X0163280Y0088117D03*
X0163280Y0086148D03*
X0163280Y0084180D03*
D19*
X0129398Y0088617D03*
X0109398Y0092617D03*
X0109398Y0084617D03*
D20*
X0114398Y0086117D03*
X0114398Y0091117D03*
X0119398Y0091117D03*
X0119398Y0086117D03*
X0124398Y0086117D03*
X0124398Y0091117D03*
D21*
X0136898Y0089376D03*
X0136898Y0096857D03*
D22*
X0123957Y0123617D03*
X0118839Y0123617D03*
X0118839Y0129617D03*
X0123957Y0129617D03*
X0116857Y0153217D03*
X0111739Y0153217D03*
X0134839Y0172117D03*
X0139957Y0172117D03*
X0168741Y0044869D03*
X0173859Y0044869D03*
X0173859Y0039369D03*
X0168741Y0039369D03*
D23*
X0134800Y0073310D03*
X0134800Y0078428D03*
X0127800Y0078428D03*
X0127800Y0073310D03*
X0120300Y0066428D03*
X0120300Y0061310D03*
X0110800Y0036928D03*
X0110800Y0031810D03*
X0104800Y0031810D03*
X0104800Y0036928D03*
X0135398Y0107558D03*
X0135398Y0112676D03*
X0131398Y0148058D03*
X0131398Y0153176D03*
X0138898Y0155176D03*
X0138898Y0150058D03*
X0174098Y0089876D03*
X0174098Y0084758D03*
D24*
X0129316Y0166278D03*
X0129316Y0167853D03*
X0127741Y0167853D03*
X0127741Y0166278D03*
D25*
X0104061Y0166206D03*
X0097369Y0166206D03*
X0113954Y0075369D03*
X0120646Y0075369D03*
X0111005Y0046534D03*
X0104312Y0046534D03*
X0086501Y0050105D03*
X0086501Y0056798D03*
X0086296Y0024231D03*
X0086296Y0017538D03*
X0023729Y0040207D03*
X0023729Y0046900D03*
X0149603Y0030837D03*
X0149603Y0024144D03*
X0169800Y0050522D03*
X0169800Y0057215D03*
X0169627Y0069585D03*
X0169627Y0076278D03*
D26*
X0142800Y0044215D03*
X0142800Y0037522D03*
X0124300Y0044022D03*
X0124300Y0050715D03*
X0096418Y0040042D03*
X0089725Y0040042D03*
X0097485Y0024207D03*
X0097485Y0017514D03*
X0074020Y0017152D03*
X0074020Y0023845D03*
X0062272Y0023845D03*
X0062272Y0017152D03*
X0041300Y0017022D03*
X0041300Y0023715D03*
X0028800Y0023715D03*
X0028800Y0017022D03*
X0092146Y0086932D03*
X0098839Y0086932D03*
D27*
X0075780Y0069869D03*
X0071450Y0069869D03*
D28*
X0110194Y0024365D03*
X0110194Y0021806D03*
X0110194Y0019247D03*
X0119643Y0019247D03*
X0119643Y0021806D03*
X0119643Y0024365D03*
X0132005Y0024365D03*
X0132005Y0021806D03*
X0132005Y0019247D03*
X0141454Y0019247D03*
X0141454Y0021806D03*
X0141454Y0024365D03*
D29*
X0136729Y0020428D03*
X0114918Y0020428D03*
D30*
X0114524Y0024365D03*
X0136335Y0024365D03*
D31*
X0129556Y0031207D03*
X0129556Y0033176D03*
X0129556Y0035144D03*
X0123414Y0035144D03*
X0123414Y0033176D03*
X0123414Y0031207D03*
D32*
X0013737Y0020806D02*
X0007737Y0020806D01*
X0007737Y0030806D02*
X0013737Y0030806D01*
X0013737Y0040806D02*
X0007737Y0040806D01*
X0014942Y0053535D02*
X0009360Y0055734D01*
X0013025Y0065038D02*
X0018607Y0062839D01*
X0022272Y0072143D02*
X0016690Y0074342D01*
X0020355Y0083646D02*
X0025937Y0081447D01*
X0029602Y0090751D02*
X0024020Y0092950D01*
X0027685Y0102254D02*
X0033267Y0100055D01*
X0036932Y0109360D02*
X0031350Y0111559D01*
X0035015Y0120863D02*
X0040597Y0118664D01*
X0044262Y0127968D02*
X0038680Y0130167D01*
X0042345Y0139471D02*
X0047927Y0137272D01*
X0051592Y0146576D02*
X0046010Y0148775D01*
X0049675Y0158079D02*
X0055257Y0155880D01*
X0058922Y0165185D02*
X0053340Y0167384D01*
X0167879Y0031688D02*
X0173879Y0031688D01*
X0173879Y0021688D02*
X0167879Y0021688D01*
D33*
X0158400Y0054769D03*
X0158400Y0063869D03*
X0158400Y0072969D03*
D34*
X0133200Y0063869D03*
D35*
X0109461Y0064845D03*
X0109461Y0067365D03*
X0109461Y0069924D03*
X0109461Y0062286D03*
X0090564Y0062286D03*
X0090564Y0064845D03*
X0090564Y0067365D03*
X0090564Y0069924D03*
D36*
X0096194Y0075554D03*
X0098753Y0075554D03*
X0101272Y0075554D03*
X0103831Y0075554D03*
X0103831Y0056656D03*
X0101272Y0056656D03*
X0098753Y0056656D03*
X0096194Y0056656D03*
D37*
X0100013Y0066105D03*
D38*
X0061034Y0102876D03*
D39*
X0061034Y0126892D03*
D40*
X0080420Y0114284D03*
X0100106Y0114284D03*
D41*
X0076103Y0084743D03*
X0068623Y0084743D03*
X0063540Y0080743D03*
X0056060Y0080743D03*
X0059800Y0072475D03*
X0072363Y0076475D03*
X0068363Y0138775D03*
X0072103Y0147043D03*
X0069463Y0153575D03*
X0064623Y0147043D03*
X0065723Y0161843D03*
X0073203Y0161843D03*
D42*
X0082580Y0152292D03*
X0082580Y0149733D03*
X0082580Y0147174D03*
X0082580Y0144615D03*
X0100494Y0144615D03*
X0100494Y0147174D03*
X0100494Y0149733D03*
X0100494Y0152292D03*
D43*
X0095376Y0157410D03*
X0092817Y0157410D03*
X0090257Y0157410D03*
X0087698Y0157410D03*
X0087698Y0139497D03*
X0090257Y0139497D03*
X0092817Y0139497D03*
X0095376Y0139497D03*
D44*
X0049639Y0097676D03*
X0047080Y0097676D03*
X0044520Y0097676D03*
X0041961Y0097676D03*
X0041961Y0086062D03*
X0044520Y0086062D03*
X0047080Y0086062D03*
X0049639Y0086062D03*
D45*
X0045800Y0091869D03*
D46*
X0047607Y0077707D03*
X0047607Y0075148D03*
X0047607Y0072589D03*
X0047607Y0070030D03*
X0035993Y0070030D03*
X0035993Y0072589D03*
X0035993Y0075148D03*
X0035993Y0077707D03*
D47*
X0041800Y0073869D03*
D48*
X0044660Y0046721D03*
X0044660Y0044821D03*
X0044660Y0042821D03*
X0044660Y0040821D03*
X0044660Y0038921D03*
X0064184Y0038921D03*
X0064184Y0040821D03*
X0064184Y0042821D03*
X0064184Y0044821D03*
X0064184Y0046721D03*
D49*
X0058322Y0052584D03*
X0056422Y0052584D03*
X0054422Y0052584D03*
X0052422Y0052584D03*
X0050522Y0052584D03*
X0050522Y0033059D03*
X0052422Y0033059D03*
X0054422Y0033059D03*
X0056422Y0033059D03*
X0058322Y0033059D03*
D50*
X0054422Y0042821D03*
D51*
X0029800Y0055869D03*
D52*
X0087800Y0077869D03*
X0102800Y0091369D03*
X0113800Y0040869D03*
X0167300Y0080869D03*
X0106300Y0171369D03*
X0101800Y0171869D03*
D53*
X0066800Y0056869D03*
X0043800Y0032369D03*
X0038800Y0053869D03*
M02*
